<?xml version="1.0" standalone="no"?>
<!DOCTYPE svg PUBLIC "-//W3C//DTD SVG 1.1//EN" "http://www.w3.org/Graphics/SVG/1.1/DTD/svg11.dtd" >
<svg>
<metadata>
Created by FontForge 20090622 at Sat Jun 17 14:26:24 2017
 By deploy user
Copyright (c) 2014 by Mans Greback. All rights reserved.
</metadata>
<defs>
<font id="zRhrpQhwwoff" horiz-adv-x="743" >
  <font-face 
    font-family="Notera"
    font-weight="400"
    font-stretch="normal"
    units-per-em="1000"
    panose-1="2 0 0 0 0 0 0 0 0 0"
    ascent="580"
    descent="-420"
    x-height="160"
    cap-height="551"
    bbox="-127.333 -333.629 1006.54 706"
    underline-thickness="50"
    underline-position="-50"
    unicode-range="U+000D-U+FB02"
  />
<missing-glyph horiz-adv-x="600" 
 />
    <glyph glyph-name=".notdef" horiz-adv-x="600" 
 />
    <glyph glyph-name=".null" horiz-adv-x="0" 
 />
    <glyph glyph-name=".null" horiz-adv-x="0" 
 />
    <glyph glyph-name="nonmarkingreturn" unicode="&#xd;" horiz-adv-x="600" 
 />
    <glyph glyph-name="space" unicode=" " horiz-adv-x="294" 
 />
    <glyph glyph-name="exclam" unicode="!" horiz-adv-x="115" 
d="M109 162l47 71q23 35 50 68q13 17 27 32l29 29q5 6 11.5 13t14.5 7q9 0 15 -8.5t2 -17.5q-3 -6 -9 -10t-12 -9q-9 -7 -17 -15t-17 -16q-16 -14 -30 -30l-27 -32q-14 -17 -25 -34l-24 -36q-4 -6 -10 -18t-15 -12q-8 0 -11 6.5t1 11.5zM58 62q15 0 17.5 -9.5t-3 -21
t-17.5 -20.5t-27 -9q-15 1 -18 10.5t3 20.5t18 20t27 9z" />
    <glyph glyph-name="quotedbl" unicode="&#x22;" horiz-adv-x="167" 
d="M97 193q23 17 43.5 37.5t34.5 46.5q5 10 9.5 23.5t18.5 13.5q10 -1 14.5 -9.5t-0.5 -17.5q-8 -23 -28 -43.5t-37 -34.5q-9 -8 -19 -19t-21 -16q-5 -4 -9.5 -3t-7.5 5t-3 9t5 8zM157 193q23 17 43.5 37.5t34.5 46.5q5 10 9.5 23.5t18.5 13.5q10 -1 14.5 -9.5t-0.5 -17.5
q-8 -23 -28 -43.5t-37 -34.5q-9 -8 -19 -19t-21 -16q-5 -4 -9.5 -3t-7.5 5t-3 9t5 8z" />
    <glyph glyph-name="numbersign" unicode="#" horiz-adv-x="313" 
d="M64 35h-33q-5 0 -10.5 1t-8.5 6q-4 6 0 12t12 5q14 -2 27 -2.5t27 0.5q9 15 17 31l16 33h-31q-5 0 -10.5 1t-8.5 6q-4 7 0.5 12.5t11.5 4.5q12 -2 24 -2h24q0 2 1 3q8 16 15.5 38t18.5 36q10 10 24 4.5t13 -19.5t-11 -31l-20 -30q14 2 26.5 3.5t26.5 3.5h3q8 16 14.5 36
t17.5 33q10 10 24 4.5t13 -19.5q-1 -10 -6.5 -21.5t-13.5 -22.5q5 1 9 1h10q12 -2 14.5 -14.5t-8.5 -19.5q-10 -5 -23.5 -5.5t-27.5 -0.5q-8 -11 -14.5 -23.5t-14.5 -24.5q7 2 13 2h11q13 -2 15.5 -15t-9.5 -19q-10 -7 -25.5 -7t-29.5 1l-12 -18q-6 -9 -13 -18l-8 -12
q-4 -5 -11 -4q-8 2 -10.5 9.5t3.5 12.5l21 29q-14 -1 -28 -1h-27h-10l-24 -34q-3 -6 -7 -11.5t-12 -4.5q-8 2 -10 9.5t3 12.5zM166 65q7 0 11 1q16 25 28 55q-14 -1 -27 -1h-27h-5l-16 -28q-8 -13 -17 -26q-2 -2 -2.5 -4t-2.5 -4q14 1 29 3z" />
    <glyph glyph-name="dollar" unicode="$" horiz-adv-x="473" 
d="M121 -157q4 5 8 11.5t8 14.5q-23 8 -40 25t-25 40q-3 8 -4 17.5t-1 18.5q0 26 10.5 52.5t25.5 49.5q21 27 51.5 49t67.5 21q14 -2 26.5 -5t23.5 -11l28 53q-10 23 -16 46t-4 49q1 20 10.5 40t24.5 33.5t34.5 18.5t41.5 -4q2 4 4 9.5t5 17.5q5 11 13.5 15.5t15.5 2.5
t10 -9.5t-3 -19.5l-17 -34q14 -14 20 -32.5t6 -39.5q0 -9 -1 -19t-4 -18v1q-5 -19 -15 -35.5t-24 -36.5q-5 -7 -10.5 -11t-14.5 -2h1q-12 3 -13.5 14.5t7.5 18.5q11 10 21.5 23.5t17 28.5t8 31.5t-5.5 31.5q-2 4 -4 7l-7 6q-9 -21 -28 -57l-43 -81l8 -16q15 -28 26.5 -56.5
t7.5 -63.5t-23.5 -67.5t-48.5 -57t-65 -38.5t-72 -12q-5 -7 -7 -11t-4 -9q-2 -4 -7.5 -6t-11.5 -2t-10 2t-2 6zM251 103q-17 9 -33 9q-23 0 -45 -13.5t-37 -30.5q-17 -18 -27.5 -41.5t-10.5 -49.5q0 -19 9 -37q8 -17 21 -26t27 -11l49 89l54 105zM300 40q-5 -9 -12.5 -12
t-13.5 -1t-8.5 8.5t2.5 17.5q2 4 2 9l-35 -66l-51 -96q7 2 15.5 4t17.5 5q27 7 50 22t40 35t26.5 44t9.5 50q0 17 -4 34t-11 32l-9 16l-3 4l-22 -40q9 -14 11.5 -31t-5.5 -35zM367 330q-14 2 -23.5 -5t-18.5 -18t-13 -24t-4 -26q0 -23 9 -47l25 51q12 23 18 37q4 9 7.5 16
t6.5 15q-2 0 -3.5 0.5t-3.5 0.5z" />
    <glyph glyph-name="percent" unicode="%" horiz-adv-x="394" 
d="M178 274q11 3 26 0.5t24 -10.5q2 -2 3.5 -3t2.5 -3l4 -4v-1q7 -10 6.5 -22.5t-4.5 -24.5t-11 -23t-14 -19q-8 -10 -20 -19.5t-25.5 -16.5t-28 -10t-27.5 1q-26 8 -28 30.5t12 40.5q13 16 29.5 31t35.5 26q-4 8 0 16.5t15 10.5zM266 26q7 -14 4 -28t-12 -26
q-14 -18 -34.5 -34.5t-43.5 -21.5q-16 -3 -30 2t-22 14.5t-8.5 23t10.5 27.5q18 23 45 42.5t57 23.5q6 1 14 1.5t13 -4.5q11 -9 6 -18v-2h1zM-4 -62q66 48 126 101l119 109l58 52l12 14q7 9 15 17.5t16 14.5t16 7q14 2 19 -10t-5 -21l-67 -58l-107 -90l-107 -90l-59 -49
l-20 -15q-5 -4 -9.5 -3t-7.5 4.5t-3.5 8t4.5 8.5zM214 228q-14 6 -33.5 -3t-36 -23.5t-24 -29t3.5 -18.5q9 -3 20 -1.5t22 6.5t20.5 12t15.5 15q5 8 10.5 18.5t5.5 21.5zM150 -36q-2 -6 2.5 -9t11 -4t13.5 -0.5t10 1.5q13 4 24.5 11.5t21.5 16.5q7 8 10.5 18.5t-7.5 17.5
q-11 3 -25 -1t-27 -11.5t-22.5 -18.5t-11.5 -21z" />
    <glyph glyph-name="ampersand" unicode="&#x26;" horiz-adv-x="361" 
d="M196 181q21 4 46.5 14t48 25.5t37 37t13.5 47.5q-1 16 -12.5 21t-28.5 2.5t-36.5 -10.5t-38 -17.5t-32.5 -18.5t-19 -13q-39 -32 -66 -72q-4 -6 -10.5 -17.5t-11 -24t-5 -24t8.5 -18.5q8 -6 16.5 -6t17 3t17 6.5t16.5 2.5l54 10l55 10l57 11q11 2 22.5 4.5t22.5 5.5
q11 2 23.5 6t20.5 -3q10 -8 8.5 -14t-7.5 -10.5t-15 -7t-14 -3.5q-21 -3 -42 -5.5t-43 -4.5q-1 -16 -8 -33t-9 -23q-21 -46 -58 -84t-84 -58q-20 -11 -43.5 -15.5t-46.5 0.5t-38 22t-7 43q6 23 24 43t36 35l21 19l22 18q-12 0 -22.5 4t-18.5 15q-7 12 -7 26t4.5 28t11.5 27
t14 24q16 25 37 48.5t45.5 43.5t52.5 34.5t57 22.5q13 3 27 3.5t26.5 -3t22.5 -12t15 -22.5q4 -14 1.5 -28t-9.5 -27t-16.5 -24.5t-19.5 -20.5q-22 -20 -47 -36.5t-52 -29.5q-8 -5 -19 -10.5t-21 0.5q-11 6 -8.5 18.5t14.5 14.5zM186 102q-5 -2 -12 -4.5t-13 -2.5
q-3 -3 -4 -3q-14 -9 -27 -18.5t-26 -20.5q-18 -16 -35 -34t-28 -39q-6 -14 -3.5 -23t10 -13.5t19 -5.5t22.5 1q51 6 93.5 38t68.5 75q12 23 20 49q0 2 0.5 5.5t0.5 7.5q-21 -3 -42.5 -5.5t-43.5 -6.5z" />
    <glyph glyph-name="quotesingle" unicode="'" horiz-adv-x="2" 
d="M25 193q23 17 43.5 37.5t34.5 46.5q5 10 9.5 23.5t18.5 13.5q10 -1 14.5 -9.5t-0.5 -17.5q-8 -23 -28 -43.5t-37 -34.5q-9 -8 -19 -19t-21 -16q-5 -4 -9.5 -3t-7.5 5t-3 9t5 8z" />
    <glyph glyph-name="parenleft" unicode="(" horiz-adv-x="163" 
d="M73 -109q-27 34 -39.5 73t-11 78.5t16 78t40.5 72.5q25 31 54.5 55t64.5 44q5 3 17 9.5t28 14t33 14t31.5 9.5t25 1t13.5 -12q1 -9 -3 -13.5t-11 -7.5t-14 -4l-13 -3q-44 -11 -83 -30t-72 -45t-59 -61t-39 -77t-5 -87q7 -43 35 -80q3 -6 10 -14.5t-2 -15.5q-4 -4 -9 -3.5
t-8 4.5z" />
    <glyph glyph-name="parenright" unicode=")" horiz-adv-x="197" 
d="M-116 -90q40 7 79 24.5t72.5 43t60.5 58.5t44 71q17 36 20 77t-12 79q-8 19 -21 36l-10 13q-6 7 -4 16q4 16 16.5 13t20.5 -12q26 -36 34.5 -75.5t3 -79.5t-23 -78t-44.5 -70q-27 -33 -60.5 -59t-71.5 -45q-20 -10 -40.5 -18t-42.5 -13q-6 -2 -14.5 -4.5t-14.5 4.5
q-5 5 -2.5 11.5t10.5 7.5z" />
    <glyph glyph-name="asterisk" unicode="*" horiz-adv-x="257" 
d="M236 168q6 -2 7 -8.5t-4 -11.5q-4 -4 -8 -2l-9 3l-52 27l-15 8h-1q-2 -3 -3 -5l-2 -4q-5 -13 -12.5 -25.5t-14.5 -27.5q-2 -3 -5 -6.5t-9 -3.5q-6 -2 -9.5 3.5t-0.5 10.5q8 11 14 22l12 22l-53 -21q-5 -2 -10.5 -3.5t-10.5 2.5q-6 5 -5 11.5t9 8.5q20 6 39 13.5t37 17.5
q-4 2 -7.5 4t-7.5 5q-10 6 -24.5 13t-22.5 18q-6 11 0 21.5t16 7.5q13 -5 25.5 -18t22.5 -21q3 -2 5.5 -4t5.5 -4l3 12q5 11 7.5 28t10.5 28q7 8 18.5 6t13.5 -13t-6.5 -25t-13.5 -25l-4 -10l10 7q13 8 29 21t31 18q13 3 20.5 -7.5t-0.5 -21.5t-26.5 -18t-31.5 -13l-24 -12
l28 -16q13 -7 28 -12z" />
    <glyph glyph-name="plus" unicode="+" horiz-adv-x="335" 
d="M110 13q18 26 32 60h-5q-17 0 -35 0.5t-36 0.5q-5 0 -11 1t-8 7q-4 6 0 12t12 4q45 -5 92 0l7 22q5 12 7.5 28.5t10.5 27.5q7 8 18.5 6t13.5 -13t-6.5 -25t-13.5 -25l-9 -18l21 3q16 2 35.5 7.5t35.5 3.5q13 -2 15.5 -14.5t-9.5 -18.5q-6 -4 -14 -5t-17 -1h-18h-16
q-23 -3 -45 -3q-4 -4 -6 -11q-5 -12 -12.5 -25t-14.5 -27q-2 -4 -5 -7.5t-9 -3.5q-6 -1 -9.5 4t-0.5 10z" />
    <glyph glyph-name="comma" unicode="," horiz-adv-x="154" 
d="M-31 -48q23 17 43.5 37.5t34.5 46.5q5 10 9 23.5t18 13.5q11 -1 15.5 -9.5t-0.5 -17.5q-8 -23 -28 -43.5t-37 -34.5q-9 -8 -19.5 -19t-21.5 -16q-5 -4 -9.5 -3t-7 4.5t-2.5 8.5t5 9z" />
    <glyph glyph-name="hyphen" unicode="-" horiz-adv-x="340" 
d="M60 98q35 -3 71 -1t71 7q15 2 34.5 7.5t35.5 3.5q13 -2 15.5 -14.5t-9.5 -18.5q-6 -4 -14 -5t-17 -1h-17h-16q-39 -3 -76 -3q-17 0 -35 0.5t-36 0.5q-5 0 -10.5 1t-8.5 7q-4 6 0 12t12 4z" />
    <glyph glyph-name="period" unicode="." horiz-adv-x="157" 
d="M78 62q15 0 18 -9.5t-3 -21t-18 -20.5t-27 -9q-15 1 -18 10.5t3 20.5t18.5 20t26.5 9z" />
    <glyph glyph-name="slash" unicode="/" horiz-adv-x="383" 
d="M-4 -62q66 48 126 101l119 109l58 52l12 14q7 9 15 17.5t16 14.5t16 7q14 2 19 -10t-5 -21l-67 -58l-107 -90l-107 -90l-59 -49l-20 -15q-5 -4 -9.5 -3t-7.5 4.5t-3.5 8t4.5 8.5z" />
    <glyph glyph-name="zero" unicode="0" horiz-adv-x="251" 
d="M250 199q-14 4 -27 3q14 -35 13.5 -75t-16.5 -71q-8 -17 -24 -34t-36 -30t-42 -21t-42 -8q-21 0 -40 9.5t-28 28.5q-5 12 -5 24t4 24t10 23t13 20q28 41 67 74.5t84 53.5q-9 10 -24 18l-15 4q-7 2 -15 0q-7 -1 -15 -3.5t-16 2.5q-11 8 -7 18t14 15q35 6 61.5 -6.5
t43.5 -37.5q11 4 24.5 6t24.5 -2q9 -3 12.5 -9.5t2.5 -13t-7 -11t-15 -1.5zM118 149q-13 -10 -28 -23t-27 -28.5t-20 -32.5t-7 -35q0 -18 11.5 -24.5t27 -6.5t31.5 4t25 8q32 14 54 39.5t26 61.5q2 19 -1 42t-13 43q-23 -8 -44 -22z" />
    <glyph glyph-name="one" unicode="1" horiz-adv-x="149" 
d="M162 218q-32 -55 -62 -113t-50 -118q-3 -10 -6 -24.5t-16 -15.5q-11 -1 -17 7.5t-1 19.5q2 7 6.5 14.5t8.5 15.5l23 50l25 48q13 26 25 53t22 54q2 4 3.5 10.5t4.5 12.5t7 10t11 4q11 0 16 -9.5t0 -18.5z" />
    <glyph glyph-name="two" unicode="2" horiz-adv-x="311" 
d="M79 150q11 19 28 36t38 31t43.5 23.5t44.5 12.5q16 3 32.5 -1.5t22.5 -22.5q8 -18 -2 -35.5t-21 -31.5q-33 -38 -74 -70l-82 -60l-17 -12q45 4 90.5 -2.5t86.5 -23.5q6 -5 8 -12t-0.5 -13t-8 -9t-14.5 0q-11 5 -19.5 11t-19.5 11q-13 5 -26 8t-26 5q-27 4 -57.5 2.5
t-59.5 -9.5l-17 -12q-7 -5 -15 -11.5t-17 -12.5t-18 -11t-16 -6q-17 -5 -23 11q-4 12 7 20l18 14q18 12 38 19.5t40 12.5l37 26l35 26q36 26 72.5 56.5t58.5 70.5q8 13 10 21t-15 9q-23 1 -45.5 -7t-40.5 -22q-8 -5 -15 -12l-13 -13q-6 -9 -9.5 -18.5t-8.5 -18.5
q-5 -8 -12 -8.5t-12.5 3t-8 10.5t2.5 15z" />
    <glyph glyph-name="three" unicode="3" horiz-adv-x="278" 
d="M109 197q11 18 29 35t39.5 28t45 15.5t45.5 -1.5q20 -6 35 -23t16 -39q0 -14 -6 -26t-15.5 -22t-21.5 -17.5t-23 -13.5t-22 -10l-25 -10q13 -12 22 -27t11 -32q3 -24 -6.5 -44.5t-27 -35t-39.5 -22.5t-44 -8q-23 0 -45.5 9t-40.5 25t-28 37.5t-8 46.5q0 6 2.5 17t7 21.5
t11.5 18.5t16 8q16 0 17 -8.5t-4 -19.5t-12.5 -22t-8.5 -15q-8 -23 5 -44t33 -32q23 -11 49.5 -8.5t49.5 11.5q23 8 39 26.5t9 44.5q-5 15 -15 26.5t-24 17.5q-5 -1 -9.5 -1.5t-9.5 -0.5q-12 -1 -24 -0.5t-23 5.5t-13.5 17.5t11.5 17.5q7 3 16.5 3t19.5 -2t19.5 -5t16.5 -6
q16 3 31.5 8.5t30.5 14.5q11 7 22 17.5t16 22.5t2.5 24.5t-18.5 21.5q-14 8 -29.5 8.5t-31 -5t-28.5 -14.5t-22 -21q-3 -5 -5 -11l-4 -12q-2 -7 -5.5 -12t-10.5 -6q-11 -3 -18 8t0 21z" />
    <glyph glyph-name="four" unicode="4" horiz-adv-x="223" 
d="M92 115q10 -9 26.5 -2.5t34 19t32.5 27.5l21 20q15 15 29 31t28 30q9 5 20.5 2t9.5 -18q-2 -9 -11 -15.5t-16 -12.5l-30 -33l-27 -35q-14 -18 -25 -37q-26 -37 -47.5 -76t-40.5 -80q-3 -6 -6 -16t-7.5 -20.5t-10.5 -17.5t-14 -7q-12 0 -14.5 6.5t-0.5 14.5t6.5 16t6.5 13
l54 96q27 47 57 93q-22 -17 -45.5 -25.5t-43.5 6.5q-16 12 -15.5 29.5t9 36.5t21 36t20.5 27l14 18q7 9 18 11q8 2 13 -1.5t6.5 -9.5t-0.5 -12.5t-8 -10.5q-3 -2 -16 -15.5t-26.5 -30.5t-21.5 -33t0 -24z" />
    <glyph glyph-name="five" unicode="5" horiz-adv-x="270" 
d="M172 214q-14 -8 -25.5 -20t-21.5 -26q16 8 33 15t34 13q17 5 34.5 2t25.5 -19q8 -15 5.5 -32.5t-11 -34t-19.5 -31.5l-19 -26q-21 -28 -43.5 -54.5t-48.5 -50.5q-11 -11 -22.5 -21t-25.5 -15q-8 -3 -12.5 -0.5t-6.5 8t-2 12.5v12q5 36 25 66t46 55q7 8 17.5 18.5
t22.5 4.5q10 -5 11 -11t-3.5 -12t-11.5 -10l-12 -8q-23 -14 -43 -39t-21 -54q17 8 31 23l25 25q38 38 66 86q3 5 8.5 15t9.5 21t5.5 21t-2.5 15q-9 8 -25.5 5.5t-26.5 -6.5q-11 -5 -22.5 -11t-21.5 -12q-8 -5 -18 -14t-18 -11q-8 -3 -16 -2t-11 11q-3 11 8 21t19 18
q11 14 23 27.5t22 29.5q-8 -2 -15.5 -2.5t-15.5 -1.5l-15 -5q-10 -3 -17 0q-9 2 -8 11.5t10 11.5l186 30q7 1 18 3t22.5 3.5t22 0.5t15.5 -7q9 -11 5.5 -17t-12.5 -8.5t-19.5 -3t-14.5 -0.5q-24 1 -48 -1l-48 -4l-20 -2q0 -6 -8 -12z" />
    <glyph glyph-name="six" unicode="6" horiz-adv-x="236" 
d="M289 226q-55 -5 -104.5 -34t-87.5 -68q41 9 76 -6q23 -12 29 -30.5t1 -37.5t-19 -36t-30 -27q-16 -9 -36 -16t-40 -7t-37.5 8.5t-27.5 28.5q-8 17 -5 32.5t11 31.5q-6 -4 -12 -7t-9 -5l-23 -15q-11 -7 -22 -16q-6 -7 -14.5 -10.5t-16.5 4.5q-9 9 -5 17.5t13.5 15.5
t20 12.5t15.5 8.5l38 20q22 11 46 20q21 24 46 45l49 41q49 37 106 57q10 3 25 8t24 -4q9 -8 5 -19t-16 -12zM78 -2q15 -3 36.5 1t39 15t26.5 27t1 37q-6 15 -17.5 21.5t-26.5 6.5t-32.5 -4.5t-34.5 -11.5q-10 -13 -17.5 -27.5t-8.5 -27.5t6.5 -23t27.5 -14z" />
    <glyph glyph-name="seven" unicode="7" horiz-adv-x="277" 
d="M125 224q43 11 87 19.5t89 9.5q11 1 27 2t27 -4q8 -2 11 -10t-2 -15t-14 -10t-15 -7q-57 -30 -104 -76.5t-88 -97.5q9 2 18 3.5t18 2.5q6 1 16 3t20.5 3.5t20 0.5t14.5 -7q8 -9 6 -15t-9 -9t-15.5 -3.5t-14.5 -0.5q-45 0 -90 -6q-5 0 -7 -1q-6 -8 -12 -15t-11 -15
q-11 -17 -22.5 -33t-21.5 -34q-3 -4 -8 -12.5t-12 -14.5t-13.5 -6.5t-12.5 11.5q-3 7 -0.5 14.5t8 15t11.5 14t10 11.5l47 58l-24 -4l-22 -4q-5 -2 -14 -4t-15 4q-5 5 -2.5 12t10.5 8q23 2 44 7l44 9l96 105q49 50 106 94q-28 2 -56.5 -1.5t-53.5 -10.5q-9 -3 -17.5 -5.5
t-16.5 -6.5q-8 -3 -17.5 -9t-18.5 -4q-7 1 -11 6t-4 11t3.5 11t10.5 6z" />
    <glyph glyph-name="eight" unicode="8" horiz-adv-x="220" 
d="M269 179q2 -16 -4.5 -27.5t-17.5 -19.5t-25 -12.5t-26 -7.5q-6 -2 -12 -3l-11 -2q5 -7 8 -14t4 -15q2 -21 -5 -43t-19.5 -42.5t-29.5 -37t-35 -26.5q-14 -8 -33.5 -11.5t-38.5 -0.5t-34.5 13.5t-21.5 29.5q-8 22 0.5 44.5t25 42.5t37 36.5t36.5 25.5q2 1 4 2.5t5 2.5
q-8 5 -14 13q-8 12 -8 24t5 23t14 21t18 17q12 9 27.5 17.5t33 13.5t34 5t30.5 -9q9 -6 14 -17q16 -6 26.5 -17t12.5 -26zM130 95q-8 -1 -14 2q-17 0 -34.5 -10t-28.5 -19q-18 -14 -37 -34t-23 -45q-2 -11 4 -18.5t16 -12.5q23 -10 45 -7t42 15q19 12 31.5 29.5t20.5 38.5
q3 7 5 16.5t1.5 18.5t-4.5 16t-12 9q-6 0 -10 1h-2zM79 150q1 -9 8.5 -14.5t18.5 -8.5q14 6 33 4q1 -1 4 -1l8 -4q29 3 54.5 12t32.5 20q8 12 2 21t-18 14q-5 -2 -11.5 -0.5t-8.5 6.5l-16 4q-10 1 -25.5 -1.5t-26.5 3.5q-23 -10 -40 -24t-15 -31z" />
    <glyph glyph-name="nine" unicode="9" horiz-adv-x="182" 
d="M102 29q-30 -47 -49 -96q-5 -13 -9 -25.5t-8 -26.5q-3 -11 -5 -28t-9 -25q-7 -6 -15.5 -4.5t-12.5 9.5q-5 7 -2.5 15l4.5 15q9 27 20 53.5t25 52.5q23 45 50 86t58 79l-13 -4q-10 -4 -22.5 -8.5t-25 -7.5t-25 -2.5t-22.5 7.5q-22 15 -12 34t33.5 36.5t49.5 30.5t37 16
q19 7 40 5.5t35 -18.5q7 5 15 7q11 0 16.5 -10.5t-2.5 -19.5q-4 -5 -9 -8t-10 -7q-40 -34 -73 -73.5t-59 -82.5zM64 145q12 -5 32 -1.5t31 8.5q17 7 34 16.5t31 21.5q1 1 2.5 2t3.5 4q-7 16 -27 15.5t-42.5 -11t-41.5 -26t-23 -29.5z" />
    <glyph glyph-name="colon" unicode=":" horiz-adv-x="157" 
d="M78 62q15 0 18 -9.5t-3 -21t-18 -20.5t-27 -9q-15 1 -18 10.5t3 20.5t18.5 20t26.5 9zM145 186q15 0 18 -9.5t-3 -21t-18 -20.5t-27 -9t-18 9.5t3 21t18.5 20.5t26.5 9z" />
    <glyph glyph-name="semicolon" unicode=";" horiz-adv-x="157" 
d="M145 186q15 0 18 -9.5t-3 -21t-18 -20.5t-27 -9t-18 9.5t3 21t18.5 20.5t26.5 9zM-31 -48q23 17 43.5 37.5t34.5 46.5q5 10 9 23.5t18 13.5q11 -1 15.5 -9.5t-0.5 -17.5q-8 -23 -28 -43.5t-37 -34.5q-9 -8 -19.5 -19t-21.5 -16q-5 -4 -9.5 -3t-7 4.5t-2.5 8.5t5 9z" />
    <glyph glyph-name="less" unicode="&#x3c;" horiz-adv-x="288" 
d="M266 200q-42 -25 -85.5 -44t-85.5 -42q6 -15 14 -30t19 -26q17 -17 35 -21q9 -2 13.5 -10t-0.5 -16t-12.5 -9t-16.5 1.5t-17 7.5t-12 8q-20 16 -32.5 37.5t-23.5 44.5q-6 15 -6 25.5t20 15.5q24 5 47.5 14t46.5 20q20 11 39 23t36 29q7 7 14.5 5.5t12 -7t4 -13.5
t-9.5 -13z" />
    <glyph glyph-name="equal" unicode="=" horiz-adv-x="316" 
d="M35 89q35 -4 70.5 -1.5t70.5 7.5q16 2 35.5 7.5t35.5 3.5q13 -2 15.5 -15t-9.5 -19q-6 -4 -14 -5t-17 -1h-18h-16q-19 -1 -37.5 -1.5t-37.5 -0.5q-17 0 -35 0.5t-36 0.5q-5 0 -11 1t-8 6q-4 6 0 12t12 5zM66 158q35 -3 71 -1t71 7q15 2 34.5 7.5t35.5 3.5
q13 -2 15.5 -14.5t-9.5 -18.5q-6 -4 -14 -5t-17 -1h-18h-15q-39 -3 -76 -3q-17 0 -35 0.5t-36 0.5q-5 0 -10.5 1t-8.5 7q-4 6 0 12t12 4z" />
    <glyph glyph-name="greater" unicode="&#x3e;" horiz-adv-x="304" 
d="M155 223q6 -2 28 -11.5t44 -22t35 -27t0 -26.5q-39 -38 -81 -65.5t-90 -54.5q-5 -3 -14.5 -10.5t-19.5 -12t-18.5 -4.5t-12.5 12q-3 10 4 17t17.5 12t21.5 9l17 5q41 18 78 41.5t63 60.5q-14 16 -36 25t-39 15q-9 4 -16.5 9t-3.5 16q2 8 8.5 11t14.5 1z" />
    <glyph glyph-name="question" unicode="?" horiz-adv-x="253" 
d="M154 298q6 16 19 34.5t29 28.5q13 11 31.5 19t39 11.5t40.5 1t37 -12.5q21 -12 29.5 -30.5t7 -38.5t-12 -39t-26.5 -33q-20 -15 -41.5 -21.5t-44.5 -9.5l-45 -6q-23 -3 -44 -10q-8 -3 -15.5 -7.5t-12.5 -11.5q-7 -9 -7.5 -18.5t-4.5 -18.5q-3 -8 -9 -10.5t-11.5 0t-9.5 8
t-3 12.5q5 24 17.5 39t29 24t37 12.5t42.5 5.5q18 2 41.5 6t43.5 13.5t33 25.5t11 42q-2 23 -19 34.5t-39.5 13.5t-45 -3.5t-35.5 -16.5q-6 -5 -10 -11.5t-9 -13.5q-5 -9 -6 -20.5t-6 -19.5t-12 -8.5t-12.5 3t-8 11t1.5 15.5zM62 62q15 0 18 -9.5t-3 -21t-18 -20.5t-27 -9
q-15 1 -17.5 10.5t3.5 20.5t18 20t26 9z" />
    <glyph glyph-name="at" unicode="@" horiz-adv-x="492" 
d="M299 130q-13 16 -31.5 12.5t-36.5 -16.5t-32.5 -30t-17.5 -29q-3 -11 1.5 -18t12.5 -10.5t18.5 -4t18.5 2.5q10 3 20.5 12t21.5 9t10.5 -10t2.5 -17q4 -10 16.5 -9.5t26 6t26 13t17.5 11.5q22 15 39 36.5t25 47.5q7 24 2 47t-24 41q-20 20 -49 23t-55 1
q-49 -3 -100.5 -28.5t-90.5 -65.5t-58.5 -90.5t-5.5 -104.5q8 -28 27 -43t43 -18.5t49.5 3t45.5 21.5q5 4 12 12t15 15.5t16.5 12t16.5 3.5q9 -2 13 -10t-1 -16q-5 -9 -19.5 -16t-23.5 -12q-29 -18 -61.5 -34t-67.5 -14q-24 1 -42.5 11.5t-30.5 27t-18 37.5t-6 43
q0 48 16.5 88t43.5 73t62.5 60t74.5 49q38 21 85.5 29t89.5 -6q45 -14 65 -53t7 -84q-10 -33 -33 -61.5t-52 -46.5q-12 -8 -30.5 -16t-36.5 -11t-32.5 2t-19.5 23q-13 -6 -26 -13.5t-26 -11t-26 -1t-25 15.5t-13.5 27t3.5 27.5t15 25.5t19 21q11 10 25 20.5t29 18t31 10.5
t32 -1q8 -2 17.5 -7.5t10.5 -15.5q1 -13 -11 -17.5t-20 3.5z" />
    <glyph glyph-name="A" unicode="A" horiz-adv-x="730" 
d="M8 25q35 17 73 28.5t76 20.5l25 39l67 91l71 88q36 42 74.5 82.5t81.5 75.5q21 17 43 32t45 27q6 3 19.5 9t27.5 9.5t26 2.5t16 -12q2 -7 -1.5 -14.5t-5.5 -13.5l-23 -47l-19 -39l-39 -78l-36 -80l-31 -72q-15 -36 -28 -74q8 0 15.5 -1t13.5 -3q12 -5 11.5 -17.5
t-12.5 -16.5q-9 -2 -19 -1t-21 3l-4 -21q-6 -21 -11.5 -44.5t-9 -47t-4.5 -46.5t3 -44l53 54q25 26 55 49q45 35 92.5 65t97.5 57q5 3 9 1.5t6.5 -5.5t2 -8.5t-5.5 -7.5l-41 -22l-52 -31q-25 -15 -49 -33q-77 -56 -139 -132q-5 -8 -10.5 -14t-16.5 -8q-14 -2 -22 4t-12.5 16
t-5.5 22t0 22q1 44 13 89t26 87q-17 1 -34 1.5t-34 0.5q-36 2 -72 0t-71 -7l-46 -7l-14 -26l-25 -48q-13 -25 -16 -51q-1 -8 -3.5 -16t-13.5 -9q-9 0 -14.5 6t-4.5 14q1 25 13 49l24 45q4 8 8 14l9 14q-14 -3 -26.5 -6.5t-26.5 -8.5q-18 -5 -34.5 -12t-33.5 -15
q-5 -3 -9.5 -1t-6 6t-0.5 8.5t6 7.5zM446 102q26 69 54 135l58 133l27 61q13 30 25 62q-23 -4 -46 -15.5t-44 -26.5t-40 -31l-34 -30q-84 -77 -156 -170q-51 -68 -97 -138l83 12q37 3 74 4.5t75 -0.5h20q0 3 1 4z" />
    <glyph glyph-name="B" unicode="B" horiz-adv-x="662" 
d="M109 281q43 38 92 68.5t99 56.5q35 18 72 34t76 28l10 12q18 19 38.5 37t44.5 27q6 2 17.5 4t22 1t17.5 -6.5t3 -18.5q-2 -7 -9 -10t-15 0q-9 4 -19 2t-20.5 -7.5t-20.5 -13.5l-18 -14q25 4 53 5t54.5 -4.5t48.5 -20t34 -41.5q11 -25 1.5 -48t-29 -42.5t-43 -35
t-41.5 -25.5q-42 -26 -85.5 -48t-88.5 -42q45 9 90.5 11.5t83.5 -14.5q22 -9 33 -25.5t12.5 -35.5t-6 -38.5t-22.5 -34.5q-37 -37 -89 -55.5t-101 -30.5q-87 -24 -177 -33q5 -14 15 -23q8 -7 7 -14t-7 -11t-14.5 -3.5t-15.5 9.5t-11 19t-7 21q-26 -3 -56 -3t-56 4
q-8 1 -21.5 3t-27 6.5t-23 12t-9.5 18.5q0 13 7 15.5t15.5 -1t17.5 -9t14 -7.5q28 -10 58 -12t60 -2h18q-1 38 10.5 77t22.5 68l5 15q-7 -3 -14 -5.5t-15 -4.5h-1q-11 -2 -18.5 1.5t-6.5 15.5q0 7 6.5 12t15.5 8.5t19.5 5.5t18.5 4l13 3q17 39 36.5 76t41.5 73l43 69
q22 35 47 67q-28 -11 -54 -23t-49 -24q-37 -18 -71.5 -40.5t-66.5 -49.5q-5 -4 -12 -12l-13 -14q-7 -8 -14.5 -13.5t-14.5 -4.5q-12 1 -15.5 12t4.5 19zM226 -11q-5 -18 -3 -42q46 4 91.5 12t89.5 22q22 6 48 14.5t50.5 20.5t45.5 27.5t33 36.5q15 26 6 41.5t-29 24
t-44.5 11.5t-40.5 3q-41 -2 -84 -7.5t-85 -16.5l-44 -17h-1q-13 -32 -21.5 -64t-11.5 -66zM425 402q-35 -45 -65.5 -92.5t-55.5 -97.5q-8 -14 -15 -28t-13 -28q56 19 110.5 43t106.5 51q34 17 65.5 37t59.5 45q12 11 25.5 26.5t15.5 32.5q1 9 -3.5 17t-12 14.5t-16 11.5
t-15.5 8q-35 14 -74 13t-77 -11q-10 -10 -19 -20.5t-17 -21.5z" />
    <glyph glyph-name="C" unicode="C" horiz-adv-x="500" 
d="M277 130q20 15 37 36t31.5 45t26 48.5t20.5 47.5q11 25 17 52t4 54q-2 29 -20.5 36t-44.5 2q-27 -5 -51.5 -18.5t-46.5 -32.5t-41.5 -40.5t-35.5 -41.5q-36 -45 -65.5 -93.5t-49.5 -102.5q-8 -18 -15.5 -45t-8.5 -54t8.5 -49t36.5 -30t55.5 -6t57.5 9.5t57 18.5l52 21
q26 11 51 23l52 26l52 25l12 7l16 10q9 5 17 8t14 3q9 -1 10 -10.5t-7 -12.5q-8 -8 -21 -11.5t-23 -8.5l-56 -29l-56 -28l-94 -46q-47 -23 -99 -34q-23 -5 -49 -5t-48.5 7t-40 23t-23.5 44q-5 24 -2.5 50t10 51.5t18 49.5t21.5 45q50 102 123 187l33 37q17 19 36.5 35.5
t41 29.5t45.5 19q21 7 46.5 6.5t43.5 -16.5t21 -38.5t-1 -44.5q-9 -53 -33 -103t-50 -96l-28 -46q-14 -22 -32 -42q-8 -5 -15.5 -3.5t-12 6.5t-4.5 12t8 13z" />
    <glyph glyph-name="D" unicode="D" horiz-adv-x="673" 
d="M132 269q42 37 89.5 67t97.5 55q26 13 53 24.5t54 21.5l38 43q18 19 38.5 37t44.5 27q6 2 17.5 4t22 1t17.5 -6.5t3 -18.5q-2 -7 -9 -10t-15 0q-9 4 -19 2t-20 -7t-19 -12l-15 -12q-11 -8 -20 -17l-18 -18q14 4 29 6.5t31 4.5q25 3 53 2t55 -8.5t49.5 -22.5t35.5 -40
q12 -23 11 -48.5t-9.5 -51t-22 -48.5t-27.5 -42q-66 -90 -160.5 -153t-200.5 -92q-44 -11 -87 -18q2 -12 6 -21.5t13 -17.5q8 -7 7 -14t-7 -11t-14.5 -3.5t-15.5 9.5q-9 12 -13.5 26t-6.5 29q-28 -2 -56.5 -2.5t-57.5 1.5q-7 0 -20.5 0.5t-27 3t-22.5 8.5t-7 17q1 8 7.5 12
t14.5 2q16 -5 32 -8t33 -5q25 -4 51 -4.5t52 1.5q2 34 12.5 68t20.5 61q20 54 45.5 104.5t54.5 99.5q15 27 32 53l35 52q-52 -20 -96 -44t-83 -54q-9 -7 -17.5 -14.5t-16.5 -15.5q-8 -7 -15.5 -17t-16.5 -15q-7 -4 -13 -2t-10 7.5t-3.5 12t6.5 11.5zM439 414
q-42 -54 -73.5 -103t-57.5 -99q-26 -52 -48 -108t-30 -115q-1 -5 -1.5 -11t-0.5 -14q63 8 124 28.5t116 54.5q42 26 80.5 58t70.5 70q14 17 28.5 37t26 41.5t19 44.5t7.5 46q0 22 -11 37.5t-28 26t-37 16t-38 7.5q-38 2 -74.5 -2.5t-72.5 -14.5z" />
    <glyph glyph-name="E" unicode="E" horiz-adv-x="490" 
d="M268 268q51 11 101 38t81 72q5 7 10.5 18t9 22.5t2.5 23t-8 20.5q-8 10 -20 13t-25.5 2.5t-27 -3.5t-23.5 -6q-53 -15 -99 -45t-83 -71l-16 -20q-12 -15 -24.5 -33.5t-23 -39t-14.5 -38t1 -30t24 -15.5q22 -3 40 5t38 10q8 2 15.5 -4t5.5 -15q-2 -12 -17 -19t-24 -13
q-21 -13 -43 -28.5t-42.5 -33.5t-37.5 -39.5t-26 -45.5q-10 -26 3 -37.5t34.5 -15t46 -1t37.5 5.5q55 11 106.5 33.5t101.5 47.5l96 48q7 3 16 9t17 6q9 -1 10.5 -5t-0.5 -8.5t-6.5 -8.5t-7.5 -6q-17 -7 -34 -15t-34 -17l-123 -63q-63 -33 -130 -51q-29 -9 -62 -11.5
t-63 8.5q-29 11 -39.5 34.5t1.5 52.5t35 53l44 44l55 47q-16 1 -29.5 6t-24.5 18q-12 15 -12.5 33t5 36.5t15 35.5t18.5 30q42 66 105.5 118.5t136.5 78.5q16 6 35.5 9.5t39 2.5t36 -9t26.5 -26q10 -17 9 -34.5t-8 -35t-18 -33t-23 -27.5q-26 -29 -57.5 -50t-65.5 -38
q-13 -6 -30 -15t-32 -10q-8 -1 -12.5 3.5t-5.5 11t2.5 12.5t11.5 8z" />
    <glyph glyph-name="F" unicode="F" horiz-adv-x="390" 
d="M80 344l95 34q47 17 96 32q32 38 70.5 76t84.5 58q6 2 14.5 4t16.5 2.5t15.5 -2t12.5 -8.5q8 -11 -0.5 -21.5t-21.5 -4.5q-8 3 -16.5 2t-17.5 -5t-17 -9l-14 -9q-23 -15 -43 -32t-39 -36l64 17q32 9 64 16q45 11 90.5 16.5t91.5 5.5q24 -1 47.5 -1.5t46.5 -8.5
q6 -2 10 -7t4.5 -11t-3 -10.5t-12.5 -5.5q-21 0 -40.5 5.5t-38.5 7.5q-24 2 -47.5 2t-46.5 -2q-48 -4 -94 -13.5t-92 -22.5q-20 -7 -39.5 -13t-39.5 -14q-31 -34 -58.5 -70t-53.5 -75l-32 -49l-29 -50q27 7 54.5 11.5t55.5 8.5q26 3 53 4.5t54 2.5q9 0 22.5 1t20.5 -8
q6 -8 3 -16.5t-11 -11.5q-8 -2 -18 -1t-18 3q-14 1 -28 1h-28q-29 0 -56.5 -2.5t-55.5 -7.5q-34 -5 -62 -13q-11 -18 -19 -37l-15 -37q-9 -23 -16 -47t-7 -49q-1 -11 0.5 -21.5t8.5 -18.5q5 -8 8 -17t-8 -17q-9 -5 -16 -1t-12 12t-8 17.5t-4 15.5q-4 28 3 56.5t17 54.5
l16 39q9 20 19 39q-5 -1 -11.5 -5t-13 -7.5t-13.5 -5t-12 2.5q-7 5 -6 11t7 10q30 13 65 23l27 46l28 45q24 38 50.5 75.5t55.5 73.5l-57 -23l-45 -18l-42 -19q-8 -4 -14.5 -0.5t-9 10t-0.5 13t10 9.5z" />
    <glyph glyph-name="G" unicode="G" horiz-adv-x="562" 
d="M298 166q51 19 94 56t72 82q14 20 24 45.5t8 51.5q-3 27 -24 44t-47 16q-27 0 -52.5 -10t-49.5 -25t-45.5 -33t-39.5 -35q-39 -38 -71.5 -81.5t-59.5 -89.5l-27 -48q-13 -25 -23.5 -52t-16.5 -54.5t-3 -54.5q4 -32 23.5 -43t44.5 -9.5t51 11.5t44 21q44 26 87.5 60
t71.5 77q6 5 13 5.5t12.5 -3t7 -9.5t-3.5 -14q-4 -7 -10 -14l-11 -13l-43 -61q-21 -30 -44 -59l120 70l123 68q3 2 13 8t20 10t17.5 3.5t7.5 -10.5q0 -8 -9 -13l-15 -7l-43 -22l-81 -47l-81 -46l-57 -33l-56 -34q-17 -21 -34.5 -40.5t-36.5 -38.5q-12 -12 -26 -24t-29 -22
t-31.5 -16.5t-34.5 -6.5q-17 0 -17 22q0 14 16 25l24 17q33 26 70 49l80 52l40 50q20 26 38 53l-39 -28q-19 -13 -39 -25l-45 -24q-24 -13 -49.5 -20.5t-50.5 -5t-45 22.5q-19 19 -22.5 44t1 52t14.5 53.5t19 46.5q23 52 53 100.5t65 93.5q33 43 72.5 81.5t84.5 69.5
q19 12 41 22.5t45 15t46 1.5t43 -19q21 -17 28 -38.5t5 -45t-11.5 -46.5t-21.5 -43q-28 -45 -66.5 -83.5t-83.5 -67.5l-10 -7q-5 -4 -11.5 -7.5t-12.5 -5t-12 1.5q-11 5 -10 16.5t12 16.5zM119 -202q-9 -5 -22.5 -13.5t-24.5 -17.5q26 9 50 28l16 12q9 7 17 14z" />
    <glyph glyph-name="H" unicode="H" horiz-adv-x="677" 
d="M710 518q-29 -27 -54 -59.5t-48 -66.5l-60 -86l-57 -89q1 0 1.5 0.5t1.5 0.5q4 1 19.5 2t29.5 -1t21 -8.5t-4 -19.5q-7 -8 -16.5 -6t-17.5 2q-18 0 -31.5 -1t-26.5 -4l-51 -84q-24 -42 -38 -88q-2 -8 -4.5 -19.5t2.5 -18.5q7 -8 20 -6.5t22 3.5q28 6 52 17l51 25l100 47
l49 25q5 2 10 4.5t10 -1.5q5 -3 5 -10t-6 -10q-44 -23 -88.5 -43t-87.5 -43l-56 -30q-29 -16 -58 -18q-17 -2 -33.5 5t-23.5 23q-9 22 -0.5 46.5t18.5 43.5q16 33 34.5 64.5t38.5 61.5l-37 -9l-36 -10q-38 -11 -75.5 -26.5t-73.5 -33.5q-23 -36 -47.5 -70.5t-52.5 -66.5
q-14 -16 -30.5 -31.5t-38.5 -22.5q-15 -3 -23.5 1.5t-11.5 13.5t-2 20.5t6 22.5q11 23 29.5 43.5t40.5 37.5t45.5 32t45.5 27l26 15q17 26 32 52l31 53l47 87q24 44 37 92l4 22q2 10 0 21q-1 14 -7 18l-14 11q-6 5 -6.5 11.5t3 11.5t9.5 7.5t13 -0.5q24 -10 31.5 -30.5
t4.5 -44.5t-12 -48t-17 -41q-23 -53 -53 -101l-64 -102q37 17 74 31t76 25q32 12 70 18l44 63l42 63l47 72l49 72l22 35q13 20 28 30q7 4 13 2t9.5 -7t3.5 -12t-6 -12zM85 8l-13 -13q-7 -8 -14 -17t-12.5 -18.5t-5.5 -18.5q16 6 33.5 20.5t33 32t29.5 35.5l24 32l9 13
q-23 -14 -44.5 -30t-39.5 -36z" />
    <glyph glyph-name="I" unicode="I" horiz-adv-x="413" 
d="M184 448q32 -3 64 -1t63 13h1l5 9l7 9l17 23q11 15 23.5 27.5t27 20t28.5 2.5q19 -6 18.5 -18t-9.5 -25.5t-22.5 -25t-20.5 -15.5q-11 -8 -24 -13l-24 -10q-16 -22 -30 -44l-31 -45l-127 -199l-29 -48q-15 -24 -26 -49l-9 -18q-6 -12 -11.5 -26t-7.5 -26t4 -18
q7 -6 34 -1.5t58 12t58 16t35 10.5q26 9 51 21t49 26l50 28q5 2 10 4.5t10 -1.5q6 -3 5.5 -10t-5.5 -10l-92 -48q-46 -23 -95 -40q-35 -12 -69 -25.5t-72 -18.5q-19 -2 -37.5 3.5t-24.5 25.5q-4 12 -2.5 24t6 24t10.5 23.5t12 21.5q24 43 51 84l53 81q33 51 62.5 103.5
t61.5 103.5q-14 -3 -27 -5.5t-27 -4.5q-6 -1 -14.5 -3t-17.5 -3.5t-17.5 -1.5t-13.5 4q-6 4 -7.5 10t0.5 11.5t6.5 9t11.5 3.5zM395 510q-14 -9 -24 -24q7 5 13.5 11.5t10.5 12.5z" />
    <glyph glyph-name="J" unicode="J" horiz-adv-x="638" 
d="M312 160q-28 24 -34 47.5t3 44.5t29.5 40t45 35t50.5 28.5t45 20.5l84 32q42 17 83 37l10 13q10 15 23.5 33.5t30 32.5t36 21.5t40.5 0.5q20 -6 18 -22.5t-14 -27.5q-17 -16 -36 -27l-40 -20q-11 -5 -22.5 -11t-22.5 -11l-26 -38l-26 -37l-81 -125l-78 -126l-53 -83
q-29 -43 -70 -72q32 8 63 18.5t61 23.5q54 23 105 47t102 51q5 3 9.5 1t6.5 -5.5t1 -8t-6 -7.5l-43 -20l-110 -56l-104 -45q-51 -22 -108 -33q-56 -9 -111 1.5t-103 42.5q-6 4 -17.5 11t-23 15.5t-19.5 18t-8 18.5t3.5 12.5t9 3.5t11 -2t9.5 -4q15 -8 30 -20l19 -16
q22 -15 47 -27.5t51 -18.5t52 -3t52 18q41 25 68 66l54 80q27 45 55 87t55 87q20 31 38 62.5t38 62.5l-88 -35q-44 -19 -90 -41.5t-81 -55.5q-17 -17 -23 -36t11 -39q6 -8 14 -15.5t3 -18.5q-4 -8 -13 -10t-15 4zM726 509q-9 4 -17 -4.5t-16 -15.5z" />
    <glyph glyph-name="K" unicode="K" horiz-adv-x="766" 
d="M880 533q-88 -85 -182 -160l-192 -147l-97 -71q-50 -35 -102 -67l-73 -46q-37 -24 -77 -41l43 -17l54 -18q28 -9 57.5 -15.5t58.5 -9t57 0.5q58 8 113 32t107 50l119 62q5 3 9.5 1.5t6.5 -5.5t1 -8.5t-7 -7.5l-58 -31l-121 -66q-61 -34 -127 -53q-57 -17 -111.5 -5.5
t-110.5 31.5l-93 33q-9 4 -17.5 6.5t-17.5 5.5l-32 -10q-4 -15 -4 -33q0 -11 1 -21.5t7 -18.5t9.5 -17t-9.5 -17q-9 -5 -16 -1t-11.5 12t-7.5 17.5t-3 15.5q-3 15 -1.5 30t5.5 31q-24 2 -40 15q-9 8 -15 22t4 25q11 13 32 9t38 -11q20 50 46 96.5t56 91.5q61 96 135 183
q33 38 72 78t87 60q6 2 14 4t16.5 2.5t16 -2t12.5 -8.5q8 -11 -0.5 -21.5t-21.5 -4.5q-7 3 -15.5 2t-17.5 -5t-17.5 -9t-14.5 -9q-24 -16 -46 -35.5t-43 -41.5q-38 -41 -73 -84t-67 -91t-60 -98t-48 -103q-2 -4 -3.5 -8t-2.5 -8l14 -5l10 4q33 11 65.5 26.5t62.5 33.5
q63 36 122 76.5t116 84.5l114 89l109 93l106 97q4 4 9.5 11.5t12 14t13 11t13.5 3.5q11 -2 15 -12.5t-4 -17.5z" />
    <glyph glyph-name="L" unicode="L" horiz-adv-x="644" 
d="M568 523q-35 -28 -63.5 -62t-53 -71.5t-46.5 -77.5l-44 -76l-41 -71l-44 -70l-43 -68q-23 -36 -54 -62l13 -7q45 -21 93 -18t95.5 18.5t93.5 38.5l84 43l86 46q6 3 10.5 1t6.5 -5.5t1 -8t-6 -7.5q-12 -8 -25 -14l-26 -12l-46 -26l-47 -24l-75 -40q-38 -19 -79 -32
q-26 -8 -51.5 -11t-50.5 1q-29 5 -52.5 17t-46.5 26l-20 -10q-25 -8 -51.5 -12t-50.5 7q-11 4 -18.5 12.5t-11 18.5t-1.5 20.5t12 19.5q14 13 30 15t32.5 -2.5t33.5 -13.5t33 -19q34 19 59.5 49t46.5 62q40 59 75 120l69 125q23 40 47.5 78.5t53.5 74.5l24 32q13 18 30 25
q7 3 12.5 0.5t8.5 -7.5t3 -12t-6 -11zM58 -11q-3 0 -7.5 -1t-8 -3t-5 -4.5t2.5 -6.5q9 -11 24 -10.5t26 2.5q6 2 12.5 3.5t12.5 4.5q-14 6 -28.5 10.5t-28.5 4.5z" />
    <glyph glyph-name="M" unicode="M" horiz-adv-x="988" 
d="M132 185q7 -24 7 -49q36 44 75 85.5t81 80.5l84 74q42 36 89 67q42 27 91 51t100 27q23 2 43.5 -7.5t25.5 -34.5q4 -23 -5 -45t-21 -42q-28 -48 -64.5 -90.5t-68.5 -87.5l-25 -36q-13 -17 -24 -35q46 47 94.5 90.5t99.5 84.5l89 66q46 34 98 50q7 2 17.5 4.5t20.5 2.5
t16.5 -5t4.5 -17q-3 -16 -17 -30l-25 -24l-66 -67q-35 -34 -66.5 -70.5t-56.5 -77t-37 -85.5q-3 -11 -4 -21.5t1 -19.5t9 -15.5t21 -7.5q27 -2 55.5 4.5t54.5 14.5t52 19l51 22l50 22q5 2 9.5 4.5t9.5 -1.5q6 -3 5.5 -10t-6.5 -10q-24 -12 -48 -21.5t-47 -20.5l-52 -22
l-53 -20q-14 -5 -30.5 -9.5t-33.5 -6.5t-33.5 1t-29.5 14q-12 10 -16.5 24t-3.5 29t6 30t11 27q14 35 35 65l43 59q4 5 24 27l44 52l51 58l41 50q-16 -4 -31.5 -10t-29.5 -14q-26 -14 -50 -29.5t-47 -32.5q-46 -35 -88.5 -73t-83.5 -79q-85 -85 -158 -176q-5 -6 -10 -14.5
t-13 -13.5t-16.5 0t-9.5 15q-1 11 10 23t16 20l41 56l73 100l72 100l43 57q21 29 39 60q3 6 10.5 18.5t13 26t6.5 26.5t-7 19q-10 7 -24 7t-29 -3.5t-29 -9t-23 -8.5q-55 -20 -105 -50.5t-96 -68.5q-108 -89 -197 -197l-27 -33l-26 -34q-12 -40 -34.5 -78t-49.5 -65
q-9 -9 -18 -12.5t-15.5 -2t-8.5 7t4 16.5q16 34 38 64l43 59q13 32 13 69q0 5 -2.5 12t-3.5 14.5t-0.5 14t6.5 11.5q8 6 16.5 2.5t11.5 -11.5z" />
    <glyph glyph-name="N" unicode="N" 
d="M16 336q60 46 122.5 89t133.5 73q13 6 30 12t34.5 9t34.5 1.5t31 -10.5q15 -11 19 -26t0.5 -31.5t-11 -33t-14.5 -28.5q-18 -29 -40 -56l-44 -54l-46 -63l-46 -63l-69 -94l70 60l71 59q74 60 153 117t166 99q18 9 36.5 16.5t38.5 9.5q8 1 15.5 -0.5t12.5 -5t5.5 -9.5
t-5.5 -15q-10 -14 -25 -26t-28 -26q-46 -52 -88 -106t-71 -114l-14 -31q-9 -18 -15 -36.5t-7 -34t7 -24.5q9 -9 24.5 -8t32.5 7t34 13.5t28 11.5q38 14 76 31.5t75 36.5q6 4 12 0.5t5 -10.5q0 -8 -9 -12t-14 -6l-84 -40l-76 -37q-38 -19 -80 -24q-28 -3 -41.5 6t-17.5 25
t0 37t11.5 42t16.5 39.5t15 29.5q37 64 81 126t94 120q-12 -4 -25 -10l-23 -11q-28 -13 -55 -27.5t-53 -31.5q-48 -30 -94 -64t-90 -70q-47 -36 -89.5 -74.5t-83.5 -79.5q-21 -20 -40 -41l-38 -44q-7 -7 -14.5 -19.5t-18.5 -15.5t-18.5 7t-1.5 20q5 10 14.5 20t16.5 19l9 14
l17 22l32 42l53 70l67 90l57 77q29 38 56 78l17 24q12 18 22.5 37.5t15 38t-5.5 27.5q-6 5 -15 6.5t-19.5 0.5t-20.5 -3.5t-16 -3.5q-44 -11 -85 -31q-38 -18 -71.5 -42t-65.5 -51l-32 -28q-6 -6 -13 -14t-15 -10q-14 -2 -19.5 10.5t5.5 21.5z" />
    <glyph glyph-name="O" unicode="O" horiz-adv-x="445" 
d="M472 484q-21 9 -43.5 7t-44.5 -10q63 3 102 -27.5t34 -93.5q-5 -55 -30.5 -107t-56.5 -98q-26 -39 -59 -79.5t-73 -74t-85.5 -57t-95.5 -27.5q-23 -2 -47.5 2.5t-41.5 22.5q-19 20 -22 47t1 53q9 54 34.5 104.5t55.5 95.5q29 48 64 90.5t75 81.5q37 35 81.5 67t95.5 41
q16 3 38.5 3t35.5 -11q6 -5 6.5 -11.5t-2.5 -11.5t-9 -7.5t-13 0.5zM282 418q-44 -36 -80.5 -78.5t-68.5 -89.5q-31 -45 -55.5 -95.5t-34.5 -104.5q-2 -10 -3 -22.5t0.5 -24.5t6 -22.5t14.5 -17.5q17 -12 38.5 -11.5t39.5 4.5q54 11 100 42t85 67q41 38 74.5 82t57.5 94
q9 18 20 43.5t16.5 52.5t2 52t-22.5 42q-18 17 -45 17.5t-50 -3.5q-9 -2 -16 5t-6 18q-20 -11 -39.5 -25t-33.5 -25z" />
    <glyph glyph-name="P" unicode="P" horiz-adv-x="620" 
d="M126 320q47 32 100.5 53.5t107.5 38.5q14 5 28.5 9t28.5 7l23 26q18 19 37.5 35.5t42.5 30.5q6 3 17 9t23 10t23 4t17 -7q8 -8 3 -19t-17 -11q-35 1 -67 -20t-60 -48q32 6 63.5 9t63.5 1q26 -2 51.5 -10t46 -22.5t33 -36.5t12.5 -51q0 -27 -12 -51t-30.5 -44.5t-40.5 -38
t-42 -30.5q-94 -62 -203 -100t-220 -58l-18 -4l-11 -19l-55 -103q-5 -8 -10.5 -20.5t-17.5 -14.5q-11 -1 -17 8.5t-1 18.5q17 32 37 63l40 63q-15 -3 -30 -4.5t-29 -3.5q-10 -1 -21 -1.5t-16 11.5q-4 8 2 16.5t15 7.5q24 -1 49 0.5t49 4.5l22 35l63 104l66 102l45 64
q23 32 49 63q-11 -2 -21.5 -5t-20.5 -7q-72 -23 -136 -62q-5 -3 -12 -9.5t-14.5 -12.5t-15.5 -10.5t-14 -2.5q-12 3 -14 14.5t8 17.5zM384 383q-38 -45 -71 -93l-65 -97l-48 -80l-48 -81q53 7 106 21q75 18 147 47t136 73q15 10 34.5 25t37.5 33.5t33 39.5t20 42t-2 41.5
t-32 37.5q-29 20 -66.5 24.5t-72.5 2.5q-23 -2 -44.5 -4.5t-44.5 -7.5z" />
    <glyph glyph-name="Q" unicode="Q" horiz-adv-x="636" 
d="M20 126q19 1 40 -5q14 32 31 62.5t36 58.5q30 48 65 90.5t74 81.5q19 18 39.5 35t43 32t46 25.5t49.5 15.5q15 3 37.5 3t35.5 -11q6 -5 7 -11.5t-2.5 -11.5t-9.5 -7.5t-13 0.5q-20 9 -43 7t-44 -10q63 3 101.5 -27.5t33.5 -93.5q-5 -55 -30 -107t-56 -98
q-34 -50 -79 -101.5t-100 -87.5q13 -3 26.5 -4.5t27.5 0.5q51 8 100 28.5t96 43.5q24 11 47.5 23t46.5 25q13 7 23 5t1 -16q-5 -9 -18 -13.5t-21 -9.5l-92 -48q-45 -25 -93 -46l-42 -16q-21 -8 -43 -11.5t-43.5 -1t-41.5 14.5l-10 6q-23 -12 -47.5 -19t-50.5 -10
q-24 -2 -48 2.5t-41 22.5q-19 20 -22.5 47t0.5 53q5 27 12 50h-11q-6 0 -12 -2q-9 -3 -15 2t-7.5 12.5t2.5 14.5t14 7zM310 418q-44 -36 -80.5 -78.5t-68.5 -89.5q-22 -32 -41.5 -67t-33.5 -73q26 -14 49 -35l45 -39q15 -14 31 -26.5t34 -23.5q29 15 56 35.5t51 43.5
q81 75 133 176q9 18 19.5 43.5t16 52.5t1.5 52t-23 42q-18 17 -45 17.5t-50 -3.5q-4 -1 -9 1t-8.5 6t-5 8t2.5 8q-22 -11 -41 -25zM71 50q-2 -10 -3 -22.5t0 -24.5t6 -22.5t15 -17.5q16 -12 38 -11.5t40 4.5q21 4 47 14q-29 24 -54 51t-54 47l-28 16q-2 -8 -4 -17t-3 -17z
" />
    <glyph glyph-name="R" unicode="R" horiz-adv-x="761" 
d="M13 -5q-9 13 -10 29t19 23q23 7 45.5 -3t40.5 -20l1 1q20 53 47.5 102t58.5 96q29 45 61 88.5t67 85.5q-68 -22 -109.5 -39.5t-73.5 -39.5q-5 -3 -10.5 -8.5t-12 -11t-13 -9t-12.5 -1.5q-12 3 -14.5 14.5t8.5 17.5q46 31 98.5 52.5t105.5 37.5q14 5 29 9l29 8
q30 35 64.5 67.5t76.5 49.5q6 2 14 4t16.5 2.5t16 -2t12.5 -8.5q8 -11 -0.5 -21.5t-21.5 -4.5q-7 3 -15.5 2t-17.5 -5t-17.5 -9t-14.5 -9q-38 -26 -68 -56q61 12 120 11q27 -2 53.5 -9.5t48 -21.5t35 -36t13.5 -52q0 -27 -10 -51.5t-26.5 -46t-36.5 -40t-40 -33.5
q-90 -66 -194.5 -104t-213.5 -55q40 -17 81 -29t83 -20q54 -11 101.5 -4.5t99.5 25.5q55 21 107 48l103 54l9 6q5 3 11 6t12 3t9 -6q5 -11 -5.5 -16.5t-16.5 -7.5l-50 -26l-50 -27l-99 -53q-51 -27 -106 -40q-28 -7 -56.5 -6.5t-57 6t-56 14.5t-53.5 19l-52 21l-50 22
q-6 -21 -6 -44q0 -11 1 -21.5t7 -18.5t9.5 -17t-9.5 -17q-9 -5 -16 -1t-11.5 12t-7.5 17.5t-3 15.5q-4 19 -1 37.5t8 37.5q-31 -4 -53 -6.5t-31 12.5zM252 241q-32 -48 -60 -98t-48 -103l-7 -18q37 3 73 9.5t72 16.5q73 20 142.5 52t127.5 81q22 18 46.5 46.5t38 60t8.5 61
t-44 49.5q-47 25 -104.5 24t-112.5 -14q-37 -39 -69.5 -80.5t-62.5 -86.5zM54 14l14 4q-20 7 -31 2l5 -4z" />
    <glyph glyph-name="S" unicode="S" horiz-adv-x="487" 
d="M444 275q18 16 35 37t27 44.5t11 49t-11 49.5q-10 20 -28 35t-41 18q-23 2 -40 -10t-31 -29q-18 -22 -23.5 -47.5t-2.5 -52t12 -52.5t20 -49l24 -47q12 -23 21 -46.5t13.5 -49t1.5 -53.5q-5 -51 -33 -97.5t-69.5 -81.5t-92.5 -54t-103 -15q-43 3 -76 28.5t-47 67.5
q-8 25 -8 50.5t6.5 50t18 48t26.5 44.5q14 20 32.5 38t40.5 32t46 22t50 7q27 -1 51 -12.5t39 -30.5t19.5 -44t-6.5 -52q-5 -7 -12 -9t-13 0.5t-9 8t2 13.5q12 24 4.5 49t-30.5 38q-24 13 -49 13t-48.5 -9t-44.5 -24.5t-37 -33.5q-17 -20 -30.5 -44t-20.5 -50t-5.5 -52.5
t13.5 -50.5q12 -25 31 -39.5t42 -20t48.5 -3.5t49.5 10q53 16 96 50t68 79t27.5 98t-25.5 106l-27 50q-13 26 -23 52t-15 54t-2 58q2 26 13.5 51.5t30.5 44.5t43.5 27.5t53.5 -0.5q28 -8 46.5 -27.5t27.5 -44t9 -52.5t-7 -53q-8 -27 -22 -51t-31 -47q-5 -8 -12.5 -16
t-18.5 -3q-10 2 -11.5 12.5t6.5 17.5z" />
    <glyph glyph-name="T" unicode="T" horiz-adv-x="430" 
d="M708 520q-10 5 -22 3t-24 -7.5t-23 -12.5l-19 -11l-30 -21l-28 -22q29 4 59 5.5t61 1.5q27 0 54.5 -1.5t54.5 -6.5q9 -2 17.5 -6t6.5 -16q-1 -8 -7.5 -12t-14.5 -2q-22 0 -44.5 5.5t-45.5 7.5q-28 2 -55.5 2t-55.5 -2q-17 -1 -32 -2.5t-31 -3.5q-42 -39 -78 -80.5
t-71 -86.5q-34 -45 -64.5 -92t-53.5 -99q-12 -23 -21 -48t-14 -50q-2 -12 -2.5 -24t3.5 -23q4 -10 12 -18t4 -18q-5 -12 -12 -12.5t-14 5t-12.5 14t-7.5 13.5q-9 25 -3.5 52.5t13.5 51.5q19 52 46.5 100.5t59.5 93.5q33 48 68.5 93t73.5 87l34 36q-33 -5 -65 -12l-63 -13
q-55 -13 -109 -29l-107 -32l-54 -18q-26 -9 -52 -20q-9 -3 -18.5 -3t-14.5 11q-2 7 1.5 14t10.5 10l218 61q109 30 221 50q15 3 30 5.5t30 4.5q25 24 51.5 46t55.5 40q20 13 44 22.5t49 1.5q10 -3 13 -10t1 -13.5t-8.5 -10.5t-15.5 1z" />
    <glyph glyph-name="U" unicode="U" 
d="M16 336q62 49 128.5 94t141.5 74q14 5 33.5 10.5t38.5 6.5t35.5 -5.5t24.5 -24.5q7 -18 4 -37t-11.5 -37.5t-20.5 -35.5l-22 -29q-32 -43 -68 -83l-71 -81l-55 -65l-52 -67l-23 -31l-22 -33q-8 -11 -20 -29.5t-10 -32.5q7 1 17 5.5t20 10.5l18 11q9 6 13 8l43 27l44 28
l86 61l84 63l84 66l82 68l71 61q36 31 68 65q5 7 10 12.5t13 7.5q11 1 17 -7t2 -19q-4 -8 -12.5 -15t-17.5 -13q-42 -40 -78 -86t-69 -93q-19 -29 -35 -59t-27 -62q-6 -17 -10 -38t2 -37l1 -1q13 -5 29.5 -1.5t30.5 7.5q55 15 109 38l97 47q4 2 9 2.5t8.5 -1t4 -5.5
t-3.5 -11q-5 -9 -21.5 -14t-25.5 -10l-49 -26q-25 -13 -51.5 -25.5t-53 -22.5t-53.5 -14q-39 -8 -56 13.5t-10 57.5q4 25 14 50.5t23.5 49.5t28.5 47l30 44l35 49l-120 -96l-95 -75l-96 -74l-46 -36q-23 -18 -47.5 -35t-50.5 -31.5t-53 -22.5q-20 -5 -30.5 0t-14 16.5t-1 26
t9.5 28.5q24 50 62 93l74 85l78 87q40 44 76 91q4 6 14 19.5t21 31t21 36.5t14 34.5t-0.5 26.5t-21.5 12q-25 1 -51.5 -5t-52 -16.5t-49.5 -24t-45 -26.5q-21 -14 -41 -31l-40 -33q-5 -4 -14.5 -14.5t-20.5 -19.5t-21.5 -12t-16.5 9q-7 13 6 23z" />
    <glyph glyph-name="V" unicode="V" horiz-adv-x="449" 
d="M13 293l79 64l81 64l50 39q25 20 53 36q14 8 30 14t32 4q23 -5 27.5 -24.5t-0.5 -37.5q-11 -37 -33 -70t-45 -64l-53 -73l-54 -71l-18 -26q-14 -20 -30 -46t-32 -55.5t-26 -55t-10 -43t16 -19.5q16 -3 37.5 6t42.5 23.5t40 29.5l29 24q45 36 86 76l80 82
q82 88 158.5 179.5t147.5 188.5q5 8 12 17t19 5q9 -2 12 -11t-2 -16q-16 -22 -35.5 -41.5t-36.5 -39.5l-78 -92l-78 -90l-76 -89l-80 -88q-40 -43 -83 -83t-90 -74l-29 -20q-17 -10 -34.5 -16.5t-35.5 -7t-34 9.5q-24 15 -24 41t12 54.5t29 53.5l27 41q35 53 72 102l73 101
q34 45 61 97q6 11 11.5 22.5t10.5 24.5t7 24t0 16q-3 4 -15 0t-26 -11t-26.5 -14.5t-16.5 -10.5l-51 -35q-25 -18 -48 -37l-48 -40q-23 -20 -45 -43l-7 -10q-4 -5 -8.5 -9.5t-10 -6.5t-11.5 1q-9 4 -10.5 13.5t5.5 16.5z" />
    <glyph glyph-name="W" unicode="W" horiz-adv-x="662" 
d="M13 293l62 52l64 51q19 14 38 30l39 31q20 16 40.5 29t43.5 22q19 7 40.5 4t26.5 -28q4 -25 -9 -50l-23 -44q-30 -50 -65 -96l-68 -92q-34 -48 -65.5 -97t-54.5 -103q-2 -5 -7.5 -17t-9 -24.5t-2 -22t13.5 -9.5q13 0 26.5 5t26 12.5t23.5 15.5l22 16q60 42 117 95
q18 35 38 68.5t42 66.5q29 43 60.5 84.5t69.5 78.5l31 30q17 15 37 25q7 4 13.5 3.5t11 -4.5t6 -10t-1.5 -13q-8 -17 -22 -35l-21 -27q-33 -44 -71 -89l-85 -98q-42 -49 -88 -97q-13 -28 -23 -56t-6 -54q1 -15 12 -17t24.5 2.5t27 11.5t19.5 11q49 30 92 68t83 78
q86 85 165 175.5t152 185.5l28 37l28 38l7 9q4 6 9 10.5t10.5 5.5t12.5 -3q9 -7 6 -17t-11.5 -20.5t-18.5 -19.5l-13 -13l-145 -169l-146 -167l-74 -79q-37 -39 -77 -75l-36 -33q-19 -17 -40 -32.5t-43.5 -26.5t-46.5 -13q-27 -2 -40 9.5t-16 29.5t1 39t10 39
q-22 -20 -44.5 -38.5t-45.5 -35.5q-13 -9 -36.5 -21.5t-47.5 -17.5t-41.5 2.5t-18.5 38.5q-1 25 10.5 49.5t24.5 44.5q14 26 29 49.5t32 46.5l64 93l65 92q31 46 57 96q3 8 7.5 18t8 20t5 18t0.5 13l-5 -1q-4 0 -10 -2l-12 -3q-5 -1 -6 -2q-46 -17 -86 -47l-74 -59l-46 -40
q-23 -19 -43 -42l-16 -18q-9 -9 -21 1q-6 5 -6 14t6 14zM502 310l20 27q10 14 19 29q-10 -8 -19 -18l-17 -17q-20 -20 -39 -42l-36 -44l-43 -57q-20 -28 -38 -58q82 85 153 180z" />
    <glyph glyph-name="X" unicode="X" horiz-adv-x="748" 
d="M427 512q-23 -52 -31.5 -111t-10.5 -115q-2 -44 0 -87q171 136 310 305q6 6 14 11t17 -3q6 -5 6.5 -12.5t-4.5 -12.5l-165 -165q-84 -80 -177 -152q3 -29 8 -58.5t13 -57.5q6 -20 18 -44t35 -32q21 -6 55 3t70 23.5t68 30.5t48 25l42 24q5 2 9 4t9 -2q11 -7 4 -14
t-14 -11l-106 -53q-51 -27 -106 -50q-21 -9 -41.5 -13t-38 -1t-32.5 15t-25 36q-17 37 -25 77.5t-12 81.5l-88 -65q-44 -31 -91 -59q-23 -14 -48 -27l-49 -27q-6 -3 -19.5 -10.5t-27.5 -12.5t-25 -4.5t-12 14.5q-1 9 6.5 15t18 10.5t21 7.5t16.5 5q27 12 53 25l52 28
q51 28 98 61l94 67q-6 62 -3 124.5t12 123.5q4 24 9 48t13 48q4 7 11 9t13 -0.5t9 -8t-1 -14.5z" />
    <glyph glyph-name="Y" unicode="Y" horiz-adv-x="641" 
d="M68 293l76 67l78 65l30 26q16 15 33 27t35.5 21t38.5 11q28 3 39 -16.5t6 -43.5q-6 -26 -21 -50t-31 -46q-2 -3 -15 -20l-28 -41q-16 -23 -32.5 -50t-28 -50t-15 -39t7.5 -17q15 -2 35 4.5t40.5 17t37.5 22t26 18.5q48 32 89.5 69.5t80.5 79.5l26 28l29 48l31 49l17 24
q9 14 19 26.5t21.5 21.5t24.5 12q12 3 17.5 -1.5t5 -12t-5 -16.5t-11.5 -16l-42 -48l-76 -87l-20 -31l-18 -29l-78 -123q-20 -30 -39 -64t-40 -67t-45 -63t-54 -52q32 7 62 17.5t59 23.5q54 23 105 47l103 51q5 3 9 1t6 -5.5t1.5 -8t-5.5 -7.5l-44 -20l-110 -56l-104 -45
q-51 -22 -107 -33q-57 -9 -112 1.5t-103 42.5q-6 4 -17.5 11t-22.5 15.5t-19 18t-8 18.5q0 16 8 16t21 -5q1 0 8.5 -5t15.5 -11l15 -12l11 -7q22 -15 46.5 -27.5t50.5 -19t52 -4.5t51 16q30 18 54 44.5t44.5 56.5t38 61.5t35.5 59.5l34 54l34 52q-27 -28 -55.5 -54
t-58.5 -50l-34 -26q-18 -14 -37.5 -25.5t-40 -20t-41.5 -10.5q-32 -3 -41.5 11.5t-7 35.5t12.5 43.5t18 36.5q23 42 50.5 80t50.5 79l10 18q6 11 11.5 23t8.5 23.5t0 20.5q-2 5 -11.5 3t-21 -7t-21.5 -10.5t-12 -6.5q-41 -23 -78 -54t-70 -63l-32 -33q-8 -8 -16 -20t-17 -18
q-7 -5 -13.5 -3t-10.5 7.5t-4.5 12t5.5 12.5z" />
    <glyph glyph-name="Z" unicode="Z" horiz-adv-x="744" 
d="M188 362q22 22 39.5 44.5t32.5 44.5l28 43q13 20 28 39q4 5 8.5 10t9.5 7t9.5 -0.5t8.5 -11.5q1 -4 -2 -12t-7.5 -17.5t-9 -18t-5.5 -14.5q-4 -25 7.5 -39t31 -20.5t42 -7.5t39.5 1q48 5 93 22t89 40l40 22q9 6 18.5 13.5t18.5 9.5q7 2 13 -1.5t8 -11.5q3 -8 0 -13t-8 -7
q-81 -88 -167.5 -168.5t-180.5 -153.5l-60 -45l-60 -43q19 2 39 -0.5t37 -12.5q12 -7 21.5 -16.5t18.5 -19.5l18 -19q9 -10 20 -17q16 -10 36.5 -12t41.5 1t41.5 9t37.5 12q25 10 50 22l49 23q6 3 21.5 12.5t32 18t31 12.5t17.5 -3q4 -7 -4 -14.5t-20.5 -14t-25.5 -11.5
t-17 -7l-54 -27l-55 -26q-19 -8 -39.5 -18t-41.5 -16.5t-43 -8t-43 6.5q-24 11 -40 29l-33 37q-37 44 -95 38q-14 -2 -28.5 -5.5t-28.5 -8.5l-60 -34q-26 -15 -52 -28q-7 -3 -17 -9t-21 -11.5t-21.5 -8t-17.5 2.5q-4 2 -6 7.5t-1 8.5q2 11 11.5 16.5t20.5 10.5l66 31
q33 16 70 30q50 28 96.5 60t91.5 67q158 120 287 267q-29 -14 -58 -25.5t-58 -21.5l-43.5 -14.5t-48 -11t-48 -1.5t-44.5 14q-23 12 -32 34t-7 45q-15 -17 -28 -35l-25 -35l-19 -31q-5 -8 -9.5 -18.5t-12.5 -13.5q-7 -4 -13 -2t-9.5 7t-4 11.5t4.5 11.5z" />
    <glyph glyph-name="bracketleft" unicode="[" horiz-adv-x="211" 
d="M347 306q-10 -5 -21 -5l-22 1q-11 1 -21.5 0.5t-19.5 -6.5q-16 -9 -26 -25.5t-20 -30.5l-45 -66q-22 -33 -42.5 -67.5t-38.5 -69.5l-33 -63q-18 -31 -30 -63q20 -5 43 -1t43 2q6 0 12.5 -3.5t10 -8.5t2.5 -10.5t-9 -10.5q-9 -5 -22 -4t-23 1q-9 -1 -24 -2.5t-30.5 -0.5
t-27.5 5.5t-15 15.5q-2 7 2 16.5t10.5 19t13 18t10.5 14.5q12 19 22 38l21 38q26 50 55 97l60 95q10 15 18 33t18 34t23.5 27.5t34.5 13.5q14 2 29 -1t27 3h12q4 0 9 -6q5 -7 3.5 -15.5t-9.5 -12.5z" />
    <glyph glyph-name="backslash" unicode="\" horiz-adv-x="223" 
d="M202 -109q-35 74 -73.5 144.5t-80.5 139.5l-38 67l-12 15q-7 9 -13.5 18.5t-11 19t-3.5 16.5q1 14 13.5 16.5t20.5 -9.5l42 -78l66 -122l64 -124l35 -68l11 -23q3 -6 1 -10t-5.5 -6.5t-8 -1.5t-7.5 6z" />
    <glyph glyph-name="bracketright" unicode="]" horiz-adv-x="215" 
d="M-107 -91q10 4 21 4t22 -0.5t21.5 0t19.5 5.5q16 9 26 26t20 31q22 30 44 67q22 32 42 66l40 70l31 61q17 32 30 65q-20 5 -42 1t-42 -3q-7 1 -13.5 4.5t-10 8.5t-2.5 10.5t9 10.5q9 5 22.5 3.5t23.5 0.5q9 0 24 1.5t30 0.5t27.5 -6t15.5 -16q2 -7 -2 -16t-11 -18
l-13 -18q-6 -8 -10 -14q-12 -20 -22 -39l-21 -39q-27 -50 -57 -97l-58 -95q-10 -15 -18 -32.5t-18.5 -33.5t-24 -27.5t-34.5 -14.5q-13 -2 -28.5 1t-28.5 -2q-5 1 -10 0.5t-10 5.5q-5 7 -3 15.5t10 12.5z" />
    <glyph glyph-name="asciicircum" unicode="^" horiz-adv-x="226" 
d="M106 239q20 7 39 18l39 21q5 3 13 11t17 14.5t17.5 9.5t14.5 -3q10 -11 15.5 -31.5t10.5 -33.5q2 -5 6 -14t3 -15q-2 -14 -12.5 -9t-14.5 13l-28 52q-43 -18 -82 -46l-18 -17q-11 -10 -23 -4q-11 5 -9.5 17.5t12.5 16.5z" />
    <glyph glyph-name="underscore" unicode="_" horiz-adv-x="272" 
d="M-18 -11q35 -4 71 -1.5t71 7.5q15 2 34.5 7.5t35.5 3.5q13 -2 15.5 -14.5t-9.5 -19.5q-11 -7 -31 -6t-33 0q-20 -1 -38.5 -1.5t-37.5 -0.5q-17 0 -35 0.5t-36 0.5q-5 0 -10.5 1t-8.5 6q-4 7 0 12.5t12 4.5z" />
    <glyph glyph-name="grave" unicode="`" horiz-adv-x="197" 
d="M48 390q3 -5 11.5 -11t19 -11.5t21.5 -10.5t19 -8q14 -5 30 -8t27 -11q8 -2 9.5 -8t-3.5 -11q-5 -7 -13 -4t-14 5l-63 20q-33 10 -60 28q-5 4 -10.5 9t-7.5 13q-1 7 3 11.5t10 6t12 -0.5t9 -9z" />
    <glyph glyph-name="a" unicode="a" horiz-adv-x="440" 
d="M-1 85l30 16q19 9 40 18l40 17l33 13q7 3 25 9t38 11t37.5 7t25.5 -3q12 -11 4.5 -20t-18.5 -11l-45 -5q-14 -4 -23.5 -9.5t-21.5 -13.5q-5 -4 -17.5 -16.5t-24.5 -27t-19 -28t0 -19.5q6 -5 19.5 -2t27.5 9t26 12.5t16 9.5q29 18 47 38q9 10 19.5 2.5t6.5 -20.5
q-2 -7 -7 -12l-10 -10q-4 -4 -7 -12q-4 -7 -2 -10.5t7 -4.5q14 -2 35 2t43.5 11t44.5 16.5t38 17.5q4 1 11 5.5t14.5 7.5t14.5 3t10 -6q4 -6 -0.5 -11t-12.5 -8.5t-16 -6.5t-12 -5l-34 -15l-35 -16q-12 -5 -26 -12t-29 -12t-30.5 -7t-28.5 3q-17 7 -20 19.5t1 26.5l-27 -16
l-35 -20q-19 -11 -39 -13q-18 -1 -32 8t-15 28q0 10 8 25.5t20.5 32t27.5 30.5t28 21q-7 -2 -22.5 -9t-35.5 -17l-40 -20l-40 -20q-5 -3 -10 -1.5t-7.5 5t-2 8t6.5 7.5z" />
    <glyph glyph-name="b" unicode="b" horiz-adv-x="371" 
d="M2 86q50 22 96 52t88 65q14 26 29 51l32 52q28 46 63 90q14 18 32 38t41 26q9 2 18 0t14 -11t3 -18.5t-7 -19t-12 -18.5l-11 -15l-88 -99q-45 -47 -96 -89l-20 -45l-10 -26q-8 -18 -14 -38t-7 -37.5t9 -21.5q22 0 40 11.5t32 27.5q1 2 4 5t6 8q-8 18 -4.5 40t16.5 37
q12 16 27.5 13.5t15.5 -25.5q0 -17 -8 -34.5t-19 -32.5q2 -2 4 -3.5t5 -2.5q11 -5 23.5 -4.5t23.5 4.5q12 3 27.5 12.5t27.5 9.5q10 0 11.5 -9.5t-6.5 -13.5q-24 -11 -46 -18q-21 -7 -44 -7.5t-40 13.5q-15 -19 -35 -37.5t-43 -26.5q-17 -5 -33 -0.5t-23 22.5
q-8 23 0.5 48.5t17.5 46.5l10 25l12 26l-41 -28l-41 -27l-62 -34q-5 -2 -9.5 -4.5t-9.5 1.5q-6 4 -5.5 11t6.5 10zM323 336q16 19 31.5 39.5t23.5 44.5q-8 -5 -16 -12.5t-14 -12.5q-17 -17 -32.5 -35t-29.5 -37q-15 -20 -28 -40l-25 -41q23 22 45 46z" />
    <glyph glyph-name="c" unicode="c" horiz-adv-x="356" 
d="M2 86q26 11 49.5 25t48.5 26q9 4 17 8t17 6q17 7 40 12t41 3q7 -2 11.5 -7.5t5 -11.5t-3 -11t-12.5 -6q-6 -2 -13.5 -0.5t-15.5 2.5q-14 1 -27.5 -1t-26.5 -9q-20 -9 -29 -27.5t6 -38.5q15 -18 37 -23.5t46.5 -3t48.5 9.5t42 13q23 7 42 17l33 17q7 5 13.5 -1.5
t1.5 -14.5q-3 -8 -13.5 -12t-18.5 -6q-41 -20 -86 -37t-92 -17q-21 -1 -40 7t-32 22t-17.5 33.5t5.5 41.5v1q-11 -6 -21.5 -13t-21.5 -12l-15 -10q-8 -6 -16 -4q-9 0 -10.5 9.5t6.5 12.5z" />
    <glyph glyph-name="d" unicode="d" horiz-adv-x="402" 
d="M2 86q26 9 49.5 22t48.5 24q16 8 33 13l34 10q20 7 43 7q9 0 15 -8t1 -17q-3 -6 -9 -8.5t-13.5 -3t-14.5 -0.5h-14q-14 -1 -28.5 -8.5t-27.5 -18.5q-17 -12 -31 -32q-1 -2 -4.5 -8.5t-6.5 -13.5t-4.5 -13t1.5 -9t9.5 -1.5t13 5t12 7t7.5 4.5q17 10 32 21l31 22l47 42
q17 35 36 69l39 69l28 46q14 23 30 46q15 21 33 43.5t42 34.5l14 4q6 2 13 0q11 -2 16 -8t5.5 -14.5t-2 -18t-6.5 -16.5q-17 -29 -38 -55l-44 -52l-68 -80q-35 -38 -73 -74l-9 -27l-10 -27q-2 -5 -4.5 -12t-5 -15t-4 -16t-0.5 -13q18 1 36.5 8t34.5 14q28 11 57 26l54 30
q3 2 8.5 2.5t10 -0.5t5.5 -5t-3 -11q-5 -8 -15 -11.5t-17 -6.5l-56 -29l-55 -30q-8 -4 -18 -9.5t-21 -9.5t-21.5 -4t-19.5 6q-9 7 -11.5 17t-1 21.5t5 22t6.5 18.5q1 4 2 7.5t3 8.5l-50 -43q-8 -8 -18 -16.5t-21.5 -15t-23.5 -9.5t-24 0q-20 6 -24.5 19t1 29t17.5 32.5
t26 30.5l-25 -10q-10 -5 -24 -13.5t-25 -9.5q-6 -3 -10 -0.5t-5.5 6.5t-0.5 8.5t7 6.5zM286 184l51 55q25 29 48 59l20 27q10 14 19 29q3 6 11.5 19t10.5 24q-14 -5 -26 -19l-19 -22q-23 -25 -43 -52t-38 -56l-40 -70z" />
    <glyph glyph-name="e" unicode="e" horiz-adv-x="355" 
d="M2 86q18 9 37.5 20t39.5 19q13 23 37 37.5t51 19.5q14 2 32.5 0t28.5 -15q7 -8 3.5 -17t-12 -17t-19.5 -15l-15 -9q-18 -11 -39.5 -16.5t-43.5 -3.5h-4q4 -22 18 -34t33 -17.5t39.5 -4.5t37.5 4q24 5 47 12.5t45 17.5q10 5 20.5 9.5t19.5 9.5q7 2 14.5 -2t1.5 -13
q-5 -8 -14 -11t-16 -6l-50 -22q-46 -18 -91 -30q-20 -4 -40.5 -2.5t-38 9t-31.5 21.5t-20 36q-2 8 -3.5 16t0.5 15q-11 -5 -22 -12l-18 -11q-5 -2 -13 -7.5t-16 -0.5q-6 4 -5.5 11t6.5 9zM104 114q24 1 46.5 12t39.5 28q-14 5 -27.5 3t-25 -8t-20.5 -15.5t-13 -19.5z" />
    <glyph glyph-name="f" unicode="f" horiz-adv-x="276" 
d="M2 86q44 20 85 46t79 55l38 73q18 37 40 72q8 15 18.5 32.5t24 33t29.5 26t36 10.5q21 0 25.5 -11t0 -25.5t-13.5 -29t-15 -21.5q-25 -37 -55 -70t-64 -62q-11 -11 -23 -21l-23 -20l-40 -76q-1 -29 11.5 -40t35.5 -8q14 3 27 7.5t26 9.5q9 4 21 12.5t22 8.5
q9 0 11.5 -9.5t-6.5 -13.5l-47 -22q-21 -8 -46 -15.5t-48 -1.5q-19 7 -31 27q-20 -39 -42 -77l-44 -74q-3 -5 -11.5 -18t-18 -24t-19.5 -15t-17 9q-4 7 -4 17t2 20.5t5 20.5l5 17q7 21 22 47t35.5 51t44 46.5t47.5 33.5l9 19l10 18l-42 -29l-36 -22l-38 -21l-14 -7
q-8 -4 -14 0q-5 4 -4.5 11t6.5 10zM290 308q23 26 38 51q5 7 10 17.5t6 20.5q-11 -4 -20.5 -12.5t-17.5 -16.5q-19 -20 -34.5 -42t-29.5 -45l-15 -28l-16 -27q21 19 41 39t38 43zM-4 -97q29 32 53.5 70t46.5 77q-37 -26 -66.5 -65.5t-33.5 -81.5z" />
    <glyph glyph-name="g" unicode="g" horiz-adv-x="331" 
d="M0 85l51 25q25 12 51 22q28 10 55.5 15t57.5 5q11 0 17 -5.5t1 -18.5q-6 -10 -18 -10q-26 2 -52.5 0t-50.5 -12q-8 -3 -17 -9t-16.5 -13.5t-10.5 -16.5t2 -19q8 -17 30.5 -20t38.5 1q13 3 23 8l18 9q8 4 14.5 5.5t13.5 -4.5q7 -10 0.5 -23t-10.5 -22l-14 -33
q27 28 57 53.5t64 45.5q3 2 8 6t11 7.5t12 5t10 -1.5q7 -5 5 -10t-7 -10q-26 -14 -50 -30t-47 -36q-26 -22 -49.5 -47t-43.5 -52l-26 -60l-24 -61q-12 -31 -26 -61l-7 -14q-5 -9 -10.5 -16.5t-13 -12t-16.5 -3.5q-12 2 -15.5 11t-2 20t5 22t6.5 18q19 45 47.5 87.5
t60.5 80.5l34 97q-18 -5 -38.5 -7.5t-38.5 -0.5t-32.5 10t-21.5 26q-9 23 1 42l-17 -10q-8 -6 -14 -4q-10 0 -12 8.5t6 12.5z" />
    <glyph glyph-name="h" unicode="h" horiz-adv-x="461" 
d="M2 86q63 30 122 65t102 77l36 65q17 29 37 59.5t48 49.5q7 4 20 8.5t24.5 4.5t18 -6.5t0.5 -24.5q-5 -14 -14.5 -26.5t-21 -24.5t-23.5 -22.5t-21 -20.5l-43 -40q-22 -20 -45 -38l-12 -22l-10 -21l-18 -34q-9 -17 -20 -34q31 18 63 33l65 30q11 6 25.5 10t28.5 0
q15 -5 19 -19t-4 -28q-6 -12 -16 -24l-19 -25q-10 -12 -17 -25.5t-7 -26.5q26 3 54.5 15.5t51.5 24.5q8 4 18.5 10.5t18.5 9.5q5 3 9.5 1t7 -5.5t2 -8.5t-6.5 -8q-22 -13 -45 -23.5t-45 -23.5l-21 -12q-12 -7 -24.5 -11t-25 -3t-21.5 12q-7 9 -6.5 19t5 19.5t10.5 18.5
l12 16q11 14 21.5 30t12.5 33q-8 1 -17.5 -1t-19.5 -5.5t-19.5 -7.5t-16.5 -6q-22 -10 -42.5 -21.5t-40.5 -24.5q-32 -23 -45 -35l-19 -16q-5 -5 -11.5 -7t-14.5 4q-8 7 -7 13.5t6 12.5q29 30 53.5 64t44.5 70q-27 -21 -55 -39l-55 -35q-17 -11 -33 -20l-34 -18
q-5 -2 -10.5 -4.5t-10.5 1.5t-5 11t6 10zM319 313q13 13 26.5 28t22.5 33q-23 -11 -41 -30.5t-32 -39.5l-21 -35l22 22z" />
    <glyph glyph-name="i" unicode="i" horiz-adv-x="304" 
d="M100 134q4 2 18.5 8t28.5 9t24 0.5t7 -18.5q-2 -9 -8.5 -18t-9.5 -18q-6 -13 -11.5 -32t3.5 -31q17 -2 37.5 4t37.5 12q5 2 19 10t29.5 15.5t28.5 11t16 -2.5q4 -7 -5 -15t-22.5 -14.5t-27.5 -12t-18 -7.5l-45 -21q-22 -11 -46 -15q-21 -3 -29 9t-8 30.5t5.5 40
t11.5 39.5q-23 -9 -45 -16.5t-43 -17.5q-18 -8 -36 -18q-11 -3 -17.5 5.5t5.5 14.5zM217 336q5 13 15.5 22.5t23.5 15.5t27.5 9.5t27.5 5.5q36 2 71 -3q6 0 13.5 -2t6.5 -11q-1 -5 -5 -8.5t-9 -2.5q-29 6 -60.5 4.5t-56.5 -18.5q-10 -6 -14 -16t-12 -16q-10 -8 -21 0t-7 20z
" />
    <glyph glyph-name="j" unicode="j" horiz-adv-x="252" 
d="M0 86q26 11 51 24l50 28q6 3 17.5 7.5t22 6t16 -3.5t1.5 -20q-23 -43 -44 -87l-43 -87q28 27 58.5 51t62.5 45q4 2 17.5 11.5t28 17t25.5 10t11 -9.5q0 -10 -11.5 -14.5t-17.5 -8.5q-14 -7 -29 -17l-28 -19q-42 -28 -78.5 -60t-69.5 -68l-44 -94q-23 -47 -51 -91
q-4 -6 -9.5 -13t-12.5 -13t-15 -8.5t-17 2.5q-8 4 -10.5 12t-1 16.5t5 17.5t6.5 15q23 47 58 89t73 80l49 102q24 52 44 106q-19 -5 -37 -14.5t-35 -16.5q-8 -4 -18.5 -12t-20.5 -6q-9 0 -11 9.5t7 12.5zM162 317q12 17 33 25t41 10q17 1 33.5 -2t32.5 -7q6 -2 11 -3.5
t6 -7.5q2 -7 -2.5 -12t-11.5 -3q-26 7 -52 10t-49 -15q-5 -4 -9.5 -11.5t-10.5 -10.5q-6 -2 -11.5 -0.5t-9 6t-4.5 10t3 11.5z" />
    <glyph glyph-name="k" unicode="k" horiz-adv-x="449" 
d="M-2 85q56 28 107.5 64t99.5 75l17 15l31.5 58t35.5 56q12 17 26.5 33.5t34.5 25.5q6 3 14.5 4t15.5 -0.5t12 -6.5t4 -15q-1 -9 -5.5 -17.5t-11.5 -16.5l-13 -15l-13 -13l-35 -34l-35 -34l-22 -21q-11 -10 -22 -19l-60 -118l20 14q10 7 21 13l30 18q16 10 34 17.5t36.5 9
t33.5 -7.5q9 -5 11 -12t0 -14.5t-7 -14.5t-11 -13q-28 -24 -64.5 -35t-73.5 -11q17 -20 40 -32.5t50 -8.5q35 5 68 17.5t64 29.5q5 3 13 8.5t16 1.5q5 -3 5.5 -9.5t-5.5 -10.5q-4 -3 -7.5 -4.5t-7.5 -3.5q-14 -8 -28 -15t-28 -13l-44 -21q-22 -10 -44 -13t-44 2.5t-43 25.5
q-11 10 -20.5 22t-17.5 24q-10 -9 -19 -19t-17 -20q-3 -5 -6.5 -9t-8.5 -9q-8 -8 -16.5 -10.5t-13.5 14.5q-3 7 0 12t7 11l32 45q15 22 28 44l25 44l10 17l-38 -29l-38 -27l-43 -29l-46 -27q-5 -4 -13.5 -10t-16.5 -4q-9 0 -11 8.5t7 12.5zM212 94q32 1 59.5 13.5t48.5 35.5
q-9 0 -19 -3l-17 -4q-9 -2 -22 -8.5t-25.5 -13.5t-22 -13t-11.5 -7h9zM300 312l26 28q14 16 24 33q-25 -14 -45 -38.5t-35 -52.5z" />
    <glyph glyph-name="l" unicode="l" horiz-adv-x="294" 
d="M0 86q31 14 60 31t58 37q14 28 31 54l33 51l34 46l35 47q15 20 32.5 40.5t40.5 33.5q11 6 27 8.5t22 -14.5q4 -11 0.5 -21.5t-10.5 -21t-15 -20t-13 -16.5q-40 -57 -89.5 -106.5t-106.5 -91.5q-5 -12 -11.5 -25.5t-11.5 -28.5t-7 -29.5t1 -27.5q11 2 20 3q8 1 15 1.5
t9 1.5q30 6 59 16t57 22q8 2 19 8t19 1q11 -8 3 -14.5t-15 -9.5l-116 -43q-17 -6 -33 -12.5t-33 -7.5q-15 -2 -24 4.5t-12.5 17t-2.5 23t4 23.5q7 24 18 48q-41 -27 -86 -49q-10 -2 -16.5 6.5t5.5 14.5zM203 223q47 44 86 95q18 21 34 48q2 5 6 12.5t7 15.5q-14 -7 -27 -19
l-20 -20q-23 -23 -43 -49l-40 -52l-21 -32q-10 -15 -19 -31q9 7 18 15z" />
    <glyph glyph-name="m" unicode="m" horiz-adv-x="596" 
d="M-2 85q23 13 46 24l46 22q7 3 19.5 9.5t26.5 12.5t27 9t21 -1q9 -6 8.5 -14t-6 -17t-12.5 -17t-10 -13q-5 -8 -9.5 -17t-9.5 -18l41 31l31 24q14 10 26.5 17t25.5 12q15 6 29 0.5t10 -25.5q-2 -14 -7 -26.5t-12 -24.5l44 27l45 27l41 25q21 13 44 16q15 2 24 -3.5t12 -15
t1 -21t-8 -21.5q-13 -21 -26 -39.5t-24 -38.5q16 -3 37.5 4t34.5 13q14 5 26 10l25 12q4 2 9.5 6t12 7.5t12.5 5t11 -0.5q10 -5 5 -12t-15.5 -13.5t-22 -11.5t-15.5 -7q-14 -8 -28 -14l-28 -12l-42 -17q-23 -9 -43 0q-11 5 -14 13t-1.5 16.5t7 17.5t11.5 15q6 7 14.5 15
t16 17t12 18.5t2.5 20.5q-10 5 -24.5 -1t-22.5 -10q-30 -11 -58 -29l-54 -36q-4 -3 -14 -11.5t-21 -15.5t-21.5 -9t-14.5 9q-2 5 1 12t8 14l10 15q5 7 7 12l5 14q4 9 6 18q-23 -7 -43 -18.5t-38.5 -25t-36.5 -29t-37 -29.5q-5 -5 -12 -8t-14 1q-9 4 -10 9.5t2 11t8 10.5l8 8
q28 36 45 80q-22 -5 -43 -13l-39 -17l-28 -13q-14 -7 -28 -16q-5 -3 -10 -1.5t-7 5t-1.5 8.5t6.5 8z" />
    <glyph glyph-name="n" unicode="n" horiz-adv-x="454" 
d="M-2 85l38 20q27 15 55.5 28t52.5 18t30 -8q4 -10 -2.5 -19.5t-9.5 -17.5l-12 -28q13 8 26 14l26 12l66 36q34 19 69 29q13 3 23 0.5t15.5 -9t5.5 -17t-8 -22.5q-9 -14 -19.5 -25t-21.5 -24q-2 -3 -7 -8t-10.5 -11.5t-10 -13t-5.5 -11.5q7 -2 17.5 0t21 5.5t19.5 7.5l15 6
l41 18q4 2 10.5 6l13.5 8l13 6q7 3 11 3q9 0 9 -9t-8 -14q-9 -5 -19 -9l-21 -10q-14 -8 -27 -14l-27 -13q-8 -4 -25.5 -11.5t-35 -11t-30.5 1t-13 24.5q0 10 5 18t11.5 15.5t13.5 14.5l14 13q6 5 20 21t18 30q-27 -3 -54.5 -14t-50.5 -23q-29 -14 -60 -31.5t-54 -41.5
q-5 -4 -10.5 -4.5t-10.5 2t-7.5 7.5t-0.5 13q3 9 15 16q5 8 10 18.5t7 12.5l4 15q2 7 3 15q-11 -3 -22 -7t-17 -6l-28 -11q-14 -6 -28 -13q-8 -4 -14.5 -8t-14.5 -7q-6 -3 -11.5 -1.5t-8.5 4.5t-2.5 7.5t7.5 7.5z" />
    <glyph glyph-name="o" unicode="o" horiz-adv-x="392" 
d="M104 131q20 8 41 14l42 12q13 7 29 11t29 -4q8 -6 6 -16q7 1 14 -4q13 -13 9 -31t-15 -35q4 -5 12 -10q16 -10 35 -9t36 6q5 1 15 6t20.5 9.5t19.5 6t12 -4.5q4 -8 -1 -13.5t-13.5 -9t-17.5 -6.5l-12 -4q-15 -5 -31.5 -8t-32.5 -3t-31 4.5t-26 15.5l-22 -23
q-12 -11 -27 -22t-31.5 -18.5t-34.5 -9.5t-34 5q-20 9 -23.5 23.5t2.5 30.5t17 31t21 25l19 19q-23 -8 -45 -18l-44 -21q-4 -2 -10 -5.5t-12 -6.5t-11.5 -4.5t-9.5 1.5q-7 4 -6 11t7 10zM138 96l-14 -15q-11 -11 -19 -23t-9.5 -22.5t12.5 -12.5q26 -4 49.5 2t42.5 23l15 15
q7 7 12 16q-5 13 -5.5 28t7.5 26q-28 -2 -50.5 -12t-40.5 -25z" />
    <glyph glyph-name="p" unicode="p" horiz-adv-x="409" 
d="M0 86q26 11 50.5 24.5t50.5 26.5q6 3 17.5 8t22 6.5t16 -3t1.5 -20.5q-3 -12 -11.5 -25t-14.5 -26l-25 -51q-4 -6 -7 -12l-6 -12q30 34 62 66t68 59q21 16 48 30.5t54 10.5q16 -3 19.5 -13t0 -22t-10.5 -24t-12 -19l-42 -53q22 5 43 12t43 16q4 2 13.5 7.5t19.5 10
t17.5 4t7.5 -10.5q0 -7 -8.5 -13t-19.5 -11t-22 -9t-16 -6q-6 -3 -30 -11l-51 -17l-52 -17q-24 -7 -32 -8q-7 0 -10.5 5.5t-3 12.5t6.5 13.5t18 7.5q17 0 30 9.5t25 21.5q21 20 35 44l9 15q6 11 8 20q-16 -1 -31.5 -8t-30.5 -16.5t-28 -20.5l-25 -20q-32 -25 -60.5 -54
t-54.5 -60l-28 -32l-67 -139q-6 -11 -15 -31t-20.5 -39t-25 -31.5t-29.5 -9.5q-12 3 -15.5 11.5t-1 20t8.5 24t13 24.5t13 21t9 13q26 39 55 76l58 74q22 45 41 89l37 89q-19 -5 -37.5 -15t-34.5 -17q-8 -4 -18.5 -12t-20.5 -6q-9 0 -11 9.5t7 12.5z" />
    <glyph glyph-name="q" unicode="q" horiz-adv-x="331" 
d="M-23 -180q27 10 54 19l53 16l4 7l41 94q20 46 38 94q-16 -9 -33.5 -16t-33 -8t-28.5 5t-20 24q-7 16 -4 29q-5 -2 -10.5 -6t-11.5 -7t-12 -5.5t-12 -1.5q-9 0 -10.5 8.5t6.5 12.5q25 13 50.5 25t51.5 22q24 9 53.5 15t57.5 4q12 -1 19 -6t-1 -19q-4 -5 -8.5 -6.5
t-9.5 -1.5q-10 1 -18.5 1.5t-16.5 0.5q-2 0 -10 -0.5t-19 -2t-24 -4.5t-25 -9q-6 -3 -10.5 -9t-6 -12.5t1.5 -12.5t12 -9q22 -7 44.5 2.5t36.5 26.5q6 5 10.5 13t12.5 11q9 4 14 1t6.5 -8.5t0.5 -12.5t-4 -12l-46 -93l-44 -93q35 45 74 86q18 20 38 37l42 34l43 29
q5 2 10 4.5t10 -1.5q5 -2 5 -9t-5 -11q-93 -55 -163 -138q-25 -29 -44 -59l31 7q25 7 50 12l52 10q8 2 17 4t16 -5q7 -6 6 -15t-9 -14q-8 -4 -17.5 -4t-17.5 -1l-55 -7l-47 -8q-23 -4 -46 -9q-15 -24 -28.5 -50t-25.5 -52l-12 -28q-5 -14 -13 -30q-5 -10 -16.5 -11.5
t-16.5 14.5q-2 6 0 11l6 9l25 51q19 37 36 75l-53 -17q-4 -1 -10 -4t-12.5 -5t-12.5 -3t-9 2q-7 5 -5.5 11.5t8.5 8.5z" />
    <glyph glyph-name="r" unicode="r" horiz-adv-x="378" 
d="M0 86l42 22l44 25q-2 19 11.5 36t34.5 16q14 -2 18 -14t-4 -23q-8 -12 -21 -20q7 -4 17 -4q21 -2 44 7.5t41 20.5q18 6 23 -4t-4 -24q-5 -8 -11.5 -20.5t-11 -25.5t-5 -25t7.5 -19q5 -6 26.5 0t57.5 20q12 5 24.5 11.5t25.5 12.5q3 1 9 4.5t11.5 5t10 0t4.5 -10.5
q0 -5 -4.5 -9t-10 -7t-11.5 -5l-9 -3l-42 -19l-27 -15q-17 -9 -34 -15t-33 -6t-25 13q-5 7 -6 15.5t0.5 17t4 17t4.5 16.5l8 33q-5 -1 -20.5 -5t-33.5 -5.5t-34.5 0.5t-24.5 13l-8 -5l-20 -10q-11 -6 -22 -13l-19 -11q-6 -2 -14 -7.5t-14 -1.5t-6 11t6 10z" />
    <glyph glyph-name="s" unicode="s" horiz-adv-x="316" 
d="M-2 85l26 15q18 10 40.5 21t45.5 20.5t40 10.5q6 2 12.5 -0.5t9.5 -6.5q6 -10 1 -15.5t-13 -9.5t-17.5 -6.5t-12.5 -6.5q-5 -6 2.5 -11t18.5 -8t22 -5.5t14 -4.5q20 -11 23.5 -23.5t-4.5 -25.5l27 14l80 42q7 4 12.5 0.5t5.5 -11.5t-9 -12l-15 -6l-49 -23l-48 -26
q-29 -14 -55.5 -25t-54.5 -11q-20 0 -35.5 14t-15.5 32q-1 9 4 14.5t12 7t12.5 -2.5t6.5 -13q2 -20 17.5 -23.5t36.5 1.5q14 5 25.5 12.5t16.5 14.5q13 14 7 22t-20.5 13t-30.5 8.5t-22 8.5q-9 8 -10.5 16t0.5 16q-15 -6 -30 -13l-26 -11q-9 -5 -21.5 -14.5t-22.5 -9.5
q-5 -1 -8.5 1.5t-4 6t1 7.5t5.5 6z" />
    <glyph glyph-name="t" unicode="t" horiz-adv-x="298" 
d="M89 209q18 -1 36 -0.5t36 2.5l60 89q33 47 74 79l16 10q9 5 18 6q10 0 15 -8t2 -17q-5 -20 -22 -38.5t-29 -33.5q-15 -20 -32 -39l-33 -37l59 14l99 30q7 3 14.5 4.5t13.5 -6.5t3 -16.5t-11 -11.5q-46 -16 -96 -25t-98 -15l-14 -3l-25 -22l-27 -22q-7 -10 -12 -21
l-10 -21q-2 -3 -6 -15t-7.5 -24.5t-5.5 -23t1 -10.5q21 -5 45.5 2.5t42.5 12.5l46 16q23 8 46 18q6 2 15.5 3t8.5 -12q-1 -9 -12.5 -12.5t-18.5 -6.5l-71 -26l-34 -14q-21 -9 -42.5 -14.5t-39 -1.5t-21.5 27q-2 23 8.5 45.5t24.5 48.5q-46 -31 -96 -55q-6 -3 -10 -1t-6 6
t-0.5 8.5t6.5 7.5q35 16 67.5 35t63.5 42l14 24q-15 -1 -33 -4t-29 3q-8 5 -5.5 14t11.5 9zM270 304q5 7 9.5 15t9.5 16q-10 -10 -18.5 -20t-14.5 -16l-35 -41q-17 -20 -31 -43q45 41 80 89z" />
    <glyph glyph-name="u" unicode="u" horiz-adv-x="470" 
d="M0 86q26 8 51 19l50 23q6 3 18.5 11.5t25.5 15.5t24.5 9.5t17.5 -6.5q5 -8 1.5 -15.5t-10.5 -15t-15 -14t-12 -10.5q-15 -15 -29 -33t-14 -38q18 0 38 9t35 15q48 22 95 50q26 16 47 32q9 6 18.5 0t7.5 -18q-2 -9 -8.5 -17.5t-11.5 -17.5q-5 -8 -9.5 -22t-0.5 -25
q11 -6 27 -2l26 8q43 15 80 34q7 3 17.5 8.5t15.5 -4.5q5 -9 -1.5 -13.5t-13.5 -7.5l-66 -31l-46 -21q-25 -11 -50 -5q-18 5 -20.5 20.5t2.5 29.5l15 36q-26 -12 -50.5 -25t-50.5 -24l-26 -15q-15 -8 -31.5 -15.5t-32.5 -11t-28 1.5q-12 4 -12.5 15.5t5.5 26.5t17 32t23 33
l-24 -11q-41 -15 -59 -23t-28 -10q-6 -2 -9.5 1t-5 7t0 8t6.5 6z" />
    <glyph glyph-name="v" unicode="v" horiz-adv-x="395" 
d="M0 86l75 33l74 33l17 8q10 5 18 0t9 -10t-2 -10t-7.5 -10t-8.5 -8q-11 -11 -19.5 -23t-16.5 -25q-4 -6 -7 -13l-6 -14q-7 -20 3.5 -21.5t27 5t32.5 16.5t20 13l9 7q-2 16 4 33t20 31q8 8 20 16t25 4q15 -4 14 -17t-7 -24q-8 -14 -19 -26t-24 -23q12 -5 25.5 -5.5t27.5 2
t27.5 6t24.5 7.5q11 2 20.5 6t18.5 9q8 4 14 -2.5t1 -13.5q-3 -6 -11.5 -10.5t-18 -7.5t-19 -5t-15.5 -3q-20 -5 -40.5 -8.5t-40.5 -1.5q-20 1 -32 12q-14 -12 -28.5 -21.5t-28.5 -17.5q-11 -7 -27 -12t-30 -3.5t-22 11t-1 32.5q11 40 36 81l-28 -10l-27 -10q-16 -6 -30 -13
t-28 -15q-6 -2 -13 -4t-12 6q-4 11 6 16z" />
    <glyph glyph-name="w" unicode="w" horiz-adv-x="517" 
d="M0 86l38 17q18 8 38 16q19 8 40 15t38 20q8 6 21 7t17 -13q2 -13 -10.5 -22.5t-20.5 -16.5q-12 -11 -24 -23.5t-22 -26.5q-4 -7 -12.5 -19.5t-10.5 -23.5q38 2 75 24t63 51q3 7 7.5 15t10.5 15.5t13 12.5t15 5q12 0 16.5 -11t-3.5 -19q-7 -11 -17 -20l-22 -18
q-2 -11 -1 -23t13 -13q18 -2 35 7t40 25q-5 19 4 39q8 16 25.5 31.5t37.5 14.5q7 0 13 -5t8 -10q1 -6 -6.5 -16.5t-17.5 -21.5l-19 -22q-10 -10 -14 -13q8 -8 22.5 -8t25.5 2q26 2 52 9.5t49 18.5q5 3 9 1t6 -6t1.5 -8.5t-5.5 -7.5q-12 -7 -25.5 -10.5t-26.5 -7.5
q-24 -8 -50.5 -12t-52.5 1q-11 1 -21 10q-21 -20 -43.5 -34.5t-46.5 -12.5q-22 1 -29 18t-7 37l-22 -16l-44 -30q-23 -16 -50 -24q-9 -3 -19 -3t-18 3.5t-12.5 11.5t-1.5 21q5 16 16 29l21 27l18 22q10 12 18 23l-25 -8q-13 -5 -23 -10l-33 -16q-16 -7 -32 -16q-6 -2 -13 -4
t-12 6q-4 11 6 16z" />
    <glyph glyph-name="x" unicode="x" horiz-adv-x="398" 
d="M-6 -4q42 17 81 37l79 43q-9 19 -12 43q-35 -8 -68.5 -23t-63.5 -31q-5 -3 -10 -1t-7.5 5.5t-1.5 8t7 7.5l64 33q31 16 64 27q5 2 12.5 4.5t14.5 4t13 -0.5t8 -9q2 -8 -0.5 -24t1.5 -32l30 16q26 16 53 31t53 32q8 5 18 10.5t19 -2.5q8 -6 6.5 -15.5t-10.5 -14.5l-80 -39
l-79 -40q15 -23 41 -28.5t56 -0.5q17 4 40.5 11.5t56.5 27.5q5 2 12 7t12 5q8 0 9.5 -5.5t-0.5 -10.5q-3 -6 -10 -9.5t-12 -6.5l-74 -37q-15 -8 -31.5 -13.5t-32 -7t-31 2.5t-29.5 17q-8 8 -15 17t-14 19l-30 -16l-54 -30q-27 -15 -53 -32l-18 -12q-9 -6 -19 1
q-8 7 -6.5 17.5t11.5 13.5z" />
    <glyph glyph-name="y" unicode="y" horiz-adv-x="410" 
d="M-2 85l115 59q16 8 36 22t38 18q11 2 18 -8t-1 -20q-5 -9 -14.5 -16.5t-16.5 -15.5q-20 -24 -33 -51q-3 -5 -6 -12t-5 -14.5t-2 -13.5t4 -9q3 -3 13 1.5t22 11t22 13t12 8.5q21 14 39.5 29t35.5 32q4 4 11 7t13 2t9.5 -5.5t2.5 -13.5q-3 -11 -11 -22.5t-13 -20.5
q-8 -11 -14 -22t-13 -22l-78 -142q34 45 75 84q4 4 18 17l32 29q18 16 38.5 32.5t39 28.5t31.5 17t17 -2q3 -6 -5.5 -14.5t-21 -17t-25.5 -15.5t-17 -10q-23 -17 -44.5 -35.5t-41.5 -39.5q-39 -39 -73.5 -84.5t-64.5 -93.5l-22 -40l-21 -40q-4 -6 -7 -13t-8 -12
q-8 -5 -17 -2t-11 12q-3 8 1 14l9 13l27 49l28 50l54 101l53 103q6 14 13 27.5t13 27.5l-42 -32l-20 -18q-11 -9 -23 -16.5t-24.5 -10.5t-24.5 3q-17 6 -19.5 21t3 34.5t17 40.5t23.5 40l-50 -21l-34 -17l-34 -17q-6 -4 -13 -8t-15 0q-6 4 -5.5 11t7.5 9z" />
    <glyph glyph-name="z" unicode="z" horiz-adv-x="439" 
d="M-2 85q20 10 41.5 22.5t44 23.5t45 19t45.5 10q8 0 14 -2t10 -9q1 -4 0 -8t-2.5 -7t-2.5 -5.5t1 -3.5q7 -4 14.5 -4t13.5 1q32 4 62 19.5t56 34.5q10 4 16 1t7.5 -9.5t-1.5 -14.5t-10 -13q-16 -10 -33 -19l-32 -17l-75 -39q-38 -19 -75 -42q21 3 42 3q16 0 32.5 -1.5
t33.5 -6.5l15 -6q10 -4 14 -4q6 -2 13.5 0t13.5 4q47 15 88 40q4 2 14.5 10.5t22.5 16t22 11.5t15 -2q4 -5 1.5 -10t-7.5 -9.5t-11 -8t-9 -5.5l-54 -35q-27 -17 -55 -31q-18 -10 -31 -13t-25 -1.5t-25 6.5l-29 13q-20 8 -41 9t-41 -4q-11 -3 -21 -7l-19 -6q-11 -5 -22 -13
t-22 -10q-11 -3 -16.5 6.5t-3.5 18.5q6 12 20 19t25 12l72 39l71 39q-18 0 -35 6t-22 22q-23 -1 -49 -11l-46 -19q-15 -8 -29.5 -15t-28.5 -15q-6 -3 -10.5 -1.5t-7 5.5t-1.5 8.5t7 7.5z" />
    <glyph glyph-name="braceleft" unicode="{" horiz-adv-x="176" 
d="M32 -109q-10 13 -12 28.5t1 31.5t9 31t13 28q4 8 14 24t19 33.5t12.5 33.5t-4.5 25q-3 4 -10.5 6t-14.5 5t-10.5 7t1.5 12q3 4 9.5 5.5t14.5 2.5l15 1q7 0 12 2q14 7 24.5 19t19.5 25.5t17 27.5t17 26q20 28 45.5 48t58.5 28q10 1 18 -6t3 -18t-20 -14t-25 -7
q-25 -12 -43 -34.5t-35 -46.5t-35.5 -45t-43.5 -30q8 -12 7.5 -27t-6.5 -31.5t-14 -32.5l-16 -29q-11 -20 -21.5 -42t-9.5 -45q0 -9 7.5 -20t4.5 -19q-3 -7 -10 -7.5t-12 4.5z" />
    <glyph glyph-name="bar" unicode="|" horiz-adv-x="296" 
d="M11 -72q46 81 87 163l80 167l36 78l10 22l9 22q4 8 7.5 18.5t11.5 15.5q9 5 14.5 3t7.5 -8t1.5 -13.5t-3.5 -13.5l-44 -88l-69 -138l-71 -137l-21 -37l-20 -38l-15 -27q-3 -5 -7.5 -6t-8.5 0.5t-6 6t1 10.5z" />
    <glyph glyph-name="braceright" unicode="}" horiz-adv-x="206" 
d="M181 352q11 -14 13.5 -29t-0.5 -31t-10 -31t-14 -28q-5 -10 -14.5 -24.5t-14.5 -29t-2 -26t22 -15.5q1 -1 5 -1h2v-1q9 -5 10 -13t-14 -10q-30 3 -56 -23q-13 -13 -23 -29l-20 -31l-19 -31q-9 -16 -20 -30q-8 -11 -18.5 -22t-23 -21t-26.5 -16.5t-28 -6.5q-12 -4 -19 7
t1 22q7 5 18 7q20 4 36 17q22 15 40 40l35 52q17 27 36 50t45 33q-10 12 -9 29q2 20 13 40l20 38q11 18 21 39.5t5 42.5q-2 8 -8 15t-3 14q2 8 8.5 8t11.5 -5z" />
    <glyph glyph-name="asciitilde" unicode="~" horiz-adv-x="292" 
d="M35 89l38 30q19 15 42 20q14 3 21.5 -2t12 -14t6.5 -19.5t5 -19.5t11.5 -7t18 9t18.5 16l12 11q5 5 11 12t15 6q11 -1 15.5 -11.5t-3.5 -18.5q-7 -7 -16.5 -14.5t-21 -14.5t-23 -12t-21.5 -8q-14 -3 -22 2t-12.5 14t-6.5 20.5t-5 20.5q-3 8 -12 5t-18.5 -10.5
t-17.5 -15.5l-12 -12l-14 -15q-7 -8 -18 -3q-10 5 -10.5 14.5t7.5 16.5z" />
    <glyph glyph-name="exclamdown" unicode="&#xa1;" horiz-adv-x="115" 
d="M141 160l-47 -70q-23 -36 -50 -69q-13 -17 -27 -31l-29 -30q-5 -6 -11.5 -13t-14.5 -7q-9 0 -15 8.5t-2 17.5q3 6 9 10t12 9q9 7 17 15t17 16q16 14 30 30l27 32q14 17 25 34l24 36q4 6 10 18t15 12q8 0 11 -6.5t-1 -11.5zM192 260q-15 0 -17.5 9.5t3 21t17.5 20.5t27 9
q15 -1 18 -10.5t-3 -20.5t-18 -20t-27 -9z" />
    <glyph glyph-name="cent" unicode="&#xa2;" horiz-adv-x="356" 
d="M67 -60l21 38q10 18 19 36q-21 14 -30.5 36.5t3.5 51.5v1q-11 -6 -21.5 -13t-21.5 -12l-15 -10q-8 -6 -16 -4q-9 0 -10.5 9.5t6.5 12.5q26 11 49.5 25t48.5 26q9 4 17 8t17 6q9 4 20.5 7.5t24.5 5.5l9 25l10 25q3 7 7 17.5t12 15.5q9 6 14.5 3.5t7.5 -8.5t2 -13.5
t-3 -13.5q-8 -14 -13.5 -26t-11.5 -23h2q7 -2 11.5 -7.5t5 -11.5t-3 -11t-12.5 -6q-5 -2 -10 -1.5t-10 1.5l-19 -36l-13 -25l-11 -19l-9 -17q16 -5 35 -4.5t37.5 4t36 9t31.5 10.5q23 7 42 17l33 17q7 5 13.5 -1.5t1.5 -14.5q-3 -8 -13.5 -12t-18.5 -6q-41 -20 -86 -37
t-92 -17q-18 0 -36 5l-11 -20l-14 -27l-14 -27q-3 -5 -7.5 -6t-8.5 0.5t-6.5 6t0.5 10.5zM110 56q6 -8 13 -12l22 45q11 22 20 42q-17 -2 -32 -9q-20 -9 -29 -27.5t6 -38.5z" />
    <glyph glyph-name="sterling" unicode="&#xa3;" horiz-adv-x="422" 
d="M144 92q8 -1 21 -1h21q35 64 66.5 114.5t69.5 101.5q1 2 6 9.5t12.5 16t16.5 15t17 6.5q12 0 12 -16q0 -13 -9 -20q-44 -38 -81 -95t-75 -129q14 0 28 4.5t29 4.5q22 0 22 -18q0 -13 -10 -15q-7 -3 -15 -3.5t-16 -0.5q-20 -1 -33 -1h-22l-19 -31l-26 -41q-15 -23 -33 -40
q4 -3 12 -5t16.5 -3.5t16 -2.5t10.5 -1q22 -1 44 4.5t43.5 14.5t41.5 20l40 19q10 5 23 13l24 14q12 7 21 11.5t14 4.5q4 0 7.5 -4.5t3.5 -9.5q0 -4 -3 -8t-6 -6l-27 -14l-18 -9q-7 -4 -11 -6.5t-8 -4.5l-53 -28q-24 -14 -46 -24t-43.5 -16t-43.5 -6q-26 0 -46 9.5t-38 20.5
q-15 -7 -26.5 -11t-26.5 -4q-19 0 -36.5 10.5t-17.5 31.5q0 15 13.5 24t25.5 9q16 0 31 -8l32 -17q11 7 22.5 18.5t21.5 25t18.5 26.5t14.5 24h-23q-22 0 -22 14q0 13 17 13zM35 -37q-7 0 -7 -3q3 -3 12 -3q6 0 14 2q-8 4 -19 4z" />
    <glyph glyph-name="currency" unicode="&#xa4;" horiz-adv-x="247" 
d="M91 34q-8 3 -15 8q-17 -12 -28 -23q-4 -4 -7.5 -9.5t-8 -9.5t-10 -6t-11.5 0q-10 4 -12 14t6 16q11 13 27 23t33 18q-2 14 3 29t14 29q-16 8 -30 18.5t-24 22.5q-7 8 -4.5 17.5t10.5 14.5q14 3 22 -8.5t15 -20.5q12 -14 27 -24q15 13 33.5 16t38.5 -11l2 -3l12 12l10 12
q7 9 13.5 21.5t20.5 9.5q10 -2 13 -12t-3 -18q-9 -14 -22.5 -25.5t-28.5 -20.5q5 -14 1 -28.5t-14 -28.5q14 -10 25 -21t19 -23q6 -8 2.5 -18t-11.5 -12q-14 -2 -21.5 10.5t-12.5 22.5q-8 13 -18 23q-15 -12 -32 -17t-34 2zM98 55q10 -3 23 4t22.5 18t12 22.5t-6.5 18.5
q-12 10 -25 3t-22 -20.5t-11.5 -27.5t7.5 -18z" />
    <glyph glyph-name="yen" unicode="&#xa5;" horiz-adv-x="498" 
d="M158 -1q23 -3 46 -1.5t46 4.5l12 17h-28h-35q-13 0 -20.5 1t-10.5 3t-4 6q-2 2 -1 7t5 8q-15 2 -20 11t-5 22q0 16 7.5 35.5t13.5 31.5v-1l20 32l19 28q5 8 15 22.5t19.5 30.5t16 31t3.5 24q0 1 -5 -1l-12 -5q-7 -3 -13.5 -6.5t-9.5 -5.5q-25 -14 -51 -36l-50 -47
l-31 -34q-6 -11 -15 -16q-8 -4 -14.5 -2t-11 7.5t-5 12.5t4.5 13l56 46l54 46q25 25 49 42t50 19q25 3 33.5 -13t6.5 -36q-5 -19 -16 -36.5t-23 -34.5l-21 -29q-17 -23 -32.5 -48t-25.5 -44.5t-2 -20.5q10 -2 23.5 2.5t27 12t25 15t17.5 12.5q34 23 63 49t56 55l18 19l22 35
l15 23l9 16q3 6 7 11q10 13 22.5 27t29.5 19q10 2 15 -2t6 -10.5t-2.5 -14.5t-10.5 -15l-29 -34l-53 -62q-7 -10 -14 -22l-13 -20l-55 -86q-4 -5 -9 -14l-9 -16l-9 -15q-4 -6 -5 -7h10q13 -3 14.5 -14.5t-9.5 -19.5q-14 -6 -37 -6q-2 -2 -3 -4.5t-3 -4.5h16q9 -2 13 -11
t-1 -17l71 31q32 15 60 30q6 3 12 1.5t9.5 -5.5t3 -9t-6.5 -8l-36 -17l-85 -42l-22 -11q-28 -13 -59 -25.5t-62 -17.5q-9 -1 -19 -1h-19q-31 0 -61 7.5t-58 25.5l-8 5l-26 19q-15 12 -15 26q0 17 5 19t15 -1q5 -2 14 -8t16 -12l16 -10q20 -14 43.5 -24.5t47.5 -10.5
q10 0 22 3t22 8l20 14h-58q-5 0 -9.5 1t-9.5 9q-3 7 2 14t13 5zM294 71q22 35 29 48t11 18q-21 -19 -40 -34q-20 -16 -45.5 -33.5t-54.5 -23.5q20 -2 41.5 0t41.5 6l6 1zM246 -47l44 17h-28z" />
    <glyph glyph-name="brokenbar" unicode="&#xa6;" horiz-adv-x="296" 
d="M144 187l70 149l10 22l9 22q4 8 7.5 18.5t11.5 15.5q9 5 14.5 3t7.5 -8t1.5 -13.5t-3.5 -13.5l-98 -196zM157 154l-69 -135l-21 -37l-20 -38l-15 -27q-3 -5 -7.5 -6t-8.5 0.5t-6 6t1 10.5l58 106l62 126z" />
    <glyph glyph-name="section" unicode="&#xa7;" horiz-adv-x="248" 
d="M79 80q-4 3 -8 9.5t-4 15t7.5 18.5t25.5 21q-4 4 -7 11.5t0 16.5t13.5 19t33.5 21q7 2 13 -0.5t9 -6.5q6 -10 1.5 -15.5t-13 -9.5t-17.5 -6.5t-13 -6.5q-5 -6 2.5 -11t18.5 -8t22.5 -5.5t14.5 -4.5q20 -11 23.5 -23.5t-4.5 -25.5q-11 -17 -25 -27q10 -15 0 -33
q-8 -13 -21 -23.5t-28 -18t-30.5 -12t-27.5 -4.5q-20 0 -35.5 14t-15.5 32q-1 9 4 14.5t12 7t12.5 -2.5t6.5 -13q2 -20 18 -23.5t36 1.5q14 5 25.5 12.5t16.5 14.5q13 14 7 22t-20.5 13t-30.5 8.5t-22 8.5zM156 75q11 9 14 13q10 10 8 17.5t-10 12t-20 8.5l-24 6
q-10 -5 -19.5 -11t-9.5 -14q0 -7 7.5 -11.5t17.5 -8t19.5 -5.5t12.5 -4z" />
    <glyph glyph-name="dieresis" unicode="&#xa8;" horiz-adv-x="197" 
d="M140 340l-18 -26q-11 -15 -22 -21q-4 -5 -9 -4t-8 4.5t-3.5 8.5t4.5 9q13 10 22.5 24t17.5 29q3 5 6 12t6.5 14t8.5 11.5t12 4.5q11 -2 15.5 -11.5t-2.5 -17.5zM83 364q-8 -17 -20 -33t-26 -29q-5 -3 -11 -8t-14 -2q-6 3 -7 6.5t1 7t5.5 6.5t6.5 5q8 5 13.5 13.5
t9.5 16.5t4.5 18.5t6.5 18.5q5 7 12 8t12.5 -3t8 -11t-1.5 -14z" />
    <glyph glyph-name="copyright" unicode="&#xa9;" horiz-adv-x="487" 
d="M256 -91q-29 -18 -64.5 -33t-70.5 -13q-24 1 -42.5 11.5t-30.5 27t-18 37.5t-6 43q0 48 16.5 88t43.5 73t62.5 60t74.5 49q38 21 85.5 29t89.5 -6q45 -14 65 -53t7 -84q-6 -21 -17.5 -39t-25.5 -35q2 -6 0 -11q-5 -8 -21 -15l-14 -15q-18 -20 -40 -39l-40 -35
q-20 -16 -35 -26.5t-19 -13.5zM131 86q12 20 31 32.5t39 20t37.5 9.5t26.5 1q7 -2 11.5 -7.5t5 -11.5t-3 -11t-12.5 -6q-6 -1 -14 0l-14 2q-14 1 -28 -1t-26 -8q-20 -9 -29.5 -28t6.5 -38q14 -18 36.5 -23.5t47 -3.5t48.5 9t42 13q17 5 32 13l28 13q14 17 24 35.5t18 39.5
q7 24 2 47t-24 41q-20 20 -49 23t-55 1q-49 -3 -100.5 -28.5t-90.5 -65.5t-58.5 -90.5t-5.5 -104.5q10 -35 29.5 -49.5t45.5 -15t55.5 11t59 29.5t57 39.5t49.5 41.5q-33 -14 -67.5 -24.5t-69.5 -10.5q-21 0 -40.5 7.5t-32.5 22t-17 33.5t6 42z" />
    <glyph glyph-name="ordfeminine" unicode="&#xaa;" horiz-adv-x="440" 
d="M61 197l30 16q19 9 40 18l40 17l33 13q7 3 25 9t38 11t37.5 7t25.5 -3q12 -11 4.5 -20t-18.5 -11l-45 -5q-14 -4 -23.5 -9.5t-21.5 -13.5q-5 -4 -17.5 -16.5t-24.5 -27t-19 -28t0 -19.5q6 -5 19.5 -2t27.5 9t26 12.5t16 9.5q29 18 47 38q9 10 19.5 2.5t6.5 -20.5
q-2 -7 -7 -12l-10 -9q-4 -5 -7 -13q-4 -7 -2 -10.5t7 -4.5q14 -2 35 2t43.5 11t44.5 16.5t38 17.5q4 1 11 5.5t14.5 7.5t14.5 3t10 -6q4 -6 -0.5 -11t-12.5 -8.5t-16 -6.5t-12 -5l-34 -15l-35 -16q-12 -5 -26 -12t-29 -12t-30.5 -7t-28.5 3q-17 7 -20 19.5t1 26.5l-27 -16
l-35 -20q-19 -11 -39 -13q-18 -1 -32 8t-15 28q0 10 8 25.5t20.5 32t27.5 30.5t28 21q-7 -2 -22.5 -9t-35.5 -17l-40 -20l-40 -20q-5 -3 -10 -1.5t-7.5 5t-2 8t6.5 7.5z" />
    <glyph glyph-name="guillemotleft" unicode="&#xab;" horiz-adv-x="395" 
d="M266 200q-42 -25 -85.5 -44t-85.5 -42q6 -15 14 -30t19 -26q17 -17 35 -21q9 -2 13.5 -10t-0.5 -16t-12.5 -9t-16.5 1.5t-17 7.5t-12 8q-20 16 -32.5 37.5t-23.5 44.5q-6 15 -6 25.5t20 15.5q24 5 47.5 14t46.5 20q20 11 39 23t36 29q7 7 14.5 5.5t12 -7t4 -13.5
t-9.5 -13zM374 200q-42 -25 -85.5 -44t-85.5 -42q6 -15 14 -30t19 -26q17 -17 35 -21q9 -2 13.5 -10t-0.5 -16t-12.5 -9t-16.5 1.5t-17 7.5t-12 8q-20 16 -32.5 37.5t-23.5 44.5q-6 15 -6 25.5t20 15.5q24 5 47.5 14t46.5 20q20 11 39 23t36 29q7 7 14.5 5.5t12 -7t4 -13.5
t-9.5 -13z" />
    <glyph glyph-name="logicalnot" unicode="&#xac;" horiz-adv-x="340" 
d="M179 4q9 7 18 18l17 21l14 20q6 10 11 16l-25 -3q-20 -3 -39 -3h-37q-17 0 -35 0.5t-36 0.5q-5 0 -10.5 1t-8.5 7q-4 6 0 12t12 4q35 -3 71 -1t71 7q15 2 34.5 7.5t35.5 3.5q13 -2 14 -11.5t-8 -21.5q-11 -17 -24 -31l-25 -25l-27 -30q-8 -8 -13.5 -8.5t-9 2t-4 7
t3.5 7.5z" />
    <glyph glyph-name="uni00AD" unicode="&#xad;" horiz-adv-x="340" 
d="M60 98q35 -3 71 -1t71 7q15 2 34.5 7.5t35.5 3.5q13 -2 15.5 -14.5t-9.5 -18.5q-6 -4 -14 -5t-17 -1h-17h-16q-39 -3 -76 -3q-17 0 -35 0.5t-36 0.5q-5 0 -10.5 1t-8.5 7q-4 6 0 12t12 4z" />
    <glyph glyph-name="registered" unicode="&#xae;" horiz-adv-x="487" 
d="M256 -91q-29 -18 -64.5 -33t-70.5 -13q-24 1 -42.5 11.5t-30.5 27t-18 37.5t-6 43q0 48 16.5 88t43.5 73t62.5 60t74.5 49q38 21 85.5 29t89.5 -6q45 -14 65 -53t7 -84q-10 -33 -32.5 -61.5t-45.5 -53.5q-18 -20 -40 -39l-40 -35q-20 -16 -35 -26.5t-19 -13.5zM437 136
q7 24 2 47t-24 41q-20 20 -49 23t-55 1q-34 -3 -69.5 -16t-68 -34.5t-59.5 -50t-43 -61.5l56 34q-2 19 11.5 36t34.5 16q14 -2 18 -14.5t-4 -23.5t-21 -19q3 -2 8 -3.5t8 -1.5q22 -1 45 8.5t41 20.5q18 5 23 -5t-4 -24q-5 -8 -11.5 -20t-11 -25t-5.5 -25.5t7 -19.5
q6 -5 27 1t57 20l45 20q14 17 24 35.5t18 39.5zM56 -41q10 -35 30 -50t46 -15t56 12t59.5 30t57.5 40t49 42q-12 -6 -27.5 -15t-32 -14t-31 -4t-23.5 13q-5 7 -6 15.5t0.5 17t3.5 17.5l4 16l9 33q-5 -1 -20.5 -5t-33.5 -5.5t-35 0.5t-24 13q-2 1 -11 -4l-21 -13l-25 -16
q-13 -8 -22 -12q-8 -23 -9 -46.5t6 -49.5z" />
    <glyph glyph-name="macron" unicode="&#xaf;" horiz-adv-x="344" 
d="M62 355q35 -4 71 -1.5t71 7.5q15 2 34.5 7.5t36.5 3.5q13 -2 15 -14.5t-9 -19.5q-12 -7 -31.5 -5.5t-33.5 -0.5q-19 -1 -37.5 -1.5t-38.5 -0.5q-17 0 -34.5 0.5t-35.5 0.5q-6 0 -11.5 1t-8.5 6q-3 7 1 12.5t11 4.5z" />
    <glyph glyph-name="degree" unicode="&#xb0;" horiz-adv-x="184" 
d="M86 110q-17 5 -22.5 19.5t-2.5 31.5t13 34.5t24.5 28t32 12t35.5 -11.5q21 -17 19.5 -39.5t-16.5 -42t-38 -30t-45 -2.5zM94 132q10 -3 22.5 4t22 17.5t12 22t-6.5 18.5q-12 10 -25 3.5t-22 -20t-11.5 -27.5t8.5 -18z" />
    <glyph glyph-name="plusminus" unicode="&#xb1;" horiz-adv-x="335" 
d="M110 13q18 26 32 60h-5q-17 0 -35 0.5t-36 0.5q-5 0 -11 1t-8 7q-4 6 0 12t12 4q45 -5 92 0l7 22q5 12 7.5 28.5t10.5 27.5q7 8 18.5 6t13.5 -13t-6.5 -25t-13.5 -25l-9 -18l21 3q16 2 35.5 7.5t35.5 3.5q13 -2 15.5 -14.5t-9.5 -18.5q-6 -4 -14 -5t-17 -1h-18h-16
q-23 -3 -45 -3q-4 -4 -6 -11q-5 -12 -12.5 -25t-14.5 -27q-2 -4 -5 -7.5t-9 -3.5q-6 -1 -9.5 4t-0.5 10zM2 -48q35 -4 71 -1.5t71 7.5q15 2 34.5 7.5t36.5 3.5q13 -2 15 -14.5t-9 -19.5q-12 -7 -31.5 -6t-33.5 0q-19 -1 -37.5 -1.5t-38.5 -0.5q-17 0 -34.5 0.5t-35.5 0.5
q-6 0 -11.5 1t-8.5 6q-3 7 1 12.5t11 4.5z" />
    <glyph glyph-name="twosuperior" unicode="&#xb2;" horiz-adv-x="311" 
d="M150 296q11 19 28 36t38 31t43.5 23.5t44.5 12.5q16 3 32.5 -1.5t22.5 -22.5q8 -18 -2 -35.5t-21 -31.5q-33 -38 -74 -70l-82 -60l-17 -12q45 4 90.5 -2.5t86.5 -23.5q6 -5 8 -12t-0.5 -13t-8 -9t-14.5 0q-11 5 -19.5 11t-19.5 11q-13 5 -26 8t-26 5q-27 4 -57.5 2.5
t-59.5 -9.5l-17 -12q-7 -5 -15 -11.5t-17 -12.5t-18 -11t-16 -6q-17 -5 -23 11q-4 12 7 20l18 14q18 12 38 19.5t40 12.5l37 26l35 26q36 26 72.5 56.5t58.5 70.5q8 13 10 21t-15 9q-23 1 -45.5 -7t-40.5 -22q-8 -5 -14 -12l-14 -13q-6 -9 -9.5 -18.5t-8.5 -18.5
q-5 -8 -12 -8.5t-12.5 3t-8 10.5t2.5 15z" />
    <glyph glyph-name="threesuperior" unicode="&#xb3;" horiz-adv-x="278" 
d="M185 321q11 18 29 35t39.5 28t45 15.5t45.5 -1.5q20 -6 35 -23t16 -39q0 -14 -6 -26t-15.5 -22t-21.5 -17.5t-23 -13.5t-23 -10l-24 -10q13 -12 22 -27t11 -32q3 -24 -6.5 -44.5t-27 -35t-39.5 -22.5t-44 -8q-23 0 -45.5 9t-40.5 25t-28 37.5t-8 46.5q0 6 2.5 17t7 21.5
t11.5 18.5t16 8q16 0 17 -8.5t-4 -19.5t-12.5 -22t-8.5 -15q-8 -23 5 -44t33 -32q23 -11 49.5 -8.5t49.5 11.5q23 8 39 26.5t9 44.5q-5 15 -15 26.5t-24 17.5q-5 -1 -9.5 -1.5t-9.5 -0.5q-12 -1 -24 -0.5t-23 5.5t-13.5 17.5t11.5 17.5q7 3 16.5 3t19.5 -2t19.5 -5t16.5 -6
q16 3 31.5 8.5t30.5 14.5q11 7 22 17.5t16 22.5t2.5 24.5t-18.5 21.5q-14 8 -29.5 8.5t-31 -5t-28.5 -14.5t-22 -21q-3 -5 -5 -11l-4 -13q-2 -6 -5.5 -11t-10.5 -6q-11 -3 -18 8t0 21z" />
    <glyph glyph-name="acute" unicode="&#xb4;" horiz-adv-x="202" 
d="M181 373q-7 -15 -28 -23.5t-37 -13.5q-14 -5 -27 -8l-27 -8q-4 -1 -10.5 -3.5t-14 -4.5t-14.5 -2.5t-11 2.5q-8 8 1 15t24 12t30 8t18 5l17 7q10 4 19.5 9t17.5 10t10 10q3 8 10 9.5t13 -1t9.5 -9t-0.5 -14.5z" />
    <glyph glyph-name="mu" unicode="&#xb5;" horiz-adv-x="470" 
d="M142 139q4 7 10.5 13.5t12.5 10.5t12 3t10 -8q4 -8 0.5 -16t-10 -15t-14.5 -13.5t-12 -10.5q-15 -15 -29 -33t-14 -38q18 0 38 9t35 15q48 22 95 50q26 16 47 32q9 6 18.5 0t7.5 -18q-2 -9 -8.5 -17.5t-11.5 -17.5q-5 -8 -9.5 -22t-0.5 -25q11 -6 27 -1l26 7q43 15 80 34
q7 3 17.5 8.5t15.5 -4.5q5 -9 -1.5 -13.5t-13.5 -7.5l-66 -31l-46 -20q-25 -12 -50 -6q-18 5 -20.5 20.5t2.5 29.5l15 36q-26 -12 -50.5 -25t-50.5 -24l-26 -15q-15 -8 -31.5 -15.5t-32.5 -11t-28 1.5q-6 1 -10 7l-41 -61l-39 -62l-37 -59q-5 -10 -10 -18t-10 -17
q-5 -5 -9 -13t-12 -12q-8 -3 -12 -0.5t-5.5 7.5t-0.5 11t4 10l46 67l70 103l72 106l4 5l11 17l12 16z" />
    <glyph glyph-name="paragraph" unicode="&#xb6;" horiz-adv-x="296" 
d="M100 -72q46 81 87 163t79 167l36 78q5 12 10 22l10 22v1l1 1h-63l-44 -88l-70 -138l-70 -137l-21 -38l-20 -37l-15 -27q-3 -5 -7.5 -6t-8.5 0.5t-6 6t1 10.5q46 81 87 163l80 167l10 23q-28 6 -34 28t6 46.5t38.5 44.5t64.5 20h71q24 0 33 -4q8 -3 9 -14.5t-3 -19.5
l-44 -88l-70 -138l-71 -137q-11 -19 -20 -37l-20 -38l-15 -27q-3 -5 -7.5 -6t-8.5 0.5t-6 6t1 10.5z" />
    <glyph glyph-name="periodcentered" unicode="&#xb7;" horiz-adv-x="157" 
d="M97 118q15 0 18 -9.5t-3 -21t-18 -21t-27 -8.5q-15 0 -18 9.5t3 21t18.5 20.5t26.5 9z" />
    <glyph glyph-name="cedilla" unicode="&#xb8;" horiz-adv-x="232" 
d="M146 -25q21 -5 41.5 -15t22.5 -28q1 -9 -3 -16.5t-11 -13t-14.5 -9.5t-14.5 -7q-35 -13 -72 -18l-73 -11q-13 -2 -19 10t3 20q8 8 23.5 6.5t25.5 -0.5q13 0 31.5 1t37 4t34.5 9t26 17q5 6 -5 10t-25 7t-28.5 4.5t-15.5 1.5q-12 5 -12.5 12t4 14.5t12.5 14.5l12 10l25 22
q4 4 9.5 4.5t9 -1.5t5 -6t-2.5 -10z" />
    <glyph glyph-name="onesuperior" unicode="&#xb9;" horiz-adv-x="149" 
d="M227 360q-32 -55 -62 -113t-50 -118q-3 -10 -6 -24.5t-16 -15.5q-11 -1 -17 7.5t-1 19.5q2 7 6.5 14.5t8.5 15.5l24 50q11 24 24 48q13 26 25 53t22 54q2 4 3.5 10.5t4.5 12.5t7 10t11 4q11 0 16 -9.5t0 -18.5z" />
    <glyph glyph-name="ordmasculine" unicode="&#xba;" horiz-adv-x="392" 
d="M354 328q-14 3 -26 2q14 -35 13.5 -74.5t-17.5 -70.5q-8 -18 -24 -34.5t-36 -30t-42 -21.5t-42 -8q-21 0 -39.5 9.5t-27.5 29.5q-11 23 -2 47.5t23 43.5q29 41 68 74t84 53q-5 5 -11 9.5t-13 8.5q-16 6 -30 5q-8 -1 -16 -4t-16 3q-11 7 -7 17t15 15q34 6 60.5 -6.5
t43.5 -36.5q12 4 25 5.5t24 -2.5q9 -3 12.5 -9.5t2.5 -13t-7 -10.5t-15 -1zM222 277q-13 -10 -28 -23t-27 -28.5t-20 -32.5t-7 -35q0 -17 11.5 -24t27 -7t31.5 4t25 8q32 14 54.5 39.5t26.5 61.5q2 19 -1.5 42t-13.5 43q-23 -8 -43.5 -22t-35.5 -26z" />
    <glyph glyph-name="guillemotright" unicode="&#xbb;" horiz-adv-x="403" 
d="M155 223q6 -2 28 -11.5t44 -22t35 -27t0 -26.5q-39 -38 -81 -65.5t-90 -54.5q-5 -3 -14.5 -10.5t-19.5 -12t-18.5 -4.5t-12.5 12q-3 10 4 17t17.5 12t21.5 9l17 5q41 18 78 41.5t63 60.5q-14 16 -36 25t-39 15q-9 4 -16.5 9t-3.5 16q2 8 8.5 11t14.5 1zM263 223
q6 -2 28 -11.5t44 -22t35 -27t0 -26.5q-39 -38 -81 -65.5t-90 -54.5q-5 -3 -14.5 -10.5t-19.5 -12t-18.5 -4.5t-12.5 12q-3 10 4 17t17.5 12t21.5 8l17 6q41 18 78 41.5t63 60.5q-14 16 -36 25t-39 15q-9 4 -16.5 9t-3.5 16q2 8 8.5 11t14.5 1z" />
    <glyph glyph-name="onequarter" unicode="&#xbc;" horiz-adv-x="533" 
d="M210 294q-32 -55 -62 -113t-50 -118q-3 -10 -6 -24.5t-16 -15.5q-11 -1 -17 7.5t-1 19.5q2 7 6.5 14.5t8.5 15.5l23 50l25 48q13 26 25 53t22 54q2 4 3.5 10.5t4.5 12.5t7 10t11 4q11 0 16 -9.5t0 -18.5zM27 -62q66 48 126 101l119 109l58 52l12 15l15 16.5t16 14.5t16 7
q14 2 19 -10t-5 -21l-67 -58l-107 -90l-107 -90l-59 -49l-20 -15q-5 -4 -9.5 -3t-7.5 4.5t-3.5 8t4.5 8.5zM295 2q10 -9 26.5 -2.5t34 19t32.5 27.5l21 20q15 15 29 31t28 30q9 5 20.5 2t9.5 -18q-2 -9 -11 -15.5t-16 -12.5l-30 -33l-27 -35q-14 -18 -25 -37
q-26 -37 -47.5 -76t-40.5 -80q-3 -6 -6 -16t-7.5 -20.5t-10.5 -17.5t-14 -7q-12 0 -14.5 6.5t-0.5 14.5t6.5 16t6.5 13l54 96q27 47 57 93q-22 -17 -45.5 -25.5t-43.5 6.5q-16 12 -15.5 29.5t9 36.5t21 36t20.5 27l14 18q7 9 18 11q8 2 13 -1.5t6.5 -9.5t-0.5 -12.5
t-8 -10.5q-3 -2 -16 -15.5t-26.5 -30.5t-21.5 -33t0 -24z" />
    <glyph glyph-name="onehalf" unicode="&#xbd;" horiz-adv-x="486" 
d="M209 303q-32 -55 -62 -113t-50 -118q-3 -10 -6 -24.5t-16 -15.5q-11 -1 -17 7.5t-1 19.5q2 7 6.5 14.5t8.5 15.5l24 49q11 25 24 49q13 26 25 53t22 54q2 4 3.5 10.5t4.5 12.5t7 10t11 4q11 0 16 -9.5t0 -18.5zM21 -62q66 48 126 101l119 109l58 52l12 15l15 16.5
t16 14.5t16 7q14 2 19 -10t-5 -21l-67 -58l-107 -90l-107 -90l-59 -49l-20 -15q-5 -4 -9.5 -3t-7.5 4.5t-3.5 8t4.5 8.5zM236 22q11 19 28 36t38 31t43.5 23.5t44.5 12.5q16 3 32.5 -1.5t22.5 -22.5q8 -18 -2 -35.5t-21 -31.5q-33 -38 -74 -70l-82 -60l-17 -12
q45 4 90.5 -2.5t86.5 -23.5q6 -5 8 -12t-0.5 -13t-8 -9t-14.5 0q-11 5 -19.5 11t-19.5 11q-13 5 -26 8t-26 5q-27 4 -57.5 2.5t-59.5 -9.5l-17 -12q-7 -5 -15 -11.5t-17 -12.5t-18 -11t-16 -6q-17 -5 -23 11q-4 12 7 20l18 14q18 12 38 19.5t40 12.5l37 26l35 26
q36 26 72.5 56.5t58.5 70.5q8 13 10 21t-15 9q-23 1 -45.5 -7t-40.5 -22q-8 -5 -14 -11l-14 -14q-6 -9 -9.5 -18.5t-8.5 -18.5q-5 -8 -12 -8.5t-12.5 3t-8 10.5t2.5 15z" />
    <glyph glyph-name="threequarters" unicode="&#xbe;" horiz-adv-x="608" 
d="M122 300q11 18 29 35t39.5 28t45 15.5t45.5 -1.5q20 -6 35 -23t16 -39q0 -14 -6 -26t-15.5 -22t-21.5 -17.5t-23 -13.5t-22 -10l-25 -10q13 -12 22 -27t11 -32q3 -24 -6.5 -44.5t-27 -35t-39.5 -22.5t-44 -8q-23 0 -45.5 9t-40.5 25t-28 37.5t-8 46.5q0 6 2.5 17t7 21.5
t11.5 18.5t16 8q16 0 17 -8.5t-4 -19.5t-12.5 -22t-8.5 -15q-8 -23 5 -44t33 -32q23 -11 49.5 -8.5t49.5 11.5q23 8 39 26.5t9 44.5q-5 15 -15 26.5t-24 17.5q-5 -1 -9.5 -1.5t-9.5 -0.5q-12 -1 -24 -0.5t-23 5.5t-13.5 17.5t11.5 17.5q7 3 16.5 3t19.5 -2t19.5 -5t16.5 -6
q16 3 31.5 8.5t30.5 14.5q11 7 22 17.5t16 22.5t2.5 24.5t-18.5 21.5q-14 8 -29.5 8.5t-31 -5t-28.5 -14.5t-22 -21q-3 -5 -5 -11l-4 -13q-2 -6 -5.5 -11t-10.5 -6q-11 -3 -18 8t0 21zM117 -62q66 48 126 101l119 109l58 52l12 15l15 16.5t16 14.5t16 7q14 2 19 -10t-5 -21
l-67 -58l-107 -90l-107 -90l-59 -49l-20 -15q-5 -4 -9.5 -3t-7.5 4.5t-3.5 8t4.5 8.5zM374 -22q10 -9 26.5 -2.5t34 19t32.5 27.5l21 20q15 15 29 31t28 30q9 5 20.5 2t9.5 -18q-2 -9 -11 -15.5t-16 -12.5l-30 -33l-27 -35q-14 -18 -25 -37q-26 -37 -47.5 -76t-40.5 -80
q-3 -6 -6 -16t-7.5 -20.5t-10.5 -17.5t-14 -7q-12 0 -14.5 6.5t-0.5 14.5t6.5 16t6.5 13l54 96q27 47 57 93q-22 -17 -45.5 -25.5t-43.5 6.5q-16 12 -15.5 29.5t9 36.5t21 36t20.5 27l14 18q7 9 18 11q8 2 13 -1.5t6.5 -9.5t-0.5 -12.5t-8 -10.5q-3 -2 -16 -15.5
t-26.5 -30.5t-21.5 -33t0 -24z" />
    <glyph glyph-name="questiondown" unicode="&#xbf;" horiz-adv-x="314" 
d="M237 21q-6 -16 -19 -34.5t-29 -28.5q-14 -11 -32 -19t-38.5 -11.5t-40.5 -1.5t-37 13q-21 12 -29.5 30.5t-7 38.5t11.5 39t27 33q19 15 41 21.5t44.5 9.5t45.5 5.5t44 10.5q8 3 15.5 7.5t12.5 11.5q7 9 7.5 18.5t4.5 18.5q3 8 9 10.5t11.5 0t9.5 -8t3 -12.5
q-5 -24 -17.5 -39t-29 -24t-37 -12.5t-42.5 -5.5q-18 -2 -41.5 -6t-43.5 -13.5t-33 -25.5t-11 -42q2 -23 19 -34.5t39.5 -13.5t45 3.5t35.5 16.5q6 5 10 11.5t9 13.5q5 9 6 20.5t6 19.5q5 7 12 8t12.5 -3t8 -11t-1.5 -15zM329 257q-15 0 -18 9.5t3 21t18 20.5t27 9
q15 -1 17.5 -10.5t-3.5 -20.5t-18 -20t-26 -9z" />
    <glyph glyph-name="Agrave" unicode="&#xc0;" horiz-adv-x="730" 
d="M8 25q35 17 73 28.5t76 20.5l25 39l67 91l71 88q36 42 74.5 82.5t81.5 75.5q21 17 43 32t45 27q6 3 19.5 9t27.5 9.5t26 2.5t16 -12q2 -7 -1.5 -14.5t-5.5 -13.5l-23 -47l-19 -39l-39 -78l-36 -80l-31 -72q-15 -36 -28 -74q8 0 15.5 -1t13.5 -3q12 -5 11.5 -17.5
t-12.5 -16.5q-9 -2 -19 -1t-21 3l-4 -21q-6 -21 -11.5 -44.5t-9 -47t-4.5 -46.5t3 -44l53 54q25 26 55 49q45 35 92.5 65t97.5 57q5 3 9 1.5t6.5 -5.5t2 -8.5t-5.5 -7.5l-41 -22l-52 -31q-25 -15 -49 -33q-77 -56 -139 -132q-5 -8 -10.5 -14t-16.5 -8q-14 -2 -22 4t-12.5 16
t-5.5 22t0 22q1 44 13 89t26 87q-17 1 -34 1.5t-34 0.5q-36 2 -72 0t-71 -7l-46 -7l-14 -26l-25 -48q-13 -25 -16 -51q-1 -8 -3.5 -16t-13.5 -9q-9 0 -14.5 6t-4.5 14q1 25 13 49l24 45q4 8 8 14l9 14q-14 -3 -26.5 -6.5t-26.5 -8.5q-18 -5 -34.5 -12t-33.5 -15
q-5 -3 -9.5 -1t-6 6t-0.5 8.5t6 7.5zM446 102q26 69 54 135l58 133l27 61q13 30 25 62q-23 -4 -46 -15.5t-44 -26.5t-40 -31l-34 -30q-84 -77 -156 -170q-51 -68 -97 -138l83 12q37 3 74 4.5t75 -0.5h20q0 3 1 4zM564 643q3 -5 11.5 -11t19 -11.5t21.5 -10.5t19 -8
q14 -5 30 -8t27 -11q8 -2 9.5 -8t-3.5 -11q-5 -7 -13 -4t-14 5l-64 20q-32 10 -59 28q-5 4 -10.5 9t-7.5 13q-1 7 3 11.5t10 6t12 -0.5t9 -9z" />
    <glyph glyph-name="Aacute" unicode="&#xc1;" horiz-adv-x="730" 
d="M8 25q35 17 73 28.5t76 20.5l25 39l67 91l71 88q36 42 74.5 82.5t81.5 75.5q21 17 43 32t45 27q6 3 19.5 9t27.5 9.5t26 2.5t16 -12q2 -7 -1.5 -14.5t-5.5 -13.5l-23 -47l-19 -39l-39 -78l-36 -80l-31 -72q-15 -36 -28 -74q8 0 15.5 -1t13.5 -3q12 -5 11.5 -17.5
t-12.5 -16.5q-9 -2 -19 -1t-21 3l-4 -21q-6 -21 -11.5 -44.5t-9 -47t-4.5 -46.5t3 -44l53 54q25 26 55 49q45 35 92.5 65t97.5 57q5 3 9 1.5t6.5 -5.5t2 -8.5t-5.5 -7.5l-41 -22l-52 -31q-25 -15 -49 -33q-77 -56 -139 -132q-5 -8 -10.5 -14t-16.5 -8q-14 -2 -22 4t-12.5 16
t-5.5 22t0 22q1 44 13 89t26 87q-17 1 -34 1.5t-34 0.5q-36 2 -72 0t-71 -7l-46 -7l-14 -26l-25 -48q-13 -25 -16 -51q-1 -8 -3.5 -16t-13.5 -9q-9 0 -14.5 6t-4.5 14q1 25 13 49l24 45q4 8 8 14l9 14q-14 -3 -26.5 -6.5t-26.5 -8.5q-18 -5 -34.5 -12t-33.5 -15
q-5 -3 -9.5 -1t-6 6t-0.5 8.5t6 7.5zM446 102q26 69 54 135l58 133l27 61q13 30 25 62q-23 -4 -46 -15.5t-44 -26.5t-40 -31l-34 -30q-84 -77 -156 -170q-51 -68 -97 -138l83 12q37 3 74 4.5t75 -0.5h20q0 3 1 4zM753 635q-7 -15 -28 -23.5t-37 -13.5q-14 -5 -27 -8l-27 -8
q-4 -1 -10.5 -3.5t-14 -4.5t-14.5 -2.5t-11 2.5q-8 8 1 15t24 12t30 8t18 5l17 7q10 4 19.5 9t17.5 10t10 10q3 8 10 9.5t13 -1t9.5 -9t-0.5 -14.5z" />
    <glyph glyph-name="Acircumflex" unicode="&#xc2;" horiz-adv-x="730" 
d="M8 25q35 17 73 28.5t76 20.5l25 39l67 91l71 88q36 42 74.5 82.5t81.5 75.5q21 17 43 32t45 27q6 3 19.5 9t27.5 9.5t26 2.5t16 -12q2 -7 -1.5 -14.5t-5.5 -13.5l-23 -47l-19 -39l-39 -78l-36 -80l-31 -72q-15 -36 -28 -74q8 0 15.5 -1t13.5 -3q12 -5 11.5 -17.5
t-12.5 -16.5q-9 -2 -19 -1t-21 3l-4 -21q-6 -21 -11.5 -44.5t-9 -47t-4.5 -46.5t3 -44l53 54q25 26 55 49q45 35 92.5 65t97.5 57q5 3 9 1.5t6.5 -5.5t2 -8.5t-5.5 -7.5l-41 -22l-52 -31q-25 -15 -49 -33q-77 -56 -139 -132q-5 -8 -10.5 -14t-16.5 -8q-14 -2 -22 4t-12.5 16
t-5.5 22t0 22q1 44 13 89t26 87q-17 1 -34 1.5t-34 0.5q-36 2 -72 0t-71 -7l-46 -7l-14 -26l-25 -48q-13 -25 -16 -51q-1 -8 -3.5 -16t-13.5 -9q-9 0 -14.5 6t-4.5 14q1 25 13 49l24 45q4 8 8 14l9 14q-14 -3 -26.5 -6.5t-26.5 -8.5q-18 -5 -34.5 -12t-33.5 -15
q-5 -3 -9.5 -1t-6 6t-0.5 8.5t6 7.5zM446 102q26 69 54 135l58 133l27 61q13 30 25 62q-23 -4 -46 -15.5t-44 -26.5t-40 -31l-34 -30q-84 -77 -156 -170q-51 -68 -97 -138l83 12q37 3 74 4.5t75 -0.5h20q0 3 1 4zM556 595q21 8 40 18t38 22q5 3 13.5 10.5t17.5 14.5
t17.5 9.5t14.5 -3.5q11 -11 16 -31t10 -34q2 -5 6 -13.5t3 -15.5q-2 -14 -12.5 -9t-14.5 13l-29 53q-21 -9 -41.5 -21t-39.5 -26q-4 -3 -8.5 -8t-10 -8.5t-11 -5t-11.5 1.5q-11 5 -10 17t12 16z" />
    <glyph glyph-name="Atilde" unicode="&#xc3;" horiz-adv-x="730" 
d="M8 25q35 17 73 28.5t76 20.5l25 39l67 91l71 88q36 42 74.5 82.5t81.5 75.5q21 17 43 32t45 27q6 3 19.5 9t27.5 9.5t26 2.5t16 -12q2 -7 -1.5 -14.5t-5.5 -13.5l-23 -47l-19 -39l-39 -78l-36 -80l-31 -72q-15 -36 -28 -74q8 0 15.5 -1t13.5 -3q12 -5 11.5 -17.5
t-12.5 -16.5q-9 -2 -19 -1t-21 3l-4 -21q-6 -21 -11.5 -44.5t-9 -47t-4.5 -46.5t3 -44l53 54q25 26 55 49q45 35 92.5 65t97.5 57q5 3 9 1.5t6.5 -5.5t2 -8.5t-5.5 -7.5l-41 -22l-52 -31q-25 -15 -49 -33q-77 -56 -139 -132q-5 -8 -10.5 -14t-16.5 -8q-14 -2 -22 4t-12.5 16
t-5.5 22t0 22q1 44 13 89t26 87q-17 1 -34 1.5t-34 0.5q-36 2 -72 0t-71 -7l-46 -7l-14 -26l-25 -48q-13 -25 -16 -51q-1 -8 -3.5 -16t-13.5 -9q-9 0 -14.5 6t-4.5 14q1 25 13 49l24 45q4 8 8 14l9 14q-14 -3 -26.5 -6.5t-26.5 -8.5q-18 -5 -34.5 -12t-33.5 -15
q-5 -3 -9.5 -1t-6 6t-0.5 8.5t6 7.5zM446 102q26 69 54 135l58 133l27 61q13 30 25 62q-23 -4 -46 -15.5t-44 -26.5t-40 -31l-34 -30q-84 -77 -156 -170q-51 -68 -97 -138l83 12q37 3 74 4.5t75 -0.5h20q0 3 1 4zM547 612l37 30q20 15 43 20q14 3 21.5 -2t12 -14t6.5 -19.5
t5 -19.5t11.5 -7t18 9t18.5 16l12 11q5 5 11 12t15 6q11 -1 15.5 -11.5t-3.5 -18.5q-7 -7 -16.5 -14.5t-21 -14.5t-23 -12t-21.5 -8q-14 -3 -22 2t-12.5 14t-6.5 20.5t-5 20.5q-3 8 -12 5t-18.5 -10.5t-18.5 -15.5l-11 -12l-14 -15q-7 -8 -18 -3q-10 5 -10.5 14.5t7.5 16.5z
" />
    <glyph glyph-name="Adieresis" unicode="&#xc4;" horiz-adv-x="730" 
d="M8 25q35 17 73 28.5t76 20.5l25 39l67 91l71 88q36 42 74.5 82.5t81.5 75.5q21 17 43 32t45 27q6 3 19.5 9t27.5 9.5t26 2.5t16 -12q2 -7 -1.5 -14.5t-5.5 -13.5l-23 -47l-19 -39l-39 -78l-36 -80l-31 -72q-15 -36 -28 -74q8 0 15.5 -1t13.5 -3q12 -5 11.5 -17.5
t-12.5 -16.5q-9 -2 -19 -1t-21 3l-4 -21q-6 -21 -11.5 -44.5t-9 -47t-4.5 -46.5t3 -44l53 54q25 26 55 49q45 35 92.5 65t97.5 57q5 3 9 1.5t6.5 -5.5t2 -8.5t-5.5 -7.5l-41 -22l-52 -31q-25 -15 -49 -33q-77 -56 -139 -132q-5 -8 -10.5 -14t-16.5 -8q-14 -2 -22 4t-12.5 16
t-5.5 22t0 22q1 44 13 89t26 87q-17 1 -34 1.5t-34 0.5q-36 2 -72 0t-71 -7l-46 -7l-14 -26l-25 -48q-13 -25 -16 -51q-1 -8 -3.5 -16t-13.5 -9q-9 0 -14.5 6t-4.5 14q1 25 13 49l24 45q4 8 8 14l9 14q-14 -3 -26.5 -6.5t-26.5 -8.5q-18 -5 -34.5 -12t-33.5 -15
q-5 -3 -9.5 -1t-6 6t-0.5 8.5t6 7.5zM446 102q26 69 54 135l58 133l27 61q13 30 25 62q-23 -4 -46 -15.5t-44 -26.5t-40 -31l-34 -30q-84 -77 -156 -170q-51 -68 -97 -138l83 12q37 3 74 4.5t75 -0.5h20q0 3 1 4zM738 634l-19 -26q-10 -15 -21 -21q-4 -5 -9 -4t-8 4.5
t-3.5 8.5t4.5 9q13 10 22.5 24t17.5 29q3 5 6 12t6.5 14t8.5 11.5t12 4.5q11 -2 15.5 -11.5t-2.5 -17.5zM681 658q-8 -17 -20 -33t-26 -29q-5 -3 -11 -8t-14 -2q-6 3 -7 6.5t1 7t5.5 6.5t6.5 5q8 5 13.5 13.5t9.5 16.5t4.5 18.5t6.5 18.5q5 7 12 8t12.5 -3t8 -11t-1.5 -14z
" />
    <glyph glyph-name="Aring" unicode="&#xc5;" horiz-adv-x="730" 
d="M8 25q35 17 73 28.5t76 20.5l25 39l67 91l71 88q36 42 74.5 82.5t81.5 75.5q21 17 43 32t45 27q6 3 19.5 9t27.5 9.5t26 2.5t16 -12q2 -7 -1.5 -14.5t-5.5 -13.5l-23 -47l-19 -39l-39 -78l-36 -80l-31 -72q-15 -36 -28 -74q8 0 15.5 -1t13.5 -3q12 -5 11.5 -17.5
t-12.5 -16.5q-9 -2 -19 -1t-21 3l-4 -21q-6 -21 -11.5 -44.5t-9 -47t-4.5 -46.5t3 -44l53 54q25 26 55 49q45 35 92.5 65t97.5 57q5 3 9 1.5t6.5 -5.5t2 -8.5t-5.5 -7.5l-41 -22l-52 -31q-25 -15 -49 -33q-77 -56 -139 -132q-5 -8 -10.5 -14t-16.5 -8q-14 -2 -22 4t-12.5 16
t-5.5 22t0 22q1 44 13 89t26 87q-17 1 -34 1.5t-34 0.5q-36 2 -72 0t-71 -7l-46 -7l-14 -26l-25 -48q-13 -25 -16 -51q-1 -8 -3.5 -16t-13.5 -9q-9 0 -14.5 6t-4.5 14q1 25 13 49l24 45q4 8 8 14l9 14q-14 -3 -26.5 -6.5t-26.5 -8.5q-18 -5 -34.5 -12t-33.5 -15
q-5 -3 -9.5 -1t-6 6t-0.5 8.5t6 7.5zM446 102q26 69 54 135l58 133l27 61q13 30 25 62q-23 -4 -46 -15.5t-44 -26.5t-40 -31l-34 -30q-84 -77 -156 -170q-51 -68 -97 -138l83 12q37 3 74 4.5t75 -0.5h20q0 3 1 4zM654 580q-17 5 -22.5 19.5t-3 31.5t12.5 34t24.5 28t32 12.5
t35.5 -11.5q21 -17 19.5 -40t-16.5 -42t-38 -29.5t-44 -2.5zM661 601q10 -3 22.5 4t22 18t12 22.5t-6.5 18.5q-12 10 -25 3t-22 -20.5t-11.5 -27.5t8.5 -18z" />
    <glyph glyph-name="AE" unicode="&#xc6;" horiz-adv-x="835" 
d="M612 268q51 11 101 38t81 72q5 7 10.5 18t9 22.5t2.5 23t-8 20.5q-8 10 -20 13t-25.5 2.5t-27 -3.5t-23.5 -6q-53 -15 -99 -45t-83 -71q-6 -6 -17 -20.5t-23.5 -33t-23 -39t-14.5 -38t1 -30t24 -15.5q22 -3 40 5t38 10q8 2 15.5 -4t5.5 -15q-2 -12 -17 -19t-24 -13
q-21 -13 -43 -28.5t-42.5 -33.5t-37.5 -39.5t-26 -45.5q-10 -26 3 -37.5t34.5 -15t46 -1t37.5 5.5q55 11 106.5 33.5t101.5 47.5l96 48q7 3 16 9t17 6q9 -1 10.5 -5t-0.5 -8.5t-6.5 -8.5t-7.5 -6q-17 -7 -34 -15t-34 -17l-123 -63q-63 -33 -130 -51q-29 -9 -62 -11.5
t-63 8.5q-29 11 -39.5 34.5t1.5 52.5q8 19 21 35.5t28 32.5q-11 0 -20.5 0.5t-19.5 0.5q-36 2 -72 0t-71 -7l-46 -7l-14 -26l-25 -48q-13 -25 -16 -51q-1 -8 -3.5 -16t-13.5 -9q-9 0 -14.5 6t-4.5 14q1 25 14 49l23 45q4 8 8 14l9 14q-14 -3 -26.5 -6.5t-26.5 -8.5
q-18 -5 -34.5 -12t-33.5 -15q-5 -3 -9.5 -1t-6 6t-0.5 8.5t6 7.5q35 17 73 28.5t76 20.5l25 39l67 91l71 88q36 42 74.5 82.5t81.5 75.5q21 17 43 32t45 27q6 3 19.5 9t27.5 9.5t26 2.5t16 -12q2 -7 -1.5 -14.5t-5.5 -13.5l-10 -23q17 10 34 18l34 14q16 6 35.5 9.5t39 2.5
t36 -9t26.5 -26q10 -17 9 -34.5t-8 -35t-18 -33t-23 -27.5q-26 -29 -57.5 -50t-65.5 -38q-13 -6 -30 -15t-32 -10q-8 -1 -12.5 3.5t-5.5 11t2.5 12.5t11.5 8zM276 94q37 3 74 3.5t75 0.5h12l53 45q-16 1 -29.5 6t-24.5 18q-12 15 -12.5 33t5 36.5t15 35.5t18.5 30
q24 38 56 72t70 62l22 57q-23 -4 -46 -15.5t-44 -26.5t-39 -31l-35 -30q-84 -77 -156 -170q-51 -68 -97 -138z" />
    <glyph glyph-name="Ccedilla" unicode="&#xc7;" horiz-adv-x="500" 
d="M277 130q20 15 37 36t31.5 45t26 48.5t20.5 47.5q11 25 17 52t4 54q-2 29 -20.5 36t-44.5 2q-27 -5 -51.5 -18.5t-46.5 -32.5t-41.5 -40.5t-35.5 -41.5q-36 -45 -65.5 -93.5t-49.5 -102.5q-8 -18 -15.5 -45t-8.5 -54t8.5 -49t36.5 -30t55.5 -6t57.5 9.5t57 18.5l52 21
l52 23l51 26l52 25l13 7l16 10q8 5 16 8t14 3q9 -1 10 -10.5t-7 -12.5q-8 -8 -21 -11.5t-23 -8.5l-55 -29l-57 -28l-93 -46q-48 -23 -100 -34q-11 -2 -21 -3l-22 -2l-24 -30q21 -5 41.5 -15t22.5 -28q1 -9 -3 -16.5t-11 -13t-14.5 -9.5t-14.5 -7q-35 -13 -72 -19l-73 -10
q-13 -2 -19 10t3 20q8 8 23.5 6.5t25.5 -0.5q13 0 31.5 1t37 4t34.5 9t26 17q5 6 -5 10t-25 7t-28.5 4.5t-15.5 1.5q-12 5 -12.5 12t4 14.5t11.5 13.5l13 11l10 9q-29 5 -52.5 21.5t-31.5 50.5q-5 24 -2.5 50t10 51.5t18 49.5t21.5 45q50 102 123 187l33 37q17 19 36.5 35.5
t41 29.5t45.5 19q21 7 46.5 6.5t43.5 -16.5t21 -38.5t-1 -44.5q-9 -53 -33 -103t-50 -96l-28 -46q-14 -22 -32 -42q-8 -5 -15.5 -3.5t-12 6.5t-4.5 12t8 13z" />
    <glyph glyph-name="Egrave" unicode="&#xc8;" horiz-adv-x="490" 
d="M268 268q51 11 101 38t81 72q5 7 10.5 18t9 22.5t2.5 23t-8 20.5q-8 10 -20 13t-25.5 2.5t-27 -3.5t-23.5 -6q-53 -15 -99 -45t-83 -71l-16 -20q-12 -15 -24.5 -33.5t-23 -39t-14.5 -38t1 -30t24 -15.5q22 -3 40 5t38 10q8 2 15.5 -4t5.5 -15q-2 -12 -17 -19t-24 -13
q-21 -13 -43 -28.5t-42.5 -33.5t-37.5 -39.5t-26 -45.5q-10 -26 3 -37.5t34.5 -15t46 -1t37.5 5.5q55 11 106.5 33.5t101.5 47.5l96 48q7 3 16 9t17 6q9 -1 10.5 -5t-0.5 -8.5t-6.5 -8.5t-7.5 -6q-17 -7 -34 -15t-34 -17l-123 -63q-63 -33 -130 -51q-29 -9 -62 -11.5
t-63 8.5q-29 11 -39.5 34.5t1.5 52.5t35 53l44 44l55 47q-16 1 -29.5 6t-24.5 18q-12 15 -12.5 33t5 36.5t15 35.5t18.5 30q42 66 105.5 118.5t136.5 78.5q16 6 35.5 9.5t39 2.5t36 -9t26.5 -26q10 -17 9 -34.5t-8 -35t-18 -33t-23 -27.5q-26 -29 -57.5 -50t-65.5 -38
q-13 -6 -30 -15t-32 -10q-8 -1 -12.5 3.5t-5.5 11t2.5 12.5t11.5 8zM353 617q3 -5 11.5 -11t19 -11.5t21.5 -10.5t19 -8q14 -5 30 -8t27 -11q8 -2 9.5 -8t-3.5 -11q-5 -7 -13 -4t-14 5l-63 20q-33 10 -60 28q-5 4 -10.5 9t-7.5 13q-1 7 3 11.5t10 6t12 -0.5t9 -9z" />
    <glyph glyph-name="Eacute" unicode="&#xc9;" horiz-adv-x="490" 
d="M268 268q51 11 101 38t81 72q5 7 10.5 18t9 22.5t2.5 23t-8 20.5q-8 10 -20 13t-25.5 2.5t-27 -3.5t-23.5 -6q-53 -15 -99 -45t-83 -71l-16 -20q-12 -15 -24.5 -33.5t-23 -39t-14.5 -38t1 -30t24 -15.5q22 -3 40 5t38 10q8 2 15.5 -4t5.5 -15q-2 -12 -17 -19t-24 -13
q-21 -13 -43 -28.5t-42.5 -33.5t-37.5 -39.5t-26 -45.5q-10 -26 3 -37.5t34.5 -15t46 -1t37.5 5.5q55 11 106.5 33.5t101.5 47.5l96 48q7 3 16 9t17 6q9 -1 10.5 -5t-0.5 -8.5t-6.5 -8.5t-7.5 -6q-17 -7 -34 -15t-34 -17l-123 -63q-63 -33 -130 -51q-29 -9 -62 -11.5
t-63 8.5q-29 11 -39.5 34.5t1.5 52.5t35 53l44 44l55 47q-16 1 -29.5 6t-24.5 18q-12 15 -12.5 33t5 36.5t15 35.5t18.5 30q42 66 105.5 118.5t136.5 78.5q16 6 35.5 9.5t39 2.5t36 -9t26.5 -26q10 -17 9 -34.5t-8 -35t-18 -33t-23 -27.5q-26 -29 -57.5 -50t-65.5 -38
q-13 -6 -30 -15t-32 -10q-8 -1 -12.5 3.5t-5.5 11t2.5 12.5t11.5 8zM533 606q-7 -15 -28 -23.5t-37 -13.5q-14 -5 -27 -8l-27 -8q-4 -1 -10.5 -3.5t-14 -4.5t-14.5 -2.5t-11 2.5q-8 8 1 15t24 12t30 8t18 5l17 7q10 4 19.5 9t17.5 10t10 10q3 8 10 9.5t13 -1t9.5 -9
t-0.5 -14.5z" />
    <glyph glyph-name="Ecircumflex" unicode="&#xca;" horiz-adv-x="490" 
d="M268 268q51 11 101 38t81 72q5 7 10.5 18t9 22.5t2.5 23t-8 20.5q-8 10 -20 13t-25.5 2.5t-27 -3.5t-23.5 -6q-53 -15 -99 -45t-83 -71l-16 -20q-12 -15 -24.5 -33.5t-23 -39t-14.5 -38t1 -30t24 -15.5q22 -3 40 5t38 10q8 2 15.5 -4t5.5 -15q-2 -12 -17 -19t-24 -13
q-21 -13 -43 -28.5t-42.5 -33.5t-37.5 -39.5t-26 -45.5q-10 -26 3 -37.5t34.5 -15t46 -1t37.5 5.5q55 11 106.5 33.5t101.5 47.5l96 48q7 3 16 9t17 6q9 -1 10.5 -5t-0.5 -8.5t-6.5 -8.5t-7.5 -6q-17 -7 -34 -15t-34 -17l-123 -63q-63 -33 -130 -51q-29 -9 -62 -11.5
t-63 8.5q-29 11 -39.5 34.5t1.5 52.5t35 53l44 44l55 47q-16 1 -29.5 6t-24.5 18q-12 15 -12.5 33t5 36.5t15 35.5t18.5 30q42 66 105.5 118.5t136.5 78.5q16 6 35.5 9.5t39 2.5t36 -9t26.5 -26q10 -17 9 -34.5t-8 -35t-18 -33t-23 -27.5q-26 -29 -57.5 -50t-65.5 -38
q-13 -6 -30 -15t-32 -10q-8 -1 -12.5 3.5t-5.5 11t2.5 12.5t11.5 8zM342 576q21 8 40 18t38 22q5 3 13.5 10.5t17.5 14.5t17.5 9.5t14.5 -3.5q11 -11 16 -31t10 -34q2 -5 6 -13.5t3 -15.5q-2 -14 -12.5 -9t-14.5 13l-29 53q-21 -9 -41.5 -21t-39.5 -26q-4 -3 -8.5 -8
t-10 -8.5t-11 -5t-11.5 1.5q-11 5 -10 17t12 16z" />
    <glyph glyph-name="Edieresis" unicode="&#xcb;" horiz-adv-x="490" 
d="M268 268q51 11 101 38t81 72q5 7 10.5 18t9 22.5t2.5 23t-8 20.5q-8 10 -20 13t-25.5 2.5t-27 -3.5t-23.5 -6q-53 -15 -99 -45t-83 -71l-16 -20q-12 -15 -24.5 -33.5t-23 -39t-14.5 -38t1 -30t24 -15.5q22 -3 40 5t38 10q8 2 15.5 -4t5.5 -15q-2 -12 -17 -19t-24 -13
q-21 -13 -43 -28.5t-42.5 -33.5t-37.5 -39.5t-26 -45.5q-10 -26 3 -37.5t34.5 -15t46 -1t37.5 5.5q55 11 106.5 33.5t101.5 47.5l96 48q7 3 16 9t17 6q9 -1 10.5 -5t-0.5 -8.5t-6.5 -8.5t-7.5 -6q-17 -7 -34 -15t-34 -17l-123 -63q-63 -33 -130 -51q-29 -9 -62 -11.5
t-63 8.5q-29 11 -39.5 34.5t1.5 52.5t35 53l44 44l55 47q-16 1 -29.5 6t-24.5 18q-12 15 -12.5 33t5 36.5t15 35.5t18.5 30q42 66 105.5 118.5t136.5 78.5q16 6 35.5 9.5t39 2.5t36 -9t26.5 -26q10 -17 9 -34.5t-8 -35t-18 -33t-23 -27.5q-26 -29 -57.5 -50t-65.5 -38
q-13 -6 -30 -15t-32 -10q-8 -1 -12.5 3.5t-5.5 11t2.5 12.5t11.5 8zM506 600l-18 -26q-11 -15 -22 -21q-4 -5 -9 -4t-8 4.5t-3.5 8.5t4.5 9q13 10 22.5 24t17.5 29q3 5 6 12t6.5 14t8.5 11.5t12 4.5q11 -2 15.5 -11.5t-2.5 -17.5zM449 624q-8 -17 -20 -33t-26 -29
q-5 -3 -11 -8t-14 -2q-6 3 -7 6.5t1 7t5.5 6.5t6.5 5q8 5 13.5 13.5t9.5 16.5t4.5 18.5t6.5 18.5q5 7 12 8t12.5 -3t8 -11t-1.5 -14z" />
    <glyph glyph-name="Igrave" unicode="&#xcc;" horiz-adv-x="413" 
d="M184 448q32 -3 64 -1t63 13h1l5 9l7 9l17 23q11 15 23.5 27.5t27 20t28.5 2.5q19 -6 18.5 -18t-9.5 -25.5t-22.5 -25t-20.5 -15.5q-11 -8 -24 -13l-24 -10q-16 -22 -30 -44l-31 -45l-127 -199l-29 -48q-15 -24 -26 -49l-9 -18q-6 -12 -11.5 -26t-7.5 -26t4 -18
q7 -6 34 -1.5t58 12t58 16t35 10.5q26 9 51 21t49 26l50 28q5 2 10 4.5t10 -1.5q6 -3 5.5 -10t-5.5 -10l-92 -48q-46 -23 -95 -40q-35 -12 -69 -25.5t-72 -18.5q-19 -2 -37.5 3.5t-24.5 25.5q-4 12 -2.5 24t6 24t10.5 23.5t12 21.5q24 43 51 84l53 81q33 51 62.5 103.5
t61.5 103.5q-14 -3 -27 -5.5t-27 -4.5q-6 -1 -14.5 -3t-17.5 -3.5t-17.5 -1.5t-13.5 4q-6 4 -7.5 10t0.5 11.5t6.5 9t11.5 3.5zM335 661q3 -5 11.5 -11t19 -11.5t21.5 -10.5t19 -8q14 -5 30 -8t27 -11q8 -2 9.5 -8t-3.5 -11q-5 -7 -13 -4t-14 5l-64 20q-32 10 -59 28
q-5 4 -10.5 9t-7.5 13q-1 7 3 11.5t10 6t12 -0.5t9 -9zM395 510q-14 -9 -24 -24q7 5 13.5 11.5t10.5 12.5z" />
    <glyph glyph-name="Iacute" unicode="&#xcd;" horiz-adv-x="413" 
d="M184 448q32 -3 64 -1t63 13h1l5 9l7 9l17 23q11 15 23.5 27.5t27 20t28.5 2.5q19 -6 18.5 -18t-9.5 -25.5t-22.5 -25t-20.5 -15.5q-11 -8 -24 -13l-24 -10q-16 -22 -30 -44l-31 -45l-127 -199l-29 -48q-15 -24 -26 -49l-9 -18q-6 -12 -11.5 -26t-7.5 -26t4 -18
q7 -6 34 -1.5t58 12t58 16t35 10.5q26 9 51 21t49 26l50 28q5 2 10 4.5t10 -1.5q6 -3 5.5 -10t-5.5 -10l-92 -48q-46 -23 -95 -40q-35 -12 -69 -25.5t-72 -18.5q-19 -2 -37.5 3.5t-24.5 25.5q-4 12 -2.5 24t6 24t10.5 23.5t12 21.5q24 43 51 84l53 81q33 51 62.5 103.5
t61.5 103.5q-14 -3 -27 -5.5t-27 -4.5q-6 -1 -14.5 -3t-17.5 -3.5t-17.5 -1.5t-13.5 4q-6 4 -7.5 10t0.5 11.5t6.5 9t11.5 3.5zM497 643q-7 -15 -28 -23.5t-37 -13.5q-14 -5 -27 -9l-27 -7q-4 -1 -10.5 -3.5t-14 -4.5t-14.5 -2.5t-11 2.5q-8 8 1 15t24 12t30 8t18 5l17 7
q10 4 19.5 9t17.5 10t10 10q3 8 10 9.5t13 -1t9.5 -9t-0.5 -14.5zM395 510q-14 -9 -24 -24q7 5 13.5 11.5t10.5 12.5z" />
    <glyph glyph-name="Icircumflex" unicode="&#xce;" horiz-adv-x="413" 
d="M184 448q32 -3 64 -1t63 13h1l5 9l7 9l17 23q11 15 23.5 27.5t27 20t28.5 2.5q19 -6 18.5 -18t-9.5 -25.5t-22.5 -25t-20.5 -15.5q-11 -8 -24 -13l-24 -10q-16 -22 -30 -44l-31 -45l-127 -199l-29 -48q-15 -24 -26 -49l-9 -18q-6 -12 -11.5 -26t-7.5 -26t4 -18
q7 -6 34 -1.5t58 12t58 16t35 10.5q26 9 51 21t49 26l50 28q5 2 10 4.5t10 -1.5q6 -3 5.5 -10t-5.5 -10l-92 -48q-46 -23 -95 -40q-35 -12 -69 -25.5t-72 -18.5q-19 -2 -37.5 3.5t-24.5 25.5q-4 12 -2.5 24t6 24t10.5 23.5t12 21.5q24 43 51 84l53 81q33 51 62.5 103.5
t61.5 103.5q-14 -3 -27 -5.5t-27 -4.5q-6 -1 -14.5 -3t-17.5 -3.5t-17.5 -1.5t-13.5 4q-6 4 -7.5 10t0.5 11.5t6.5 9t11.5 3.5zM328 612q21 8 40 18t38 22q5 3 13.5 10.5t17.5 14.5t17.5 9.5t14.5 -3.5q11 -11 16 -31t10 -34q2 -5 6 -13.5t3 -15.5q-2 -14 -12.5 -9t-14.5 13
l-29 53q-21 -9 -41.5 -21t-39.5 -26q-4 -3 -8.5 -8t-10 -8.5t-11 -5t-11.5 1.5q-11 5 -10 17t12 16zM395 510q-14 -9 -24 -24q7 5 13.5 11.5t10.5 12.5z" />
    <glyph glyph-name="Idieresis" unicode="&#xcf;" horiz-adv-x="413" 
d="M184 448q32 -3 64 -1t63 13h1l5 9l7 9l17 23q11 15 23.5 27.5t27 20t28.5 2.5q19 -6 18.5 -18t-9.5 -25.5t-22.5 -25t-20.5 -15.5q-11 -8 -24 -13l-24 -10q-16 -22 -30 -44l-31 -45l-127 -199l-29 -48q-15 -24 -26 -49l-9 -18q-6 -12 -11.5 -26t-7.5 -26t4 -18
q7 -6 34 -1.5t58 12t58 16t35 10.5q26 9 51 21t49 26l50 28q5 2 10 4.5t10 -1.5q6 -3 5.5 -10t-5.5 -10l-92 -48q-46 -23 -95 -40q-35 -12 -69 -25.5t-72 -18.5q-19 -2 -37.5 3.5t-24.5 25.5q-4 12 -2.5 24t6 24t10.5 23.5t12 21.5q24 43 51 84l53 81q33 51 62.5 103.5
t61.5 103.5q-14 -3 -27 -5.5t-27 -4.5q-6 -1 -14.5 -3t-17.5 -3.5t-17.5 -1.5t-13.5 4q-6 4 -7.5 10t0.5 11.5t6.5 9t11.5 3.5zM523 640l-19 -26q-10 -15 -21 -21q-4 -5 -9 -4t-8 4.5t-3.5 8.5t4.5 9q13 10 22.5 24t17.5 29q3 5 6 12t6.5 14t8.5 11.5t12 4.5
q11 -2 15.5 -11.5t-2.5 -17.5zM466 664q-8 -17 -20 -33t-26 -29q-5 -3 -11 -8t-14 -2q-6 3 -7 6.5t1 7t5.5 6.5t6.5 5q8 5 13.5 13.5t9.5 16.5t4.5 18.5t6.5 18.5q5 7 12 8t12.5 -3t8 -11t-1.5 -14zM395 510q-14 -9 -24 -24q7 5 13.5 11.5t10.5 12.5z" />
    <glyph glyph-name="Eth" unicode="&#xd0;" horiz-adv-x="673" 
d="M184 179q20 -2 41 -2.5t42 1.5q14 30 30 59l33 58q15 27 32 53l35 52q-52 -20 -96 -44t-83 -54q-9 -7 -17.5 -14.5t-16.5 -15.5q-8 -7 -15.5 -17t-16.5 -15q-7 -4 -13 -2t-10 7.5t-3.5 12t6.5 11.5q42 37 89.5 67t97.5 55q26 13 53 24.5t54 21.5l38 43q18 19 38.5 37
t44.5 27q6 2 17.5 4t22 1t17.5 -6.5t3 -18.5q-2 -7 -9 -10t-15 0q-9 4 -19 2t-20 -7t-19 -12l-15 -12q-11 -8 -20 -17l-18 -18q14 4 29 6.5t31 4.5q25 3 53 2t55 -8.5t49.5 -22.5t35.5 -40q12 -23 11 -48.5t-9.5 -51t-22 -48.5t-27.5 -42q-66 -90 -160.5 -153t-200.5 -92
q-44 -11 -87 -18q2 -12 6 -21.5t13 -17.5q8 -7 7 -14t-7 -11t-14.5 -3.5t-15.5 9.5q-9 12 -13.5 26t-6.5 29q-28 -2 -56.5 -2.5t-57.5 1.5q-7 0 -20.5 0.5t-27 3t-22.5 8.5t-7 17q1 8 7.5 12t14.5 2q16 -5 32 -8t33 -5q25 -4 51 -4.5t52 1.5q2 34 12.5 68t20.5 61l12 31
q6 16 14 32q-16 0 -32 0.5t-33 0.5q-5 0 -11 1t-8 6q-4 6 0 12t12 5zM439 414q-42 -54 -73.5 -103t-57.5 -99l-15 -32l16 2q8 1 16 3q16 2 35 7.5t36 3.5q13 -2 15.5 -15t-9.5 -19q-12 -8 -31.5 -6.5t-33.5 0.5t-28.5 -1.5t-28.5 -0.5q-17 -40 -31 -81.5t-19 -83.5
q-1 -5 -1.5 -11t-0.5 -14q63 8 124 28.5t116 54.5q42 26 80.5 58t70.5 70q14 17 28.5 37t26 41.5t19 44.5t7.5 46q0 22 -11 37.5t-28 26t-37 16t-38 7.5q-38 2 -74.5 -2.5t-72.5 -14.5z" />
    <glyph glyph-name="Ntilde" unicode="&#xd1;" 
d="M16 336q60 46 122.5 89t133.5 73q13 6 30 12t34.5 9t34.5 1.5t31 -10.5q15 -11 19 -26t0.5 -31.5t-11 -33t-14.5 -28.5q-18 -29 -40 -56l-44 -54l-46 -63l-46 -63l-69 -94l70 60l71 59q74 60 153 117t166 99q18 9 36.5 16.5t38.5 9.5q8 1 15.5 -0.5t12.5 -5t5.5 -9.5
t-5.5 -15q-10 -14 -25 -26t-28 -26q-46 -52 -88 -106t-71 -114l-14 -31q-9 -18 -15 -36.5t-7 -34t7 -24.5q9 -9 24.5 -8t32.5 7t34 13.5t28 11.5q38 14 76 31.5t75 36.5q6 4 12 0.5t5 -10.5q0 -8 -9 -12t-14 -6l-84 -40l-76 -37q-38 -19 -80 -24q-28 -3 -41.5 6t-17.5 25
t0 37t11.5 42t16.5 39.5t15 29.5q37 64 81 126t94 120q-12 -4 -25 -10l-23 -11q-28 -13 -55 -27.5t-53 -31.5q-48 -30 -94 -64t-90 -70q-47 -36 -89.5 -74.5t-83.5 -79.5q-21 -20 -40 -41l-38 -44q-7 -7 -14.5 -19.5t-18.5 -15.5t-18.5 7t-1.5 20q5 10 14.5 20t16.5 19l9 14
l17 22l32 42l53 70l67 90l57 77q29 38 56 78l17 24q12 18 22.5 37.5t15 38t-5.5 27.5q-6 5 -15 6.5t-19.5 0.5t-20.5 -3.5t-16 -3.5q-44 -11 -85 -31q-38 -18 -71.5 -42t-65.5 -51l-32 -28q-6 -6 -13 -14t-15 -10q-14 -2 -19.5 10.5t5.5 21.5zM486 502l38 29q19 16 42 21
q14 3 21.5 -2t12 -14t6.5 -19.5t5 -19.5t11.5 -7t18 9t18.5 15l12 12q5 5 11 12t15 6q11 -1 15.5 -11.5t-3.5 -18.5q-7 -7 -16.5 -14.5t-21 -14.5t-23 -12t-21.5 -8q-14 -3 -22 2t-12.5 14t-6.5 20.5t-5 20.5q-3 8 -12 5t-18.5 -10.5t-17.5 -16.5l-12 -11l-14 -16
q-7 -7 -18 -2q-10 5 -10.5 14.5t7.5 16.5z" />
    <glyph glyph-name="Ograve" unicode="&#xd2;" horiz-adv-x="445" 
d="M472 484q-21 9 -43.5 7t-44.5 -10q63 3 102 -27.5t34 -93.5q-5 -55 -30.5 -107t-56.5 -98q-26 -39 -59 -79.5t-73 -74t-85.5 -57t-95.5 -27.5q-23 -2 -47.5 2.5t-41.5 22.5q-19 20 -22 47t1 53q9 54 34.5 104.5t55.5 95.5q29 48 64 90.5t75 81.5q37 35 81.5 67t95.5 41
q16 3 38.5 3t35.5 -11q6 -5 6.5 -11.5t-2.5 -11.5t-9 -7.5t-13 0.5zM282 418q-44 -36 -80.5 -78.5t-68.5 -89.5q-31 -45 -55.5 -95.5t-34.5 -104.5q-2 -10 -3 -22.5t0.5 -24.5t6 -22.5t14.5 -17.5q17 -12 38.5 -11.5t39.5 4.5q54 11 100 42t85 67q41 38 74.5 82t57.5 94
q9 18 20 43.5t16.5 52.5t2 52t-22.5 42q-18 17 -45 17.5t-50 -3.5q-9 -2 -16 5t-6 18q-20 -11 -39.5 -25t-33.5 -25zM385 619q3 -5 11.5 -11t19 -11.5t21.5 -10.5t19 -8q14 -5 30 -8t27 -11q8 -2 9.5 -8t-3.5 -11q-5 -7 -13 -4t-14 5l-64 20q-32 10 -59 28q-5 4 -10.5 9
t-7.5 13q-1 7 3 11.5t10 6t12 -0.5t9 -9z" />
    <glyph glyph-name="Oacute" unicode="&#xd3;" horiz-adv-x="445" 
d="M472 484q-21 9 -43.5 7t-44.5 -10q63 3 102 -27.5t34 -93.5q-5 -55 -30.5 -107t-56.5 -98q-26 -39 -59 -79.5t-73 -74t-85.5 -57t-95.5 -27.5q-23 -2 -47.5 2.5t-41.5 22.5q-19 20 -22 47t1 53q9 54 34.5 104.5t55.5 95.5q29 48 64 90.5t75 81.5q37 35 81.5 67t95.5 41
q16 3 38.5 3t35.5 -11q6 -5 6.5 -11.5t-2.5 -11.5t-9 -7.5t-13 0.5zM282 418q-44 -36 -80.5 -78.5t-68.5 -89.5q-31 -45 -55.5 -95.5t-34.5 -104.5q-2 -10 -3 -22.5t0.5 -24.5t6 -22.5t14.5 -17.5q17 -12 38.5 -11.5t39.5 4.5q54 11 100 42t85 67q41 38 74.5 82t57.5 94
q9 18 20 43.5t16.5 52.5t2 52t-22.5 42q-18 17 -45 17.5t-50 -3.5q-9 -2 -16 5t-6 18q-20 -11 -39.5 -25t-33.5 -25zM573 615q-7 -15 -28 -23.5t-37 -13.5q-14 -5 -27 -8l-27 -8q-4 -1 -10.5 -3.5t-14 -4.5t-14.5 -2.5t-11 2.5q-8 8 1 15t24 12t30 8t18 5l17 7q10 4 19.5 9
t17.5 10t10 10q3 8 10 9.5t13 -1t9.5 -9t-0.5 -14.5z" />
    <glyph glyph-name="Ocircumflex" unicode="&#xd4;" horiz-adv-x="445" 
d="M472 484q-21 9 -43.5 7t-44.5 -10q63 3 102 -27.5t34 -93.5q-5 -55 -30.5 -107t-56.5 -98q-26 -39 -59 -79.5t-73 -74t-85.5 -57t-95.5 -27.5q-23 -2 -47.5 2.5t-41.5 22.5q-19 20 -22 47t1 53q9 54 34.5 104.5t55.5 95.5q29 48 64 90.5t75 81.5q37 35 81.5 67t95.5 41
q16 3 38.5 3t35.5 -11q6 -5 6.5 -11.5t-2.5 -11.5t-9 -7.5t-13 0.5zM282 418q-44 -36 -80.5 -78.5t-68.5 -89.5q-31 -45 -55.5 -95.5t-34.5 -104.5q-2 -10 -3 -22.5t0.5 -24.5t6 -22.5t14.5 -17.5q17 -12 38.5 -11.5t39.5 4.5q54 11 100 42t85 67q41 38 74.5 82t57.5 94
q9 18 20 43.5t16.5 52.5t2 52t-22.5 42q-18 17 -45 17.5t-50 -3.5q-9 -2 -16 5t-6 18q-20 -11 -39.5 -25t-33.5 -25zM372 578q21 8 40 18t38 22q5 3 13.5 10.5t17.5 14.5t17.5 9.5t14.5 -3.5q11 -11 16 -31t10 -34q2 -5 6 -13.5t3 -15.5q-2 -14 -12.5 -9t-14.5 13l-29 53
q-21 -9 -41.5 -21t-39.5 -26q-4 -3 -8.5 -8t-10 -8.5t-11 -5t-11.5 1.5q-11 5 -10 17t12 16z" />
    <glyph glyph-name="Otilde" unicode="&#xd5;" horiz-adv-x="445" 
d="M472 484q-21 9 -43.5 7t-44.5 -10q63 3 102 -27.5t34 -93.5q-5 -55 -30.5 -107t-56.5 -98q-26 -39 -59 -79.5t-73 -74t-85.5 -57t-95.5 -27.5q-23 -2 -47.5 2.5t-41.5 22.5q-19 20 -22 47t1 53q9 54 34.5 104.5t55.5 95.5q29 48 64 90.5t75 81.5q37 35 81.5 67t95.5 41
q16 3 38.5 3t35.5 -11q6 -5 6.5 -11.5t-2.5 -11.5t-9 -7.5t-13 0.5zM282 418q-44 -36 -80.5 -78.5t-68.5 -89.5q-31 -45 -55.5 -95.5t-34.5 -104.5q-2 -10 -3 -22.5t0.5 -24.5t6 -22.5t14.5 -17.5q17 -12 38.5 -11.5t39.5 4.5q54 11 100 42t85 67q41 38 74.5 82t57.5 94
q9 18 20 43.5t16.5 52.5t2 52t-22.5 42q-18 17 -45 17.5t-50 -3.5q-9 -2 -16 5t-6 18q-20 -11 -39.5 -25t-33.5 -25zM387 585l37 30q20 15 43 20q14 3 21.5 -2t12 -14t6.5 -19.5t5 -19.5t11.5 -7t18 9t18.5 16l12 11q5 5 11 12t15 6q11 -1 15.5 -11.5t-3.5 -18.5
q-7 -7 -16.5 -14.5t-21 -14.5t-23 -12t-21.5 -8q-14 -3 -22 2t-12.5 14t-6.5 20.5t-5 20.5q-3 8 -12 5t-18.5 -10.5t-18.5 -15.5l-11 -12l-14 -16q-7 -7 -18 -2q-10 5 -10.5 14.5t7.5 16.5z" />
    <glyph glyph-name="Odieresis" unicode="&#xd6;" horiz-adv-x="445" 
d="M472 484q-21 9 -43.5 7t-44.5 -10q63 3 102 -27.5t34 -93.5q-5 -55 -30.5 -107t-56.5 -98q-26 -39 -59 -79.5t-73 -74t-85.5 -57t-95.5 -27.5q-23 -2 -47.5 2.5t-41.5 22.5q-19 20 -22 47t1 53q9 54 34.5 104.5t55.5 95.5q29 48 64 90.5t75 81.5q37 35 81.5 67t95.5 41
q16 3 38.5 3t35.5 -11q6 -5 6.5 -11.5t-2.5 -11.5t-9 -7.5t-13 0.5zM282 418q-44 -36 -80.5 -78.5t-68.5 -89.5q-31 -45 -55.5 -95.5t-34.5 -104.5q-2 -10 -3 -22.5t0.5 -24.5t6 -22.5t14.5 -17.5q17 -12 38.5 -11.5t39.5 4.5q54 11 100 42t85 67q41 38 74.5 82t57.5 94
q9 18 20 43.5t16.5 52.5t2 52t-22.5 42q-18 17 -45 17.5t-50 -3.5q-9 -2 -16 5t-6 18q-20 -11 -39.5 -25t-33.5 -25zM559 608l-19 -26q-10 -15 -21 -21q-4 -5 -9 -4t-8 4.5t-3.5 8.5t4.5 9q13 10 22.5 24t17.5 29q3 5 6 12t6.5 14t8.5 11.5t12 4.5q11 -2 15.5 -11.5
t-2.5 -17.5zM502 632q-8 -17 -20 -33t-26 -29q-5 -3 -11 -8t-14 -2q-6 3 -7 6.5t1 7t5.5 6.5t6.5 5q8 5 13.5 13.5t9.5 16.5t4.5 18.5t6.5 18.5q5 7 12 8t12.5 -3t8 -11t-1.5 -14z" />
    <glyph glyph-name="multiply" unicode="&#xd7;" horiz-adv-x="247" 
d="M109 20v23q0 6 -3 23l-4 -2l-70 -45q-5 -2 -9.5 -4.5t-9.5 1.5q-7 3 -6.5 10t7.5 10q21 10 45 26t42 30l-5 23q-3 13 -9.5 28.5t-4.5 29.5q1 10 12 14t18 -5q3 -4 5 -10.5t3 -13.5l1 -15q0 -7 1 -13l2 -21l16 15q6 5 15 14l19 16l19 17q9 8 16 11q11 4 20 -5t3 -20
q-3 -6 -12 -13.5t-19 -14.5t-20 -13t-15 -10l-39 -27v-5q0 -4 1 -7q1 -7 1 -11v-6q0 -4 0.5 -8.5t1.5 -11.5q1 -4 0 -8.5t-6 -8.5t-11 -1.5t-5 8.5z" />
    <glyph glyph-name="Oslash" unicode="&#xd8;" horiz-adv-x="445" 
d="M472 484q-21 9 -43.5 7t-44.5 -10q39 2 69.5 -9.5t47.5 -34.5l28 25q5 5 12 13.5t15 17t16.5 15t15.5 7.5q14 2 19.5 -10t-5.5 -21l-67 -58q-8 -8 -20 -17q7 -20 5 -49q-5 -55 -30.5 -107t-56.5 -98q-26 -39 -59 -79.5t-73 -74t-85.5 -57t-95.5 -27.5q-23 -2 -47.5 2.5
t-41.5 22.5q-12 13 -18 30l-18 -16l-20 -16q-5 -4 -9.5 -3t-7.5 4.5t-3.5 8t4.5 8.5l49 38q-1 21 2 46q9 54 34.5 104.5t55.5 95.5q29 48 64 90.5t75 81.5q37 35 81.5 67t95.5 41q16 3 38.5 3t35.5 -11q6 -5 6.5 -11.5t-2.5 -11.5t-9 -7.5t-13 0.5zM42 -5q2 -9 6.5 -17.5
t12.5 -14.5q17 -12 38.5 -11.5t39.5 4.5q54 11 100 42t85 67q41 38 74.5 82t57.5 94q7 13 15 31.5t14 38.5t9 40.5t0 38.5l-69 -60l-83 -73l-88 -78l-84 -74l-70 -61l-46 -39zM282 418q-44 -36 -80.5 -78.5t-68.5 -89.5q-31 -45 -55.5 -95.5t-34.5 -104.5q-2 -7 -2.5 -14
t-1.5 -15q43 35 83 72l82 75l278 251q-2 3 -4.5 6t-5.5 6q-18 17 -45 17.5t-50 -3.5q-9 -2 -16 5t-6 18q-20 -11 -39.5 -25t-33.5 -25z" />
    <glyph glyph-name="Ugrave" unicode="&#xd9;" 
d="M16 336q62 49 128.5 94t141.5 74q14 5 33.5 10.5t38.5 6.5t35.5 -5.5t24.5 -24.5q7 -18 4 -37t-11.5 -37.5t-20.5 -35.5l-22 -29q-32 -43 -68 -83l-71 -81l-55 -65l-52 -67l-23 -31l-22 -33q-8 -11 -20 -29.5t-10 -32.5q7 1 17 5.5t20 10.5l18 11q9 6 13 8l43 27l44 28
l86 61l84 63l84 66l82 68l71 61q36 31 68 65q5 7 10 12.5t13 7.5q11 1 17 -7t2 -19q-4 -8 -12.5 -15t-17.5 -13q-42 -40 -78 -86t-69 -93q-19 -29 -35 -59t-27 -62q-6 -17 -10 -38t2 -37l1 -1q13 -5 29.5 -1.5t30.5 7.5q55 15 109 38l97 47q4 2 9 2.5t8.5 -1t4 -5.5
t-3.5 -11q-5 -9 -21.5 -14t-25.5 -10l-49 -26q-25 -13 -51.5 -25.5t-53 -22.5t-53.5 -14q-39 -8 -56 13.5t-10 57.5q4 25 14 50.5t23.5 49.5t28.5 47l30 44l35 49l-120 -96l-95 -75l-96 -74l-46 -36q-23 -18 -47.5 -35t-50.5 -31.5t-53 -22.5q-20 -5 -30.5 0t-14 16.5t-1 26
t9.5 28.5q24 50 62 93l74 85l78 87q40 44 76 91q4 6 14 19.5t21 31t21 36.5t14 34.5t-0.5 26.5t-21.5 12q-25 1 -51.5 -5t-52 -16.5t-49.5 -24t-45 -26.5q-21 -14 -41 -31l-40 -33q-5 -4 -14.5 -14.5t-20.5 -19.5t-21.5 -12t-16.5 9q-7 13 6 23zM506 553q3 -5 11.5 -11
t19 -11.5t21.5 -10.5t19 -8q14 -5 30 -8t27 -11q8 -2 9.5 -8t-3.5 -11q-5 -7 -13 -4t-14 5l-64 20q-32 10 -59 28q-5 4 -10.5 9t-7.5 13q-1 7 3 11.5t10 6t12 -0.5t9 -9z" />
    <glyph glyph-name="Uacute" unicode="&#xda;" 
d="M16 336q62 49 128.5 94t141.5 74q14 5 33.5 10.5t38.5 6.5t35.5 -5.5t24.5 -24.5q7 -18 4 -37t-11.5 -37.5t-20.5 -35.5l-22 -29q-32 -43 -68 -83l-71 -81l-55 -65l-52 -67l-23 -31l-22 -33q-8 -11 -20 -29.5t-10 -32.5q7 1 17 5.5t20 10.5l18 11q9 6 13 8l43 27l44 28
l86 61l84 63l84 66l82 68l71 61q36 31 68 65q5 7 10 12.5t13 7.5q11 1 17 -7t2 -19q-4 -8 -12.5 -15t-17.5 -13q-42 -40 -78 -86t-69 -93q-19 -29 -35 -59t-27 -62q-6 -17 -10 -38t2 -37l1 -1q13 -5 29.5 -1.5t30.5 7.5q55 15 109 38l97 47q4 2 9 2.5t8.5 -1t4 -5.5
t-3.5 -11q-5 -9 -21.5 -14t-25.5 -10l-49 -26q-25 -13 -51.5 -25.5t-53 -22.5t-53.5 -14q-39 -8 -56 13.5t-10 57.5q4 25 14 50.5t23.5 49.5t28.5 47l30 44l35 49l-120 -96l-95 -75l-96 -74l-46 -36q-23 -18 -47.5 -35t-50.5 -31.5t-53 -22.5q-20 -5 -30.5 0t-14 16.5t-1 26
t9.5 28.5q24 50 62 93l74 85l78 87q40 44 76 91q4 6 14 19.5t21 31t21 36.5t14 34.5t-0.5 26.5t-21.5 12q-25 1 -51.5 -5t-52 -16.5t-49.5 -24t-45 -26.5q-21 -14 -41 -31l-40 -33q-5 -4 -14.5 -14.5t-20.5 -19.5t-21.5 -12t-16.5 9q-7 13 6 23zM685 522q-7 -15 -28 -23.5
t-37 -13.5q-14 -5 -27 -9l-27 -7q-4 -1 -10.5 -3.5t-14 -4.5t-14.5 -2.5t-11 2.5q-8 8 1 15t24 12t30 8t18 5l17 7q10 4 19.5 9t17.5 10t10 10q3 8 10 9.5t13 -1t9.5 -9t-0.5 -14.5z" />
    <glyph glyph-name="Ucircumflex" unicode="&#xdb;" 
d="M16 336q62 49 128.5 94t141.5 74q14 5 33.5 10.5t38.5 6.5t35.5 -5.5t24.5 -24.5q7 -18 4 -37t-11.5 -37.5t-20.5 -35.5l-22 -29q-32 -43 -68 -83l-71 -81l-55 -65l-52 -67l-23 -31l-22 -33q-8 -11 -20 -29.5t-10 -32.5q7 1 17 5.5t20 10.5l18 11q9 6 13 8l43 27l44 28
l86 61l84 63l84 66l82 68l71 61q36 31 68 65q5 7 10 12.5t13 7.5q11 1 17 -7t2 -19q-4 -8 -12.5 -15t-17.5 -13q-42 -40 -78 -86t-69 -93q-19 -29 -35 -59t-27 -62q-6 -17 -10 -38t2 -37l1 -1q13 -5 29.5 -1.5t30.5 7.5q55 15 109 38l97 47q4 2 9 2.5t8.5 -1t4 -5.5
t-3.5 -11q-5 -9 -21.5 -14t-25.5 -10l-49 -26q-25 -13 -51.5 -25.5t-53 -22.5t-53.5 -14q-39 -8 -56 13.5t-10 57.5q4 25 14 50.5t23.5 49.5t28.5 47l30 44l35 49l-120 -96l-95 -75l-96 -74l-46 -36q-23 -18 -47.5 -35t-50.5 -31.5t-53 -22.5q-20 -5 -30.5 0t-14 16.5t-1 26
t9.5 28.5q24 50 62 93l74 85l78 87q40 44 76 91q4 6 14 19.5t21 31t21 36.5t14 34.5t-0.5 26.5t-21.5 12q-25 1 -51.5 -5t-52 -16.5t-49.5 -24t-45 -26.5q-21 -14 -41 -31l-40 -33q-5 -4 -14.5 -14.5t-20.5 -19.5t-21.5 -12t-16.5 9q-7 13 6 23zM487 491q21 8 40 18t38 22
q5 3 13.5 10.5t17.5 14.5t17.5 9.5t14.5 -3.5q11 -11 16 -31t10 -34q2 -5 6 -13.5t3 -15.5q-2 -14 -12.5 -9t-14.5 13l-29 53q-21 -9 -41.5 -21t-39.5 -26q-4 -3 -8.5 -8t-10 -8.5t-11 -5t-11.5 1.5q-11 5 -10 17t12 16z" />
    <glyph glyph-name="Udieresis" unicode="&#xdc;" 
d="M16 336q62 49 128.5 94t141.5 74q14 5 33.5 10.5t38.5 6.5t35.5 -5.5t24.5 -24.5q7 -18 4 -37t-11.5 -37.5t-20.5 -35.5l-22 -29q-32 -43 -68 -83l-71 -81l-55 -65l-52 -67l-23 -31l-22 -33q-8 -11 -20 -29.5t-10 -32.5q7 1 17 5.5t20 10.5l18 11q9 6 13 8l43 27l44 28
l86 61l84 63l84 66l82 68l71 61q36 31 68 65q5 7 10 12.5t13 7.5q11 1 17 -7t2 -19q-4 -8 -12.5 -15t-17.5 -13q-42 -40 -78 -86t-69 -93q-19 -29 -35 -59t-27 -62q-6 -17 -10 -38t2 -37l1 -1q13 -5 29.5 -1.5t30.5 7.5q55 15 109 38l97 47q4 2 9 2.5t8.5 -1t4 -5.5
t-3.5 -11q-5 -9 -21.5 -14t-25.5 -10l-49 -26q-25 -13 -51.5 -25.5t-53 -22.5t-53.5 -14q-39 -8 -56 13.5t-10 57.5q4 25 14 50.5t23.5 49.5t28.5 47l30 44l35 49l-120 -96l-95 -75l-96 -74l-46 -36q-23 -18 -47.5 -35t-50.5 -31.5t-53 -22.5q-20 -5 -30.5 0t-14 16.5t-1 26
t9.5 28.5q24 50 62 93l74 85l78 87q40 44 76 91q4 6 14 19.5t21 31t21 36.5t14 34.5t-0.5 26.5t-21.5 12q-25 1 -51.5 -5t-52 -16.5t-49.5 -24t-45 -26.5q-21 -14 -41 -31l-40 -33q-5 -4 -14.5 -14.5t-20.5 -19.5t-21.5 -12t-16.5 9q-7 13 6 23zM648 513l-18 -26
q-11 -15 -22 -21q-4 -5 -9 -4t-8 4.5t-3.5 8.5t4.5 9q13 10 22.5 24t17.5 29q3 5 6 12t6.5 14t8.5 11.5t12 4.5q11 -2 15.5 -11.5t-2.5 -17.5zM591 537q-8 -17 -20 -33t-26 -29q-5 -3 -11 -8t-14 -2q-6 3 -7 6.5t1 7t5.5 6.5t6.5 5q8 5 13.5 13.5t9.5 16.5t4.5 18.5
t6.5 18.5q5 7 12 8t12.5 -3t8 -11t-1.5 -14z" />
    <glyph glyph-name="Yacute" unicode="&#xdd;" horiz-adv-x="641" 
d="M68 293l76 67l78 65l30 26q16 15 33 27t35.5 21t38.5 11q28 3 39 -16.5t6 -43.5q-6 -26 -21 -50t-31 -46q-2 -3 -15 -20l-28 -41q-16 -23 -32.5 -50t-28 -50t-15 -39t7.5 -17q15 -2 35 4.5t40.5 17t37.5 22t26 18.5q48 32 89.5 69.5t80.5 79.5l26 28l29 48l31 49l17 24
q9 14 19 26.5t21.5 21.5t24.5 12q12 3 17.5 -1.5t5 -12t-5 -16.5t-11.5 -16l-42 -48l-76 -87l-20 -31l-18 -29l-78 -123q-20 -30 -39 -64t-40 -67t-45 -63t-54 -52q32 7 62 17.5t59 23.5q54 23 105 47l103 51q5 3 9 1t6 -5.5t1.5 -8t-5.5 -7.5l-44 -20l-110 -56l-104 -45
q-51 -22 -107 -33q-57 -9 -112 1.5t-103 42.5q-6 4 -17.5 11t-22.5 15.5t-19 18t-8 18.5q0 16 8 16t21 -5q1 0 8.5 -5t15.5 -11l15 -12l11 -7q22 -15 46.5 -27.5t50.5 -19t52 -4.5t51 16q30 18 54 44.5t44.5 56.5t38 61.5t35.5 59.5l34 54l34 52q-27 -28 -55.5 -54
t-58.5 -50l-34 -26q-18 -14 -37.5 -25.5t-40 -20t-41.5 -10.5q-32 -3 -41.5 11.5t-7 35.5t12.5 43.5t18 36.5q23 42 50.5 80t50.5 79l10 18q6 11 11.5 23t8.5 23.5t0 20.5q-2 5 -11.5 3t-21 -7t-21.5 -10.5t-12 -6.5q-41 -23 -78 -54t-70 -63l-32 -33q-8 -8 -16 -20t-17 -18
q-7 -5 -13.5 -3t-10.5 7.5t-4.5 12t5.5 12.5zM657 596q-7 -15 -28 -23.5t-37 -13.5q-14 -5 -27 -9l-27 -7q-4 -1 -10.5 -3.5t-14 -4.5t-14.5 -2.5t-11 2.5q-8 8 1 15t24 12t30 8t18 5l17 7q10 4 19.5 9t17.5 10t10 10q3 8 10 9.5t13 -1t9.5 -9t-0.5 -14.5z" />
    <glyph glyph-name="Thorn" unicode="&#xde;" horiz-adv-x="569" 
d="M113 251q50 23 104 37.5t108 25.5q26 38 53.5 72t58.5 66q18 20 37 37t42 29q6 4 17 10t22.5 10t22.5 4t18 -7q8 -8 3 -19t-17 -11q-26 1 -51 -11t-47.5 -31t-42.5 -41l-34 -39l-26 -31l-23 -30q51 10 105.5 13.5t102.5 -12.5q22 -8 39.5 -23.5t22.5 -39.5t-9 -45
t-31 -35q-45 -37 -99.5 -58t-108.5 -38q-100 -30 -202 -48l-29 -53l-57 -104q-5 -8 -10.5 -21t-16.5 -14t-17 8t-1 18q23 42 48 82l51 79q-27 -4 -53 -6.5t-53 -5.5q-9 -1 -20 -1.5t-16 11.5q-5 9 0.5 17t15.5 7q35 -1 71 0t72 6l64 106l67 104l13 19q-23 -5 -45 -12
l-42 -13q-24 -8 -46.5 -18.5t-42.5 -24.5q-8 -6 -15 -3t-10.5 9t-2.5 13.5t10 11.5zM193 62q75 11 145.5 32t136.5 54q22 11 43 23.5t40 27.5q5 4 12 10.5t12.5 13.5t9 15t1.5 16q-5 22 -26 32.5t-47 15t-52.5 4t-42.5 -1.5l-45 -4q-21 -2 -43 -6l-67 -101z" />
    <glyph glyph-name="germandbls" unicode="&#xdf;" horiz-adv-x="451" 
d="M-1 85q56 28 108.5 65t109.5 83l16 27l42 72q22 37 53 63q5 4 16.5 11t23 10t20.5 -0.5t10 -18.5q1 -12 -6.5 -24t-18 -23.5t-22 -21t-19.5 -17.5q-23 -25 -47.5 -48t-50.5 -45l-18 -29l-16 -29l23 25l31 33q16 18 33.5 33.5t37 28.5t41.5 19q16 4 30.5 0t23.5 -13.5
t10.5 -23.5t-8.5 -30q-19 -32 -57.5 -48t-75.5 -24q18 -20 30.5 -43t2.5 -49q-9 -22 -30 -38q30 5 60.5 14t59.5 22q21 10 37 19q7 5 14.5 0t2.5 -15q-2 -4 -11 -9t-20 -10t-22 -9t-17 -6q-23 -9 -46 -17t-46 -14q-11 -3 -23 -5l-22 -4q-10 -2 -24 -4t-23 3q-10 6 -9.5 12
t5.5 11t12.5 8.5t12.5 5.5l20 9q11 5 21.5 12.5t17.5 16.5t7 21t-4.5 20.5t-11.5 15.5l-15 14q-7 7 -11 16q-11 10 -2 15.5t16 7.5q25 6 53 17q19 7 41 20.5t30 34.5q4 11 -3 12.5t-17.5 -1t-20.5 -7.5t-13 -6q-66 -36 -116.5 -94.5t-91.5 -124.5l-22 -39l-22 -38
q-5 -5 -11.5 -6.5t-12 0t-8.5 6.5t-1 14q4 14 14.5 28t21.5 27l49 79l47 80l-46 -34l-46 -32l-35 -22l-36 -21q-5 -2 -12.5 -7.5t-14.5 -0.5q-6 4 -6 11t7 9zM301 312l26 28q14 15 25 32q-26 -14 -45.5 -40t-34.5 -49z" />
    <glyph glyph-name="agrave" unicode="&#xe0;" horiz-adv-x="440" 
d="M-1 85l30 16q19 9 40 18l40 17l33 13q7 3 25 9t38 11t37.5 7t25.5 -3q12 -11 4.5 -20t-18.5 -11l-45 -5q-14 -4 -23.5 -9.5t-21.5 -13.5q-5 -4 -17.5 -16.5t-24.5 -27t-19 -28t0 -19.5q6 -5 19.5 -2t27.5 9t26 12.5t16 9.5q29 18 47 38q9 10 19.5 2.5t6.5 -20.5
q-2 -7 -7 -12l-10 -10q-4 -4 -7 -12q-4 -7 -2 -10.5t7 -4.5q14 -2 35 2t43.5 11t44.5 16.5t38 17.5q4 1 11 5.5t14.5 7.5t14.5 3t10 -6q4 -6 -0.5 -11t-12.5 -8.5t-16 -6.5t-12 -5l-34 -15l-35 -16q-12 -5 -26 -12t-29 -12t-30.5 -7t-28.5 3q-17 7 -20 19.5t1 26.5l-27 -16
l-35 -20q-19 -11 -39 -13q-18 -1 -32 8t-15 28q0 10 8 25.5t20.5 32t27.5 30.5t28 21q-7 -2 -22.5 -9t-35.5 -17l-40 -20l-40 -20q-5 -3 -10 -1.5t-7.5 5t-2 8t6.5 7.5zM223 390q3 -5 11.5 -11t19 -11.5t21.5 -10.5t19 -8q14 -5 30 -8t27 -11q8 -2 9.5 -8t-3.5 -11
q-5 -7 -13 -4t-14 5l-64 20q-32 10 -59 28q-5 4 -10.5 9t-7.5 13q-1 7 3 11.5t10 6t12 -0.5t9 -9z" />
    <glyph glyph-name="aacute" unicode="&#xe1;" horiz-adv-x="440" 
d="M-1 85l30 16q19 9 40 18l40 17l33 13q7 3 25 9t38 11t37.5 7t25.5 -3q12 -11 4.5 -20t-18.5 -11l-45 -5q-14 -4 -23.5 -9.5t-21.5 -13.5q-5 -4 -17.5 -16.5t-24.5 -27t-19 -28t0 -19.5q6 -5 19.5 -2t27.5 9t26 12.5t16 9.5q29 18 47 38q9 10 19.5 2.5t6.5 -20.5
q-2 -7 -7 -12l-10 -10q-4 -4 -7 -12q-4 -7 -2 -10.5t7 -4.5q14 -2 35 2t43.5 11t44.5 16.5t38 17.5q4 1 11 5.5t14.5 7.5t14.5 3t10 -6q4 -6 -0.5 -11t-12.5 -8.5t-16 -6.5t-12 -5l-34 -15l-35 -16q-12 -5 -26 -12t-29 -12t-30.5 -7t-28.5 3q-17 7 -20 19.5t1 26.5l-27 -16
l-35 -20q-19 -11 -39 -13q-18 -1 -32 8t-15 28q0 10 8 25.5t20.5 32t27.5 30.5t28 21q-7 -2 -22.5 -9t-35.5 -17l-40 -20l-40 -20q-5 -3 -10 -1.5t-7.5 5t-2 8t6.5 7.5zM393 373q-7 -15 -28 -23.5t-37 -13.5q-14 -5 -27 -8l-27 -8q-4 -1 -10.5 -3.5t-14 -4.5t-14.5 -2.5
t-11 2.5q-8 8 1 15t24 12t30 8t18 5l17 7q10 4 19.5 9t17.5 10t10 10q3 8 10 9.5t13 -1t9.5 -9t-0.5 -14.5z" />
    <glyph glyph-name="acircumflex" unicode="&#xe2;" horiz-adv-x="440" 
d="M-1 85l30 16q19 9 40 18l40 17l33 13q7 3 25 9t38 11t37.5 7t25.5 -3q12 -11 4.5 -20t-18.5 -11l-45 -5q-14 -4 -23.5 -9.5t-21.5 -13.5q-5 -4 -17.5 -16.5t-24.5 -27t-19 -28t0 -19.5q6 -5 19.5 -2t27.5 9t26 12.5t16 9.5q29 18 47 38q9 10 19.5 2.5t6.5 -20.5
q-2 -7 -7 -12l-10 -10q-4 -4 -7 -12q-4 -7 -2 -10.5t7 -4.5q14 -2 35 2t43.5 11t44.5 16.5t38 17.5q4 1 11 5.5t14.5 7.5t14.5 3t10 -6q4 -6 -0.5 -11t-12.5 -8.5t-16 -6.5t-12 -5l-34 -15l-35 -16q-12 -5 -26 -12t-29 -12t-30.5 -7t-28.5 3q-17 7 -20 19.5t1 26.5l-27 -16
l-35 -20q-19 -11 -39 -13q-18 -1 -32 8t-15 28q0 10 8 25.5t20.5 32t27.5 30.5t28 21q-7 -2 -22.5 -9t-35.5 -17l-40 -20l-40 -20q-5 -3 -10 -1.5t-7.5 5t-2 8t6.5 7.5zM214 355q21 8 40 18t38 22q5 3 13.5 10.5t17.5 14.5t17.5 9.5t14.5 -3.5q11 -11 16 -31t10 -34
q2 -5 6 -13.5t3 -15.5q-2 -14 -12.5 -9t-14.5 13l-29 53q-21 -9 -41.5 -21t-39.5 -26q-4 -3 -8.5 -8t-10 -8.5t-11 -5t-11.5 1.5q-11 5 -10 17t12 16z" />
    <glyph glyph-name="atilde" unicode="&#xe3;" horiz-adv-x="440" 
d="M-1 85l30 16q19 9 40 18l40 17l33 13q7 3 25 9t38 11t37.5 7t25.5 -3q12 -11 4.5 -20t-18.5 -11l-45 -5q-14 -4 -23.5 -9.5t-21.5 -13.5q-5 -4 -17.5 -16.5t-24.5 -27t-19 -28t0 -19.5q6 -5 19.5 -2t27.5 9t26 12.5t16 9.5q29 18 47 38q9 10 19.5 2.5t6.5 -20.5
q-2 -7 -7 -12l-10 -10q-4 -4 -7 -12q-4 -7 -2 -10.5t7 -4.5q14 -2 35 2t43.5 11t44.5 16.5t38 17.5q4 1 11 5.5t14.5 7.5t14.5 3t10 -6q4 -6 -0.5 -11t-12.5 -8.5t-16 -6.5t-12 -5l-34 -15l-35 -16q-12 -5 -26 -12t-29 -12t-30.5 -7t-28.5 3q-17 7 -20 19.5t1 26.5l-27 -16
l-35 -20q-19 -11 -39 -13q-18 -1 -32 8t-15 28q0 10 8 25.5t20.5 32t27.5 30.5t28 21q-7 -2 -22.5 -9t-35.5 -17l-40 -20l-40 -20q-5 -3 -10 -1.5t-7.5 5t-2 8t6.5 7.5zM211 347l37 30q20 15 43 20q14 3 21.5 -2t12 -14t6.5 -19.5t5 -19.5t11.5 -7t18 9t18.5 16l12 11
q5 5 11 12t15 6q11 -1 15.5 -11.5t-3.5 -18.5q-7 -7 -16.5 -14.5t-21 -14.5t-23 -12t-21.5 -8q-14 -3 -22 2t-12.5 14t-6.5 20.5t-5 20.5q-3 8 -12 5t-18.5 -10.5t-18.5 -15.5l-11 -12l-14 -15q-7 -8 -18 -3q-10 5 -10.5 14.5t7.5 16.5z" />
    <glyph glyph-name="adieresis" unicode="&#xe4;" horiz-adv-x="440" 
d="M-1 85l30 16q19 9 40 18l40 17l33 13q7 3 25 9t38 11t37.5 7t25.5 -3q12 -11 4.5 -20t-18.5 -11l-45 -5q-14 -4 -23.5 -9.5t-21.5 -13.5q-5 -4 -17.5 -16.5t-24.5 -27t-19 -28t0 -19.5q6 -5 19.5 -2t27.5 9t26 12.5t16 9.5q29 18 47 38q9 10 19.5 2.5t6.5 -20.5
q-2 -7 -7 -12l-10 -10q-4 -4 -7 -12q-4 -7 -2 -10.5t7 -4.5q14 -2 35 2t43.5 11t44.5 16.5t38 17.5q4 1 11 5.5t14.5 7.5t14.5 3t10 -6q4 -6 -0.5 -11t-12.5 -8.5t-16 -6.5t-12 -5l-34 -15l-35 -16q-12 -5 -26 -12t-29 -12t-30.5 -7t-28.5 3q-17 7 -20 19.5t1 26.5l-27 -16
l-35 -20q-19 -11 -39 -13q-18 -1 -32 8t-15 28q0 10 8 25.5t20.5 32t27.5 30.5t28 21q-7 -2 -22.5 -9t-35.5 -17l-40 -20l-40 -20q-5 -3 -10 -1.5t-7.5 5t-2 8t6.5 7.5zM373 340l-19 -26q-10 -15 -21 -21q-4 -5 -9 -4t-8 4.5t-3.5 8.5t4.5 9q13 10 22.5 24t17.5 29q3 5 6 12
t6.5 14t8.5 11.5t12 4.5q11 -2 15.5 -11.5t-2.5 -17.5zM316 364q-8 -17 -20 -33t-26 -29q-5 -3 -11 -8t-14 -2q-6 3 -7 6.5t1 7t5.5 6.5t6.5 5q8 5 13.5 13.5t9.5 16.5t4.5 18.5t6.5 18.5q5 7 12 8t12.5 -3t8 -11t-1.5 -14z" />
    <glyph glyph-name="aring" unicode="&#xe5;" horiz-adv-x="440" 
d="M-1 85l30 16q19 9 40 18l40 17l33 13q7 3 25 9t38 11t37.5 7t25.5 -3q12 -11 4.5 -20t-18.5 -11l-45 -5q-14 -4 -23.5 -9.5t-21.5 -13.5q-5 -4 -17.5 -16.5t-24.5 -27t-19 -28t0 -19.5q6 -5 19.5 -2t27.5 9t26 12.5t16 9.5q29 18 47 38q9 10 19.5 2.5t6.5 -20.5
q-2 -7 -7 -12l-10 -10q-4 -4 -7 -12q-4 -7 -2 -10.5t7 -4.5q14 -2 35 2t43.5 11t44.5 16.5t38 17.5q4 1 11 5.5t14.5 7.5t14.5 3t10 -6q4 -6 -0.5 -11t-12.5 -8.5t-16 -6.5t-12 -5l-34 -15l-35 -16q-12 -5 -26 -12t-29 -12t-30.5 -7t-28.5 3q-17 7 -20 19.5t1 26.5l-27 -16
l-35 -20q-19 -11 -39 -13q-18 -1 -32 8t-15 28q0 10 8 25.5t20.5 32t27.5 30.5t28 21q-7 -2 -22.5 -9t-35.5 -17l-40 -20l-40 -20q-5 -3 -10 -1.5t-7.5 5t-2 8t6.5 7.5zM288 298q-17 5 -22.5 19.5t-3 31.5t12.5 34t24.5 28t32 12.5t35.5 -11.5q21 -17 19.5 -40t-16.5 -42
t-38 -29.5t-44 -2.5zM295 319q10 -3 22.5 4t22 18t12 22.5t-6.5 18.5q-12 10 -25 3t-22 -20.5t-11.5 -27.5t8.5 -18z" />
    <glyph glyph-name="ae" unicode="&#xe6;" horiz-adv-x="542" 
d="M-1 85l31 16q18 9 39 18l41 17l32 13q7 3 25 9t38 11t37.5 7t25.5 -3q12 -11 4.5 -20t-18.5 -11l-45 -5q-14 -4 -23.5 -9.5t-21.5 -13.5q-5 -4 -17.5 -16.5t-24.5 -27t-19 -28t0 -19.5q6 -5 19.5 -2t27.5 9t26 12.5t16 9.5q14 8 34 25t36 42l2 6q13 23 37 37.5t51 19.5
q14 2 32.5 0t28.5 -15q7 -8 3.5 -17t-12 -17t-18.5 -14l-16 -10q-18 -11 -39.5 -16.5t-43.5 -3.5h-4q4 -22 18 -34t33 -17.5t39 -4.5t37 4q25 5 48 12.5t45 17.5q10 5 20 9.5t19 9.5q8 2 15 -2t2 -13q-5 -8 -14 -11t-16 -6l-50 -22q-46 -18 -91 -30q-36 -7 -71.5 3.5
t-52.5 43.5l-5 -24q-3 -11 -6 -20q-3 -12 -10 -15.5t-14 -2t-11 6.5t-2 11l19 48q-40 -38 -72.5 -51t-49.5 -15q-18 -1 -32 8t-15 28q0 10 8 25.5t20.5 32t27.5 30.5t28 21q-7 -2 -22.5 -9t-35.5 -17l-40 -20l-40 -20q-5 -3 -10 -1.5t-7.5 5t-2 8t6.5 7.5zM289 114
q23 1 45.5 12t39.5 28q-14 5 -27 3t-24.5 -8t-20.5 -15.5t-13 -19.5z" />
    <glyph glyph-name="ccedilla" unicode="&#xe7;" horiz-adv-x="356" 
d="M2 86q26 11 49.5 25t48.5 26q9 4 17 8t17 6q17 7 40 12t41 3q7 -2 11.5 -7.5t5 -11.5t-3 -11t-12.5 -6q-6 -2 -13.5 -0.5t-15.5 2.5q-14 1 -27.5 -1t-26.5 -9q-20 -9 -29 -27.5t6 -38.5q15 -18 37 -23.5t46.5 -3t48.5 9.5t42 13q23 7 42 17l33 17q7 5 13.5 -1.5
t1.5 -14.5q-3 -8 -13.5 -12t-18.5 -6q-35 -17 -74 -32.5t-80 -19.5l-23 -29q21 -5 41.5 -15t22.5 -28q1 -9 -3 -16.5t-11 -13t-14.5 -9.5t-14.5 -7q-35 -13 -72 -18l-73 -11q-13 -2 -19 10t3 20q8 8 23.5 6.5t25.5 -0.5q13 0 31.5 1t37 4t34.5 9t26 17q5 6 -5 10t-25 7
t-28.5 4.5t-15.5 1.5q-12 5 -12.5 12t4 14.5t11.5 14.5l13 10l5 5q-19 1 -35.5 10t-27 23t-13.5 32t6 38v1q-11 -6 -21.5 -13t-21.5 -12l-15 -10q-8 -6 -16 -4q-9 0 -10.5 9.5t6.5 12.5z" />
    <glyph glyph-name="egrave" unicode="&#xe8;" horiz-adv-x="355" 
d="M2 86q18 9 37.5 20t39.5 19q13 23 37 37.5t51 19.5q14 2 32.5 0t28.5 -15q7 -8 3.5 -17t-12 -17t-19.5 -15l-15 -9q-18 -11 -39.5 -16.5t-43.5 -3.5h-4q4 -22 18 -34t33 -17.5t39.5 -4.5t37.5 4q24 5 47 12.5t45 17.5q10 5 20.5 9.5t19.5 9.5q7 2 14.5 -2t1.5 -13
q-5 -8 -14 -11t-16 -6l-50 -22q-46 -18 -91 -30q-20 -4 -40.5 -2.5t-38 9t-31.5 21.5t-20 36q-2 8 -3.5 16t0.5 15q-11 -5 -22 -12l-18 -11q-5 -2 -13 -7.5t-16 -0.5q-6 4 -5.5 11t6.5 9zM104 114q24 1 46.5 12t39.5 28q-14 5 -27.5 3t-25 -8t-20.5 -15.5t-13 -19.5z
M179 390q3 -5 11.5 -11t19 -11.5t21.5 -10.5t19 -8q14 -5 30 -8t27 -11q8 -2 9.5 -8t-3.5 -11q-5 -7 -13 -4t-14 5l-64 20q-32 10 -59 28q-5 4 -10.5 9t-7.5 13q-1 7 3 11.5t10 6t12 -0.5t9 -9z" />
    <glyph glyph-name="eacute" unicode="&#xe9;" horiz-adv-x="355" 
d="M2 86q18 9 37.5 20t39.5 19q13 23 37 37.5t51 19.5q14 2 32.5 0t28.5 -15q7 -8 3.5 -17t-12 -17t-19.5 -15l-15 -9q-18 -11 -39.5 -16.5t-43.5 -3.5h-4q4 -22 18 -34t33 -17.5t39.5 -4.5t37.5 4q24 5 47 12.5t45 17.5q10 5 20.5 9.5t19.5 9.5q7 2 14.5 -2t1.5 -13
q-5 -8 -14 -11t-16 -6l-50 -22q-46 -18 -91 -30q-20 -4 -40.5 -2.5t-38 9t-31.5 21.5t-20 36q-2 8 -3.5 16t0.5 15q-11 -5 -22 -12l-18 -11q-5 -2 -13 -7.5t-16 -0.5q-6 4 -5.5 11t6.5 9zM104 114q24 1 46.5 12t39.5 28q-14 5 -27.5 3t-25 -8t-20.5 -15.5t-13 -19.5z
M330 373q-7 -15 -28 -23.5t-37 -13.5q-14 -5 -27 -8l-27 -8q-4 -1 -10.5 -3.5t-14 -4.5t-14.5 -2.5t-11 2.5q-8 8 1 15t24 12t30 8t18 5l17 7q10 4 19.5 9t17.5 10t10 10q3 8 10 9.5t13 -1t9.5 -9t-0.5 -14.5z" />
    <glyph glyph-name="ecircumflex" unicode="&#xea;" horiz-adv-x="355" 
d="M2 86q18 9 37.5 20t39.5 19q13 23 37 37.5t51 19.5q14 2 32.5 0t28.5 -15q7 -8 3.5 -17t-12 -17t-19.5 -15l-15 -9q-18 -11 -39.5 -16.5t-43.5 -3.5h-4q4 -22 18 -34t33 -17.5t39.5 -4.5t37.5 4q24 5 47 12.5t45 17.5q10 5 20.5 9.5t19.5 9.5q7 2 14.5 -2t1.5 -13
q-5 -8 -14 -11t-16 -6l-50 -22q-46 -18 -91 -30q-20 -4 -40.5 -2.5t-38 9t-31.5 21.5t-20 36q-2 8 -3.5 16t0.5 15q-11 -5 -22 -12l-18 -11q-5 -2 -13 -7.5t-16 -0.5q-6 4 -5.5 11t6.5 9zM104 114q24 1 46.5 12t39.5 28q-14 5 -27.5 3t-25 -8t-20.5 -15.5t-13 -19.5z
M154 348q21 8 40 18t38 22q5 3 13.5 10.5t17.5 14.5t17.5 9.5t14.5 -3.5q11 -11 16 -31t10 -34q2 -5 6 -13.5t3 -15.5q-2 -14 -12.5 -9t-14.5 13l-29 53q-21 -9 -41.5 -21t-39.5 -26q-4 -3 -8.5 -8t-10 -8.5t-11 -5t-11.5 1.5q-11 5 -10 17t12 16z" />
    <glyph glyph-name="edieresis" unicode="&#xeb;" horiz-adv-x="355" 
d="M2 86q18 9 37.5 20t39.5 19q13 23 37 37.5t51 19.5q14 2 32.5 0t28.5 -15q7 -8 3.5 -17t-12 -17t-19.5 -15l-15 -9q-18 -11 -39.5 -16.5t-43.5 -3.5h-4q4 -22 18 -34t33 -17.5t39.5 -4.5t37.5 4q24 5 47 12.5t45 17.5q10 5 20.5 9.5t19.5 9.5q7 2 14.5 -2t1.5 -13
q-5 -8 -14 -11t-16 -6l-50 -22q-46 -18 -91 -30q-20 -4 -40.5 -2.5t-38 9t-31.5 21.5t-20 36q-2 8 -3.5 16t0.5 15q-11 -5 -22 -12l-18 -11q-5 -2 -13 -7.5t-16 -0.5q-6 4 -5.5 11t6.5 9zM104 114q24 1 46.5 12t39.5 28q-14 5 -27.5 3t-25 -8t-20.5 -15.5t-13 -19.5z
M292 340l-18 -26q-11 -15 -22 -21q-4 -5 -9 -4t-8 4.5t-3.5 8.5t4.5 9q13 10 22.5 24t17.5 29q3 5 6 12t6.5 14t8.5 11.5t12 4.5q11 -2 15.5 -11.5t-2.5 -17.5zM235 364q-8 -17 -20 -33t-26 -29q-5 -3 -11 -8t-14 -2q-6 3 -7 6.5t1 7t5.5 6.5t6.5 5q8 5 13.5 13.5t9.5 16.5
t4.5 18.5t6.5 18.5q5 7 12 8t12.5 -3t8 -11t-1.5 -14z" />
    <glyph glyph-name="igrave" unicode="&#xec;" horiz-adv-x="304" 
d="M100 134q4 2 18.5 8t28.5 9t24 0.5t7 -18.5q-2 -9 -8.5 -18t-9.5 -18q-6 -13 -11.5 -32t3.5 -31q17 -2 37.5 4t37.5 12q5 2 19 10t29.5 15.5t28.5 11t16 -2.5q4 -7 -5 -15t-22.5 -14.5t-27.5 -12t-18 -7.5l-45 -21q-22 -11 -46 -15q-21 -3 -29 9t-8 30.5t5.5 40
t11.5 39.5q-23 -9 -45 -16.5t-43 -17.5q-18 -8 -36 -18q-11 -3 -17.5 5.5t5.5 14.5zM150 390q3 -5 11.5 -11t19 -11.5t21.5 -10.5t19 -8q14 -5 30 -8t27 -11q8 -2 9.5 -8t-3.5 -11q-5 -7 -13 -4t-14 5l-63 20q-33 10 -60 28q-5 4 -10.5 9t-7.5 13q-1 7 3 11.5t10 6t12 -0.5
t9 -9z" />
    <glyph glyph-name="iacute" unicode="&#xed;" horiz-adv-x="304" 
d="M100 134q4 2 18.5 8t28.5 9t24 0.5t7 -18.5q-2 -9 -8.5 -18t-9.5 -18q-6 -13 -11.5 -32t3.5 -31q17 -2 37.5 4t37.5 12q5 2 19 10t29.5 15.5t28.5 11t16 -2.5q4 -7 -5 -15t-22.5 -14.5t-27.5 -12t-18 -7.5l-45 -21q-22 -11 -46 -15q-21 -3 -29 9t-8 30.5t5.5 40
t11.5 39.5q-23 -9 -45 -16.5t-43 -17.5q-18 -8 -36 -18q-11 -3 -17.5 5.5t5.5 14.5zM323 369q-7 -15 -28 -23.5t-37 -13.5q-14 -5 -27 -8l-27 -8q-4 -1 -10.5 -3.5t-14 -4.5t-14.5 -2.5t-11 2.5q-8 8 1 15t24 12t30 8t18 5l17 7q10 4 19.5 9t17.5 10t10 10q3 8 10 9.5t13 -1
t9.5 -9t-0.5 -14.5z" />
    <glyph glyph-name="icircumflex" unicode="&#xee;" horiz-adv-x="304" 
d="M100 134q4 2 18.5 8t28.5 9t24 0.5t7 -18.5q-2 -9 -8.5 -18t-9.5 -18q-6 -13 -11.5 -32t3.5 -31q17 -2 37.5 4t37.5 12q5 2 19 10t29.5 15.5t28.5 11t16 -2.5q4 -7 -5 -15t-22.5 -14.5t-27.5 -12t-18 -7.5l-45 -21q-22 -11 -46 -15q-21 -3 -29 9t-8 30.5t5.5 40
t11.5 39.5q-23 -9 -45 -16.5t-43 -17.5q-18 -8 -36 -18q-11 -3 -17.5 5.5t5.5 14.5zM148 351q21 8 40 18t38 22q5 3 13.5 10.5t17.5 14.5t17.5 9.5t14.5 -3.5q11 -11 16 -31t10 -34q2 -5 6 -13.5t3 -15.5q-2 -14 -12.5 -9t-14.5 13l-29 53q-21 -9 -41.5 -21t-39.5 -26
q-4 -3 -8.5 -8t-10 -8.5t-11 -5t-11.5 1.5q-11 5 -10 17t12 16z" />
    <glyph glyph-name="idieresis" unicode="&#xef;" horiz-adv-x="304" 
d="M100 134q4 2 18.5 8t28.5 9t24 0.5t7 -18.5q-2 -9 -8.5 -18t-9.5 -18q-6 -13 -11.5 -32t3.5 -31q17 -2 37.5 4t37.5 12q5 2 19 10t29.5 15.5t28.5 11t16 -2.5q4 -7 -5 -15t-22.5 -14.5t-27.5 -12t-18 -7.5l-45 -21q-22 -11 -46 -15q-21 -3 -29 9t-8 30.5t5.5 40
t11.5 39.5q-23 -9 -45 -16.5t-43 -17.5q-18 -8 -36 -18q-11 -3 -17.5 5.5t5.5 14.5zM302 340l-18 -26q-11 -15 -22 -21q-4 -5 -9 -4t-8 4.5t-3.5 8.5t4.5 9q13 10 22.5 24t17.5 29q3 5 6 12t6.5 14t8.5 11.5t12 4.5q11 -2 15.5 -11.5t-2.5 -17.5zM245 364q-8 -17 -20 -33
t-26 -29q-5 -3 -11 -8t-14 -2q-6 3 -7 6.5t1 7t5.5 6.5t6.5 5q8 5 13.5 13.5t9.5 16.5t4.5 18.5t6.5 18.5q5 7 12 8t12.5 -3t8 -11t-1.5 -14z" />
    <glyph glyph-name="eth" unicode="&#xf0;" horiz-adv-x="392" 
d="M144 227q27 16 54 41l-10 33q-3 12 -6.5 23.5t-7.5 22.5q-3 7 -7 18t-1 19q3 10 8.5 12t11 -1t10.5 -9t7 -12l21 -80l18 19q11 10 21.5 25.5t23.5 23.5q10 6 18 -3t3 -21q-5 -11 -19.5 -22t-23.5 -20q-8 -8 -16 -15l-17 -14l38 -129q8 -13 3.5 -29t-14.5 -31q4 -5 12 -10
q16 -10 35 -9t36 6q5 1 15 6t20.5 9.5t19.5 6t12 -4.5q4 -8 -1 -13.5t-13.5 -9t-17.5 -6.5l-12 -4q-15 -5 -31.5 -8t-32.5 -3t-31 4.5t-26 15.5l-22 -23q-12 -11 -27 -22t-31.5 -18.5t-34.5 -9.5t-34 5q-20 9 -23.5 23.5t2.5 30.5t17 31t21 25l19 19q-23 -8 -45 -18l-44 -21
q-4 -2 -10 -5.5t-12 -6.5t-11.5 -4.5t-9.5 1.5q-7 4 -6 11t7 10l104 45q20 8 42 14l41 12q9 5 20.5 9t22.5 2l-16 50l-9 27l-21 -16t-22 -18q-4 -2 -8.5 -5t-9.5 0t-5 10t5 11zM138 96l-14 -15q-11 -11 -19 -23t-9.5 -22.5t12.5 -12.5q26 -4 49.5 2t42.5 23l15 15q7 7 12 16
q-5 13 -5.5 28t7.5 26q-28 -2 -50.5 -12t-40.5 -25z" />
    <glyph glyph-name="ntilde" unicode="&#xf1;" horiz-adv-x="454" 
d="M-2 85l38 20q27 15 55.5 28t52.5 18t30 -8q4 -10 -2.5 -19.5t-9.5 -17.5l-12 -28q13 8 26 14l26 12l66 36q34 19 69 29q13 3 23 0.5t15.5 -9t5.5 -17t-8 -22.5q-9 -14 -19.5 -25t-21.5 -24q-2 -3 -7 -8t-10.5 -11.5t-10 -13t-5.5 -11.5q7 -2 17.5 0t21 5.5t19.5 7.5l15 6
l41 18q4 2 10.5 6l13.5 8l13 6q7 3 11 3q9 0 9 -9t-8 -14q-9 -5 -19 -9l-21 -10q-14 -8 -27 -14l-27 -13q-8 -4 -25.5 -11.5t-35 -11t-30.5 1t-13 24.5q0 10 5 18t11.5 15.5t13.5 14.5l14 13q6 5 20 21t18 30q-27 -3 -54.5 -14t-50.5 -23q-29 -14 -60 -31.5t-54 -41.5
q-5 -4 -10.5 -4.5t-10.5 2t-7.5 7.5t-0.5 13q3 9 15 16q5 8 10 18.5t7 12.5l4 15q2 7 3 15q-11 -3 -22 -7t-17 -6l-28 -11q-14 -6 -28 -13q-8 -4 -14.5 -8t-14.5 -7q-6 -3 -11.5 -1.5t-8.5 4.5t-2.5 7.5t7.5 7.5zM231 335l37 29q20 16 43 21q14 3 21.5 -2t12 -14t6.5 -19.5
t5 -19.5t11.5 -7t18 9t18.5 15l12 12q5 5 11 12t15 6q11 -1 15.5 -11.5t-3.5 -18.5q-7 -7 -16.5 -14.5t-21 -14.5t-23 -12t-21.5 -8q-14 -3 -22 2t-12.5 14t-6.5 20.5t-5 20.5q-3 8 -12 5t-18.5 -10.5t-18.5 -16.5l-11 -11l-14 -16q-7 -7 -18 -2q-10 5 -10.5 14.5t7.5 16.5z
" />
    <glyph glyph-name="ograve" unicode="&#xf2;" horiz-adv-x="392" 
d="M104 131q20 8 41 14l42 12q13 7 29 11t29 -4q8 -6 6 -16q7 1 14 -4q13 -13 9 -31t-15 -35q4 -5 12 -10q16 -10 35 -9t36 6q5 1 15 6t20.5 9.5t19.5 6t12 -4.5q4 -8 -1 -13.5t-13.5 -9t-17.5 -6.5l-12 -4q-15 -5 -31.5 -8t-32.5 -3t-31 4.5t-26 15.5l-22 -23
q-12 -11 -27 -22t-31.5 -18.5t-34.5 -9.5t-34 5q-20 9 -23.5 23.5t2.5 30.5t17 31t21 25l19 19q-23 -8 -45 -18l-44 -21q-4 -2 -10 -5.5t-12 -6.5t-11.5 -4.5t-9.5 1.5q-7 4 -6 11t7 10zM138 96l-14 -15q-11 -11 -19 -23t-9.5 -22.5t12.5 -12.5q26 -4 49.5 2t42.5 23l15 15
q7 7 12 16q-5 13 -5.5 28t7.5 26q-28 -2 -50.5 -12t-40.5 -25zM214 390q3 -5 11.5 -11t19 -11.5t21.5 -10.5t19 -8q14 -5 30 -8t27 -11q8 -2 9.5 -8t-3.5 -11q-5 -7 -13 -4t-14 5l-63 20q-33 10 -60 28q-5 4 -10.5 9t-7.5 13q-1 7 3 11.5t10 6t12 -0.5t9 -9z" />
    <glyph glyph-name="oacute" unicode="&#xf3;" horiz-adv-x="392" 
d="M104 131q20 8 41 14l42 12q13 7 29 11t29 -4q8 -6 6 -16q7 1 14 -4q13 -13 9 -31t-15 -35q4 -5 12 -10q16 -10 35 -9t36 6q5 1 15 6t20.5 9.5t19.5 6t12 -4.5q4 -8 -1 -13.5t-13.5 -9t-17.5 -6.5l-12 -4q-15 -5 -31.5 -8t-32.5 -3t-31 4.5t-26 15.5l-22 -23
q-12 -11 -27 -22t-31.5 -18.5t-34.5 -9.5t-34 5q-20 9 -23.5 23.5t2.5 30.5t17 31t21 25l19 19q-23 -8 -45 -18l-44 -21q-4 -2 -10 -5.5t-12 -6.5t-11.5 -4.5t-9.5 1.5q-7 4 -6 11t7 10zM138 96l-14 -15q-11 -11 -19 -23t-9.5 -22.5t12.5 -12.5q26 -4 49.5 2t42.5 23l15 15
q7 7 12 16q-5 13 -5.5 28t7.5 26q-28 -2 -50.5 -12t-40.5 -25zM360 373q-7 -15 -28 -23.5t-37 -13.5q-14 -5 -27 -9l-27 -7q-4 -1 -10.5 -3.5t-14 -4.5t-14.5 -2.5t-11 2.5q-8 8 1 15t24 12t30 8t18 5l17 7q10 4 19.5 9t17.5 10t10 10q3 8 10 9.5t13 -1t9.5 -9t-0.5 -14.5z
" />
    <glyph glyph-name="ocircumflex" unicode="&#xf4;" horiz-adv-x="392" 
d="M104 131q20 8 41 14l42 12q13 7 29 11t29 -4q8 -6 6 -16q7 1 14 -4q13 -13 9 -31t-15 -35q4 -5 12 -10q16 -10 35 -9t36 6q5 1 15 6t20.5 9.5t19.5 6t12 -4.5q4 -8 -1 -13.5t-13.5 -9t-17.5 -6.5l-12 -4q-15 -5 -31.5 -8t-32.5 -3t-31 4.5t-26 15.5l-22 -23
q-12 -11 -27 -22t-31.5 -18.5t-34.5 -9.5t-34 5q-20 9 -23.5 23.5t2.5 30.5t17 31t21 25l19 19q-23 -8 -45 -18l-44 -21q-4 -2 -10 -5.5t-12 -6.5t-11.5 -4.5t-9.5 1.5q-7 4 -6 11t7 10zM138 96l-14 -15q-11 -11 -19 -23t-9.5 -22.5t12.5 -12.5q26 -4 49.5 2t42.5 23l15 15
q7 7 12 16q-5 13 -5.5 28t7.5 26q-28 -2 -50.5 -12t-40.5 -25zM178 336q21 8 40 18t38 22q5 3 13.5 10.5t17.5 14.5t17.5 9.5t14.5 -3.5q11 -11 16 -31t10 -34q2 -5 6 -13.5t3 -15.5q-2 -14 -12.5 -9t-14.5 13l-29 53q-21 -9 -41.5 -21t-39.5 -26q-4 -3 -8.5 -8t-10 -8.5
t-11 -5t-11.5 1.5q-11 5 -10 17t12 16z" />
    <glyph glyph-name="otilde" unicode="&#xf5;" horiz-adv-x="392" 
d="M104 131q20 8 41 14l42 12q13 7 29 11t29 -4q8 -6 6 -16q7 1 14 -4q13 -13 9 -31t-15 -35q4 -5 12 -10q16 -10 35 -9t36 6q5 1 15 6t20.5 9.5t19.5 6t12 -4.5q4 -8 -1 -13.5t-13.5 -9t-17.5 -6.5l-12 -4q-15 -5 -31.5 -8t-32.5 -3t-31 4.5t-26 15.5l-22 -23
q-12 -11 -27 -22t-31.5 -18.5t-34.5 -9.5t-34 5q-20 9 -23.5 23.5t2.5 30.5t17 31t21 25l19 19q-23 -8 -45 -18l-44 -21q-4 -2 -10 -5.5t-12 -6.5t-11.5 -4.5t-9.5 1.5q-7 4 -6 11t7 10zM138 96l-14 -15q-11 -11 -19 -23t-9.5 -22.5t12.5 -12.5q26 -4 49.5 2t42.5 23l15 15
q7 7 12 16q-5 13 -5.5 28t7.5 26q-28 -2 -50.5 -12t-40.5 -25zM167 343l37 29q20 16 43 21q14 3 21.5 -2t12 -14t6.5 -19.5t5 -19.5t11.5 -7t18 9t18.5 15l12 12q5 5 11 12t15 6q11 -1 15.5 -11.5t-3.5 -18.5q-7 -7 -16.5 -14.5t-21 -14.5t-23 -12t-21.5 -8q-14 -3 -22 2
t-12.5 14t-6.5 20.5t-5 20.5q-3 8 -12 5t-18.5 -10.5t-17.5 -16.5l-12 -11l-14 -16q-7 -7 -18 -2q-10 5 -10.5 14.5t7.5 16.5z" />
    <glyph glyph-name="odieresis" unicode="&#xf6;" horiz-adv-x="392" 
d="M104 131q20 8 41 14l42 12q13 7 29 11t29 -4q8 -6 6 -16q7 1 14 -4q13 -13 9 -31t-15 -35q4 -5 12 -10q16 -10 35 -9t36 6q5 1 15 6t20.5 9.5t19.5 6t12 -4.5q4 -8 -1 -13.5t-13.5 -9t-17.5 -6.5l-12 -4q-15 -5 -31.5 -8t-32.5 -3t-31 4.5t-26 15.5l-22 -23
q-12 -11 -27 -22t-31.5 -18.5t-34.5 -9.5t-34 5q-20 9 -23.5 23.5t2.5 30.5t17 31t21 25l19 19q-23 -8 -45 -18l-44 -21q-4 -2 -10 -5.5t-12 -6.5t-11.5 -4.5t-9.5 1.5q-7 4 -6 11t7 10zM138 96l-14 -15q-11 -11 -19 -23t-9.5 -22.5t12.5 -12.5q26 -4 49.5 2t42.5 23l15 15
q7 7 12 16q-5 13 -5.5 28t7.5 26q-28 -2 -50.5 -12t-40.5 -25zM342 340l-18 -26q-11 -15 -22 -21q-4 -5 -9 -4t-8 4.5t-3.5 8.5t4.5 9q13 10 22.5 24t17.5 29q3 5 6 12t6.5 14t8.5 11.5t12 4.5q11 -2 15.5 -11.5t-2.5 -17.5zM285 364q-8 -17 -20 -33t-26 -29q-5 -3 -11 -8
t-14 -2q-6 3 -7 6.5t1 7t5.5 6.5t6.5 5q8 5 13.5 13.5t9.5 16.5t4.5 18.5t6.5 18.5q5 7 12 8t12.5 -3t8 -11t-1.5 -14z" />
    <glyph glyph-name="divide" unicode="&#xf7;" horiz-adv-x="287" 
d="M118 62q15 0 18 -9.5t-3 -21t-18 -20.5t-27 -9q-15 1 -18 10.5t3 20.5t18.5 20t26.5 9zM185 186q15 0 18 -9.5t-3 -21t-18 -20.5t-27 -9t-18 9.5t3 21t18.5 20.5t26.5 9zM34 105q35 -3 71 -1t71 7q15 2 34.5 7.5t35.5 3.5q13 -2 15.5 -14.5t-9.5 -18.5q-6 -4 -14 -5
t-17 -1h-17h-16q-39 -3 -76 -3q-17 0 -35 0.5t-36 0.5q-5 0 -10.5 1t-8.5 7q-4 6 0 12t12 4z" />
    <glyph glyph-name="oslash" unicode="&#xf8;" horiz-adv-x="392" 
d="M-17 -66l46 35l46 37q-7 10 -5 23.5t9 26.5t16 24.5t17 19.5l19 19q-23 -8 -45 -18l-44 -21q-4 -2 -10 -5.5t-12 -6.5t-11.5 -4.5t-9.5 1.5q-7 4 -6 11t7 10l104 45q20 8 41 14l42 12q13 7 29 11t29 -4q2 -2 2 -3l39 35l12 14q7 9 15 17.5t16 14.5t16 7q14 2 19 -10
t-5 -21l-67 -58l-12 -10l-12 -10q10 -13 6 -29.5t-15 -32.5q4 -5 12 -10q16 -10 35 -9t36 6q5 1 15 6t20.5 9.5t19.5 6t12 -4.5q4 -8 -1 -13.5t-13.5 -9t-17.5 -6.5l-12 -4q-15 -5 -31.5 -8t-32.5 -3t-31 4.5t-26 15.5l-22 -23q-12 -11 -27 -22t-31.5 -18.5t-34.5 -9.5
t-34 5l-3 2l-14 -12l-59 -49l-20 -15q-5 -4 -9.5 -3t-7.5 4.5t-3.5 8t4.5 8.5zM138 96q-4 -3 -12.5 -12.5t-16.5 -20t-12 -21t2 -15.5l116 104q-23 -3 -42 -12.5t-35 -22.5zM227 79q-5 9 -6 21l-46 -40l-47 -39q20 1 38.5 7t33.5 20l15 15q7 7 12 16z" />
    <glyph glyph-name="ugrave" unicode="&#xf9;" horiz-adv-x="470" 
d="M0 86q26 8 51 19l50 23q6 3 18.5 11.5t25.5 15.5t24.5 9.5t17.5 -6.5q5 -8 1.5 -15.5t-10.5 -15t-15 -14t-12 -10.5q-15 -15 -29 -33t-14 -38q18 0 38 9t35 15q48 22 95 50q26 16 47 32q9 6 18.5 0t7.5 -18q-2 -9 -8.5 -17.5t-11.5 -17.5q-5 -8 -9.5 -22t-0.5 -25
q11 -6 27 -2l26 8q43 15 80 34q7 3 17.5 8.5t15.5 -4.5q5 -9 -1.5 -13.5t-13.5 -7.5l-66 -31l-46 -21q-25 -11 -50 -5q-18 5 -20.5 20.5t2.5 29.5l15 36q-26 -12 -50.5 -25t-50.5 -24l-26 -15q-15 -8 -31.5 -15.5t-32.5 -11t-28 1.5q-12 4 -12.5 15.5t5.5 26.5t17 32t23 33
l-24 -11q-41 -15 -59 -23t-28 -10q-6 -2 -9.5 1t-5 7t0 8t6.5 6zM247 378q3 -5 11.5 -11t19 -11.5t21.5 -10.5t19 -8q14 -5 30 -8t27 -11q8 -2 9.5 -8t-3.5 -11q-5 -7 -13 -4t-14 5l-64 20q-32 10 -59 28q-5 4 -10.5 9t-7.5 13q-1 7 3 11.5t10 6t12 -0.5t9 -9z" />
    <glyph glyph-name="uacute" unicode="&#xfa;" horiz-adv-x="470" 
d="M0 86q26 8 51 19l50 23q6 3 18.5 11.5t25.5 15.5t24.5 9.5t17.5 -6.5q5 -8 1.5 -15.5t-10.5 -15t-15 -14t-12 -10.5q-15 -15 -29 -33t-14 -38q18 0 38 9t35 15q48 22 95 50q26 16 47 32q9 6 18.5 0t7.5 -18q-2 -9 -8.5 -17.5t-11.5 -17.5q-5 -8 -9.5 -22t-0.5 -25
q11 -6 27 -2l26 8q43 15 80 34q7 3 17.5 8.5t15.5 -4.5q5 -9 -1.5 -13.5t-13.5 -7.5l-66 -31l-46 -21q-25 -11 -50 -5q-18 5 -20.5 20.5t2.5 29.5l15 36q-26 -12 -50.5 -25t-50.5 -24l-26 -15q-15 -8 -31.5 -15.5t-32.5 -11t-28 1.5q-12 4 -12.5 15.5t5.5 26.5t17 32t23 33
l-24 -11q-41 -15 -59 -23t-28 -10q-6 -2 -9.5 1t-5 7t0 8t6.5 6zM402 357q-7 -15 -28 -23.5t-37 -13.5q-14 -5 -27 -9l-27 -7q-4 -1 -10.5 -3.5t-14 -4.5t-14.5 -2.5t-11 2.5q-8 8 1 15t24 12t30 8t18 5l17 7q10 4 19.5 9t17.5 10t10 10q3 8 10 9.5t13 -1t9.5 -9t-0.5 -14.5
z" />
    <glyph glyph-name="ucircumflex" unicode="&#xfb;" horiz-adv-x="470" 
d="M0 86q26 8 51 19l50 23q6 3 18.5 11.5t25.5 15.5t24.5 9.5t17.5 -6.5q5 -8 1.5 -15.5t-10.5 -15t-15 -14t-12 -10.5q-15 -15 -29 -33t-14 -38q18 0 38 9t35 15q48 22 95 50q26 16 47 32q9 6 18.5 0t7.5 -18q-2 -9 -8.5 -17.5t-11.5 -17.5q-5 -8 -9.5 -22t-0.5 -25
q11 -6 27 -2l26 8q43 15 80 34q7 3 17.5 8.5t15.5 -4.5q5 -9 -1.5 -13.5t-13.5 -7.5l-66 -31l-46 -21q-25 -11 -50 -5q-18 5 -20.5 20.5t2.5 29.5l15 36q-26 -12 -50.5 -25t-50.5 -24l-26 -15q-15 -8 -31.5 -15.5t-32.5 -11t-28 1.5q-12 4 -12.5 15.5t5.5 26.5t17 32t23 33
l-24 -11q-41 -15 -59 -23t-28 -10q-6 -2 -9.5 1t-5 7t0 8t6.5 6zM232 335q21 8 40 18t38 22q5 3 13.5 10.5t17.5 14.5t17.5 9.5t14.5 -3.5q11 -11 16 -31t10 -34q2 -5 6 -13.5t3 -15.5q-2 -14 -12.5 -9t-14.5 13l-29 53q-21 -9 -41.5 -21t-39.5 -26q-4 -3 -8.5 -8t-10 -8.5
t-11 -5t-11.5 1.5q-11 5 -10 17t12 16z" />
    <glyph glyph-name="udieresis" unicode="&#xfc;" horiz-adv-x="470" 
d="M0 86q26 8 51 19l50 23q6 3 18.5 11.5t25.5 15.5t24.5 9.5t17.5 -6.5q5 -8 1.5 -15.5t-10.5 -15t-15 -14t-12 -10.5q-15 -15 -29 -33t-14 -38q18 0 38 9t35 15q48 22 95 50q26 16 47 32q9 6 18.5 0t7.5 -18q-2 -9 -8.5 -17.5t-11.5 -17.5q-5 -8 -9.5 -22t-0.5 -25
q11 -6 27 -2l26 8q43 15 80 34q7 3 17.5 8.5t15.5 -4.5q5 -9 -1.5 -13.5t-13.5 -7.5l-66 -31l-46 -21q-25 -11 -50 -5q-18 5 -20.5 20.5t2.5 29.5l15 36q-26 -12 -50.5 -25t-50.5 -24l-26 -15q-15 -8 -31.5 -15.5t-32.5 -11t-28 1.5q-12 4 -12.5 15.5t5.5 26.5t17 32t23 33
l-24 -11q-41 -15 -59 -23t-28 -10q-6 -2 -9.5 1t-5 7t0 8t6.5 6zM373 340l-19 -26q-10 -15 -21 -21q-4 -5 -9 -4t-8 4.5t-3.5 8.5t4.5 9q13 10 22.5 24t17.5 29q3 5 6 12t6.5 14t8.5 11.5t12 4.5q11 -2 15.5 -11.5t-2.5 -17.5zM316 364q-8 -17 -20 -33t-26 -29q-5 -3 -11 -8
t-14 -2q-6 3 -7 6.5t1 7t5.5 6.5t6.5 5q8 5 13.5 13.5t9.5 16.5t4.5 18.5t6.5 18.5q5 7 12 8t12.5 -3t8 -11t-1.5 -14z" />
    <glyph glyph-name="yacute" unicode="&#xfd;" horiz-adv-x="410" 
d="M-2 85l115 59q16 8 36 22t38 18q11 2 18 -8t-1 -20q-5 -9 -14.5 -16.5t-16.5 -15.5q-20 -24 -33 -51q-3 -5 -6 -12t-5 -14.5t-2 -13.5t4 -9q3 -3 13 1.5t22 11t22 13t12 8.5q21 14 39.5 29t35.5 32q4 4 11 7t13 2t9.5 -5.5t2.5 -13.5q-3 -11 -11 -22.5t-13 -20.5
q-8 -11 -14 -22t-13 -22l-78 -142q34 45 75 84q4 4 18 17l32 29q18 16 38.5 32.5t39 28.5t31.5 17t17 -2q3 -6 -5.5 -14.5t-21 -17t-25.5 -15.5t-17 -10q-23 -17 -44.5 -35.5t-41.5 -39.5q-39 -39 -73.5 -84.5t-64.5 -93.5l-22 -40l-21 -40q-4 -6 -7 -13t-8 -12
q-8 -5 -17 -2t-11 12q-3 8 1 14l9 13l27 49l28 50l54 101l53 103q6 14 13 27.5t13 27.5l-42 -32l-20 -18q-11 -9 -23 -16.5t-24.5 -10.5t-24.5 3q-17 6 -19.5 21t3 34.5t17 40.5t23.5 40l-50 -21l-34 -17l-34 -17q-6 -4 -13 -8t-15 0q-6 4 -5.5 11t7.5 9zM410 378
q-7 -15 -28 -23.5t-37 -13.5q-14 -5 -27 -9l-27 -7q-4 -1 -10.5 -3.5t-14 -4.5t-14.5 -2.5t-11 2.5q-8 8 1 15t24 12t30 8t18 5l17 7q10 4 19.5 9t17.5 10t10 10q3 8 10 9.5t13 -1t9.5 -9t-0.5 -14.5z" />
    <glyph glyph-name="thorn" unicode="&#xfe;" horiz-adv-x="408" 
d="M0 86q51 25 100 58t94 67l40 69q21 35 46 67q11 14 24.5 29t31.5 18q17 2 26.5 -10.5t8.5 -27.5q-2 -21 -14.5 -39.5t-30 -34.5t-37 -30t-33.5 -25l-42 -31l-51 -86l-49 -86q32 35 68 69.5t78 57.5q15 8 33.5 15t35.5 2q13 -5 16.5 -14t1 -20t-8.5 -21.5t-12 -17.5
q-11 -14 -21.5 -29t-23.5 -29q11 2 21.5 4.5t21.5 6.5l43 17q9 5 23.5 14t24.5 9q9 0 10.5 -9t-6.5 -14l-21 -10q-11 -5 -22 -11q-35 -15 -70.5 -28.5t-71.5 -21.5q-17 -8 -26 -10t-14 -1t-7 5t-3 10q-4 11 2.5 17t39.5 11q8 5 15 11l13 11q16 14 34.5 37.5t22.5 46.5
q-31 -3 -60.5 -23t-52.5 -39q-32 -26 -60.5 -55.5t-55.5 -61.5l-16 -17l-40 -76l-40 -76q-5 -8 -15 -29.5t-23.5 -42t-28.5 -33t-29 -3.5q-15 10 -9.5 31.5t18.5 44t29 42.5l22 28l46 61l47 59q10 20 20 38l21 36l83 147l-61 -41l-36 -22l-36 -23q-8 -4 -18 -10.5t-17 -1.5
t-6 11.5t7 9.5zM286 289l11 11q8 8 17 18.5t15.5 20.5t5.5 17q-17 -9 -30.5 -29t-24.5 -34l-23 -31z" />
    <glyph glyph-name="ydieresis" unicode="&#xff;" horiz-adv-x="410" 
d="M-2 85l115 59q16 8 36 22t38 18q11 2 18 -8t-1 -20q-5 -9 -14.5 -16.5t-16.5 -15.5q-20 -24 -33 -51q-3 -5 -6 -12t-5 -14.5t-2 -13.5t4 -9q3 -3 13 1.5t22 11t22 13t12 8.5q21 14 39.5 29t35.5 32q4 4 11 7t13 2t9.5 -5.5t2.5 -13.5q-3 -11 -11 -22.5t-13 -20.5
q-8 -11 -14 -22t-13 -22l-78 -142q34 45 75 84q4 4 18 17l32 29q18 16 38.5 32.5t39 28.5t31.5 17t17 -2q3 -6 -5.5 -14.5t-21 -17t-25.5 -15.5t-17 -10q-23 -17 -44.5 -35.5t-41.5 -39.5q-39 -39 -73.5 -84.5t-64.5 -93.5l-22 -40l-21 -40q-4 -6 -7 -13t-8 -12
q-8 -5 -17 -2t-11 12q-3 8 1 14l9 13l27 49l28 50l54 101l53 103q6 14 13 27.5t13 27.5l-42 -32l-20 -18q-11 -9 -23 -16.5t-24.5 -10.5t-24.5 3q-17 6 -19.5 21t3 34.5t17 40.5t23.5 40l-50 -21l-34 -17l-34 -17q-6 -4 -13 -8t-15 0q-6 4 -5.5 11t7.5 9zM366 329l-19 -26
q-10 -15 -21 -21q-4 -5 -9 -4t-8 4.5t-3.5 8.5t4.5 9q13 10 22.5 24t17.5 29q3 5 6 12t6.5 14t8.5 11.5t12 4.5q11 -2 15.5 -11.5t-2.5 -17.5zM309 353q-8 -17 -20 -33t-26 -29q-5 -3 -11 -8t-14 -2q-6 3 -7 6.5t1 7t5.5 6.5t6.5 5q8 5 13.5 13.5t9.5 16.5t4.5 18.5
t6.5 18.5q5 7 12 8t12.5 -3t8 -11t-1.5 -14z" />
    <glyph glyph-name="Amacron" unicode="&#x100;" horiz-adv-x="730" 
d="M8 25q35 17 73 28.5t76 20.5l25 39l67 91l71 88q36 42 74.5 82.5t81.5 75.5q21 17 43 32t45 27q6 3 19.5 9t27.5 9.5t26 2.5t16 -12q2 -7 -1.5 -14.5t-5.5 -13.5l-23 -47l-19 -39l-39 -78l-36 -80l-31 -72q-15 -36 -28 -74q8 0 15.5 -1t13.5 -3q12 -5 11.5 -17.5
t-12.5 -16.5q-9 -2 -19 -1t-21 3l-4 -21q-6 -21 -11.5 -44.5t-9 -47t-4.5 -46.5t3 -44l53 54q25 26 55 49q45 35 92.5 65t97.5 57q5 3 9 1.5t6.5 -5.5t2 -8.5t-5.5 -7.5l-41 -22l-52 -31q-25 -15 -49 -33q-77 -56 -139 -132q-5 -8 -10.5 -14t-16.5 -8q-14 -2 -22 4t-12.5 16
t-5.5 22t0 22q1 44 13 89t26 87q-17 1 -34 1.5t-34 0.5q-36 2 -72 0t-71 -7l-46 -7l-14 -26l-25 -48q-13 -25 -16 -51q-1 -8 -3.5 -16t-13.5 -9q-9 0 -14.5 6t-4.5 14q1 25 13 49l24 45q4 8 8 14l9 14q-14 -3 -26.5 -6.5t-26.5 -8.5q-18 -5 -34.5 -12t-33.5 -15
q-5 -3 -9.5 -1t-6 6t-0.5 8.5t6 7.5zM446 102q26 69 54 135l58 133l27 61q13 30 25 62q-23 -4 -46 -15.5t-44 -26.5t-40 -31l-34 -30q-84 -77 -156 -170q-51 -68 -97 -138l83 12q37 3 74 4.5t75 -0.5h20q0 3 1 4zM552 619q35 -4 71 -1.5t71 7.5q15 2 34.5 7.5t36.5 3.5
q13 -2 15 -14.5t-9 -19.5q-12 -7 -31.5 -5.5t-33.5 -0.5q-19 -1 -37.5 -1.5t-38.5 -0.5q-17 0 -34.5 0.5t-35.5 0.5q-6 0 -11.5 1t-8.5 6q-3 7 1 12.5t11 4.5z" />
    <glyph glyph-name="amacron" unicode="&#x101;" horiz-adv-x="440" 
d="M-1 85l30 16q19 9 40 18l40 17l33 13q7 3 25 9t38 11t37.5 7t25.5 -3q12 -11 4.5 -20t-18.5 -11l-45 -5q-14 -4 -23.5 -9.5t-21.5 -13.5q-5 -4 -17.5 -16.5t-24.5 -27t-19 -28t0 -19.5q6 -5 19.5 -2t27.5 9t26 12.5t16 9.5q29 18 47 38q9 10 19.5 2.5t6.5 -20.5
q-2 -7 -7 -12l-10 -10q-4 -4 -7 -12q-4 -7 -2 -10.5t7 -4.5q14 -2 35 2t43.5 11t44.5 16.5t38 17.5q4 1 11 5.5t14.5 7.5t14.5 3t10 -6q4 -6 -0.5 -11t-12.5 -8.5t-16 -6.5t-12 -5l-34 -15l-35 -16q-12 -5 -26 -12t-29 -12t-30.5 -7t-28.5 3q-17 7 -20 19.5t1 26.5l-27 -16
l-35 -20q-19 -11 -39 -13q-18 -1 -32 8t-15 28q0 10 8 25.5t20.5 32t27.5 30.5t28 21q-7 -2 -22.5 -9t-35.5 -17l-40 -20l-40 -20q-5 -3 -10 -1.5t-7.5 5t-2 8t6.5 7.5zM213 349q35 -4 71 -1.5t71 7.5q15 2 34.5 7.5t36.5 3.5q13 -2 15 -14.5t-9 -19.5q-12 -7 -31.5 -5.5
t-33.5 -0.5q-19 -1 -37.5 -1.5t-38.5 -0.5q-17 0 -34.5 0.5t-35.5 0.5q-6 0 -11.5 1t-8.5 6q-3 7 1 12.5t11 4.5z" />
    <glyph glyph-name="Abreve" unicode="&#x102;" horiz-adv-x="730" 
d="M8 25q35 17 73 28.5t76 20.5l25 39l67 91l71 88q36 42 74.5 82.5t81.5 75.5q21 17 43 32t45 27q6 3 19.5 9t27.5 9.5t26 2.5t16 -12q2 -7 -1.5 -14.5t-5.5 -13.5l-23 -47l-19 -39l-39 -78l-36 -80l-31 -72q-15 -36 -28 -74q8 0 15.5 -1t13.5 -3q12 -5 11.5 -17.5
t-12.5 -16.5q-9 -2 -19 -1t-21 3l-4 -21q-6 -21 -11.5 -44.5t-9 -47t-4.5 -46.5t3 -44l53 54q25 26 55 49q45 35 92.5 65t97.5 57q5 3 9 1.5t6.5 -5.5t2 -8.5t-5.5 -7.5l-41 -22l-52 -31q-25 -15 -49 -33q-77 -56 -139 -132q-5 -8 -10.5 -14t-16.5 -8q-14 -2 -22 4t-12.5 16
t-5.5 22t0 22q1 44 13 89t26 87q-17 1 -34 1.5t-34 0.5q-36 2 -72 0t-71 -7l-46 -7l-14 -26l-25 -48q-13 -25 -16 -51q-1 -8 -3.5 -16t-13.5 -9q-9 0 -14.5 6t-4.5 14q1 25 13 49l24 45q4 8 8 14l9 14q-14 -3 -26.5 -6.5t-26.5 -8.5q-18 -5 -34.5 -12t-33.5 -15
q-5 -3 -9.5 -1t-6 6t-0.5 8.5t6 7.5zM446 102q26 69 54 135l58 133l27 61q13 30 25 62q-23 -4 -46 -15.5t-44 -26.5t-40 -31l-34 -30q-84 -77 -156 -170q-51 -68 -97 -138l83 12q37 3 74 4.5t75 -0.5h20q0 3 1 4zM789 634l-35 -27q-19 -15 -40 -27t-43 -19t-44 -4
q-23 5 -31.5 23.5t-2.5 38.5q4 15 14 33q2 3 6 6t8 4t7.5 -1t3.5 -9q1 -5 -2 -13l-5 -16q-2 -9 -2.5 -17t4.5 -12q6 -4 16 -4.5t21 1.5t21 5t16 6q18 9 35 24t27 32q5 9 13 8.5t14 -5.5t7 -13t-8 -14z" />
    <glyph glyph-name="abreve" unicode="&#x103;" horiz-adv-x="440" 
d="M-1 85l30 16q19 9 40 18l40 17l33 13q7 3 25 9t38 11t37.5 7t25.5 -3q12 -11 4.5 -20t-18.5 -11l-45 -5q-14 -4 -23.5 -9.5t-21.5 -13.5q-5 -4 -17.5 -16.5t-24.5 -27t-19 -28t0 -19.5q6 -5 19.5 -2t27.5 9t26 12.5t16 9.5q29 18 47 38q9 10 19.5 2.5t6.5 -20.5
q-2 -7 -7 -12l-10 -10q-4 -4 -7 -12q-4 -7 -2 -10.5t7 -4.5q14 -2 35 2t43.5 11t44.5 16.5t38 17.5q4 1 11 5.5t14.5 7.5t14.5 3t10 -6q4 -6 -0.5 -11t-12.5 -8.5t-16 -6.5t-12 -5l-34 -15l-35 -16q-12 -5 -26 -12t-29 -12t-30.5 -7t-28.5 3q-17 7 -20 19.5t1 26.5l-27 -16
l-35 -20q-19 -11 -39 -13q-18 -1 -32 8t-15 28q0 10 8 25.5t20.5 32t27.5 30.5t28 21q-7 -2 -22.5 -9t-35.5 -17l-40 -20l-40 -20q-5 -3 -10 -1.5t-7.5 5t-2 8t6.5 7.5zM427 364l-35 -27q-19 -15 -40 -27t-43 -19t-44 -4q-23 5 -31.5 23.5t-2.5 38.5q4 15 14 33q2 3 6 6t8 4
t7.5 -1t3.5 -9q1 -5 -2 -13l-5 -17q-2 -8 -2.5 -16t4.5 -12q6 -4 16 -4.5t21 1.5t21 5t16 6q18 9 35 24t27 32q5 9 13 8.5t14 -5.5t7 -13t-8 -14z" />
    <glyph glyph-name="Aogonek" unicode="&#x104;" horiz-adv-x="730" 
d="M8 25q35 17 73 28.5t76 20.5l25 39l67 91l71 88q36 42 74.5 82.5t81.5 75.5q21 17 43 32t45 27q6 3 19.5 9t27.5 9.5t26 2.5t16 -12q2 -7 -1.5 -14.5t-5.5 -13.5l-23 -47l-19 -39l-39 -78l-36 -80l-31 -72q-15 -36 -28 -74q8 0 15.5 -1t13.5 -3q12 -5 11.5 -17.5
t-12.5 -16.5q-9 -2 -19 -1t-21 3l-4 -21q-11 -40 -20 -85t-4 -86q6 6 12.5 11.5t13.5 10.5l44 36q19 17 40 34q45 35 92.5 65t97.5 57q5 3 9 1.5t6.5 -5.5t2 -8.5t-5.5 -7.5l-41 -22l-52 -31q-25 -15 -49 -33q-77 -56 -139 -132q-5 -8 -10.5 -14t-16.5 -8q-5 -1 -9 -0.5
t-7 1.5l-16 -19q-8 -10 -14.5 -20.5t-10.5 -20t-1 -15.5q6 -11 15 -10t18.5 7.5t17.5 15.5l13 15q3 4 6.5 9.5t8 8.5t8.5 2t7 -11q5 -18 -3.5 -26t-15.5 -13q-8 -6 -18.5 -15.5t-22 -17t-22.5 -10t-21 3.5q-11 7 -14.5 20t-2 28t7.5 29t13 23q15 20 29 34q-5 10 -6 22.5
t0 22.5q1 44 13 89t26 87q-17 1 -34 1.5t-34 0.5q-36 2 -72 0t-71 -7l-46 -7l-14 -26l-25 -48q-13 -25 -16 -51q-1 -8 -3.5 -16t-13.5 -9q-9 0 -14.5 6t-4.5 14q1 25 13 49l24 45q4 8 8 14l9 14q-14 -3 -26.5 -6.5t-26.5 -8.5q-18 -5 -34.5 -12t-33.5 -15q-5 -3 -9.5 -1
t-6 6t-0.5 8.5t6 7.5zM446 102q26 69 54 135l58 133l27 61q13 30 25 62q-23 -4 -46 -15.5t-44 -26.5t-40 -31l-34 -30q-84 -77 -156 -170q-51 -68 -97 -138l83 12q37 3 74 4.5t75 -0.5h20q0 3 1 4z" />
    <glyph glyph-name="aogonek" unicode="&#x105;" horiz-adv-x="440" 
d="M-1 85l30 16q19 9 40 18l40 17l33 13q7 3 25 9t38 11t37.5 7t25.5 -3q12 -11 4.5 -20t-18.5 -11l-45 -5q-14 -4 -23.5 -9.5t-21.5 -13.5q-5 -4 -17.5 -16.5t-24.5 -27t-19 -28t0 -19.5q6 -5 19.5 -2t27.5 9t26 12.5t16 9.5q29 18 47 38q9 10 19.5 2.5t6.5 -20.5
q-2 -7 -7 -12l-10 -10q-4 -4 -7 -12q-4 -7 -2 -10.5t7 -4.5q14 -2 35 2t43.5 11t44.5 16.5t38 17.5q4 1 11 5.5t14.5 7.5t14.5 3t10 -6q4 -6 -0.5 -11t-12.5 -8.5t-16 -6.5t-12 -5l-34 -15l-35 -16l-23 -10q-13 -6 -27 -11l-25 -13q-13 -7 -26 -15q-4 -2 -18 -11.5
t-28.5 -21.5t-24.5 -23t-5 -17q8 -9 20.5 -8.5t25.5 5.5t25 12.5t18 12.5q4 4 9.5 8.5t11 7t11 1.5t10.5 -8q4 -8 2.5 -13.5t-6.5 -9t-11 -6.5t-11 -5q-12 -5 -26.5 -12.5t-30 -13.5t-31.5 -8t-29 3q-16 6 -20.5 17t-2 23t10.5 23.5t17 19.5q17 13 34.5 24t35.5 21
q-17 7 -20 19.5t1 26.5l-27 -16l-35 -20q-19 -11 -39 -13q-18 -1 -32 8t-15 28q0 10 8 25.5t20.5 32t27.5 30.5t28 21q-7 -2 -22.5 -9t-35.5 -17l-40 -20l-40 -20q-5 -3 -10 -1.5t-7.5 5t-2 8t6.5 7.5z" />
    <glyph glyph-name="Cacute" unicode="&#x106;" horiz-adv-x="500" 
d="M277 130q20 15 37 36t31.5 45t26 48.5t20.5 47.5q11 25 17 52t4 54q-2 29 -20.5 36t-44.5 2q-27 -5 -51.5 -18.5t-46.5 -32.5t-41.5 -40.5t-35.5 -41.5q-36 -45 -65.5 -93.5t-49.5 -102.5q-8 -18 -15.5 -45t-8.5 -54t8.5 -49t36.5 -30t55.5 -6t57.5 9.5t57 18.5l52 21
q26 11 51 23l52 26l52 25l12 7l16 10q9 5 17 8t14 3q9 -1 10 -10.5t-7 -12.5q-8 -8 -21 -11.5t-23 -8.5l-56 -29l-56 -28l-94 -46q-47 -23 -99 -34q-23 -5 -49 -5t-48.5 7t-40 23t-23.5 44q-5 24 -2.5 50t10 51.5t18 49.5t21.5 45q50 102 123 187l33 37q17 19 36.5 35.5
t41 29.5t45.5 19q21 7 46.5 6.5t43.5 -16.5t21 -38.5t-1 -44.5q-9 -53 -33 -103t-50 -96l-28 -46q-14 -22 -32 -42q-8 -5 -15.5 -3.5t-12 6.5t-4.5 12t8 13zM525 591q-7 -15 -28 -23.5t-37 -13.5q-14 -5 -27 -9l-27 -7q-4 -1 -10.5 -3.5t-14 -4.5t-14.5 -2.5t-11 2.5
q-8 8 1 15t24 12t30 8t18 5l17 7q10 4 19.5 9t17.5 10t10 10q3 8 10 9.5t13 -1t9.5 -9t-0.5 -14.5z" />
    <glyph glyph-name="cacute" unicode="&#x107;" horiz-adv-x="356" 
d="M2 86q26 11 49.5 25t48.5 26q9 4 17 8t17 6q17 7 40 12t41 3q7 -2 11.5 -7.5t5 -11.5t-3 -11t-12.5 -6q-6 -2 -13.5 -0.5t-15.5 2.5q-14 1 -27.5 -1t-26.5 -9q-20 -9 -29 -27.5t6 -38.5q15 -18 37 -23.5t46.5 -3t48.5 9.5t42 13q23 7 42 17l33 17q7 5 13.5 -1.5
t1.5 -14.5q-3 -8 -13.5 -12t-18.5 -6q-41 -20 -86 -37t-92 -17q-21 -1 -40 7t-32 22t-17.5 33.5t5.5 41.5v1q-11 -6 -21.5 -13t-21.5 -12l-15 -10q-8 -6 -16 -4q-9 0 -10.5 9.5t6.5 12.5zM354 351q-7 -15 -28 -23.5t-37 -13.5q-14 -5 -27 -9l-27 -7q-4 -1 -10.5 -3.5
t-14 -4.5t-14.5 -2.5t-11 2.5q-8 8 1 15t24 12t30 8t18 5l17 7q10 4 19.5 9t17.5 10t10 10q3 8 10 9.5t13 -1t9.5 -9t-0.5 -14.5z" />
    <glyph glyph-name="Ccircumflex" unicode="&#x108;" horiz-adv-x="500" 
d="M277 130q20 15 37 36t31.5 45t26 48.5t20.5 47.5q11 25 17 52t4 54q-2 29 -20.5 36t-44.5 2q-27 -5 -51.5 -18.5t-46.5 -32.5t-41.5 -40.5t-35.5 -41.5q-36 -45 -65.5 -93.5t-49.5 -102.5q-8 -18 -15.5 -45t-8.5 -54t8.5 -49t36.5 -30t55.5 -6t57.5 9.5t57 18.5l52 21
q26 11 51 23l52 26l52 25l12 7l16 10q9 5 17 8t14 3q9 -1 10 -10.5t-7 -12.5q-8 -8 -21 -11.5t-23 -8.5l-56 -29l-56 -28l-94 -46q-47 -23 -99 -34q-23 -5 -49 -5t-48.5 7t-40 23t-23.5 44q-5 24 -2.5 50t10 51.5t18 49.5t21.5 45q50 102 123 187l33 37q17 19 36.5 35.5
t41 29.5t45.5 19q21 7 46.5 6.5t43.5 -16.5t21 -38.5t-1 -44.5q-9 -53 -33 -103t-50 -96l-28 -46q-14 -22 -32 -42q-8 -5 -15.5 -3.5t-12 6.5t-4.5 12t8 13zM315 569q21 8 40 18t38 22q5 3 13.5 10.5t17.5 14.5t17.5 9.5t14.5 -3.5q11 -11 16 -31t10 -34q2 -5 6 -13.5
t3 -15.5q-2 -14 -12.5 -9t-14.5 13l-29 53q-21 -9 -41.5 -21t-39.5 -26q-4 -3 -8.5 -8t-10 -8.5t-11 -5t-11.5 1.5q-11 5 -10 17t12 16z" />
    <glyph glyph-name="ccircumflex" unicode="&#x109;" horiz-adv-x="356" 
d="M2 86q26 11 49.5 25t48.5 26q9 4 17 8t17 6q17 7 40 12t41 3q7 -2 11.5 -7.5t5 -11.5t-3 -11t-12.5 -6q-6 -2 -13.5 -0.5t-15.5 2.5q-14 1 -27.5 -1t-26.5 -9q-20 -9 -29 -27.5t6 -38.5q15 -18 37 -23.5t46.5 -3t48.5 9.5t42 13q23 7 42 17l33 17q7 5 13.5 -1.5
t1.5 -14.5q-3 -8 -13.5 -12t-18.5 -6q-41 -20 -86 -37t-92 -17q-21 -1 -40 7t-32 22t-17.5 33.5t5.5 41.5v1q-11 -6 -21.5 -13t-21.5 -12l-15 -10q-8 -6 -16 -4q-9 0 -10.5 9.5t6.5 12.5zM175 333q21 8 40 18t38 22q5 3 13.5 10.5t17.5 14.5t17.5 9.5t14.5 -3.5
q11 -11 16 -31t10 -34q2 -5 6 -13.5t3 -15.5q-2 -14 -12.5 -9t-14.5 13l-29 53q-21 -9 -41.5 -21t-39.5 -26q-4 -3 -8.5 -8t-10 -8.5t-11 -5t-11.5 1.5q-11 5 -10 17t12 16z" />
    <glyph glyph-name="Cdotaccent" unicode="&#x10a;" horiz-adv-x="500" 
d="M277 130q20 15 37 36t31.5 45t26 48.5t20.5 47.5q11 25 17 52t4 54q-2 29 -20.5 36t-44.5 2q-27 -5 -51.5 -18.5t-46.5 -32.5t-41.5 -40.5t-35.5 -41.5q-36 -45 -65.5 -93.5t-49.5 -102.5q-8 -18 -15.5 -45t-8.5 -54t8.5 -49t36.5 -30t55.5 -6t57.5 9.5t57 18.5l52 21
q26 11 51 23l52 26l52 25l12 7l16 10q9 5 17 8t14 3q9 -1 10 -10.5t-7 -12.5q-8 -8 -21 -11.5t-23 -8.5l-56 -29l-56 -28l-94 -46q-47 -23 -99 -34q-23 -5 -49 -5t-48.5 7t-40 23t-23.5 44q-5 24 -2.5 50t10 51.5t18 49.5t21.5 45q50 102 123 187l33 37q17 19 36.5 35.5
t41 29.5t45.5 19q21 7 46.5 6.5t43.5 -16.5t21 -38.5t-1 -44.5q-9 -53 -33 -103t-50 -96l-28 -46q-14 -22 -32 -42q-8 -5 -15.5 -3.5t-12 6.5t-4.5 12t8 13zM424 588q15 0 18 -9.5t-3 -21t-18 -20.5t-27 -9t-17.5 9.5t3.5 21t18 20.5t26 9z" />
    <glyph glyph-name="cdotaccent" unicode="&#x10b;" horiz-adv-x="356" 
d="M2 86q26 11 49.5 25t48.5 26q9 4 17 8t17 6q17 7 40 12t41 3q7 -2 11.5 -7.5t5 -11.5t-3 -11t-12.5 -6q-6 -2 -13.5 -0.5t-15.5 2.5q-14 1 -27.5 -1t-26.5 -9q-20 -9 -29 -27.5t6 -38.5q15 -18 37 -23.5t46.5 -3t48.5 9.5t42 13q23 7 42 17l33 17q7 5 13.5 -1.5
t1.5 -14.5q-3 -8 -13.5 -12t-18.5 -6q-41 -20 -86 -37t-92 -17q-21 -1 -40 7t-32 22t-17.5 33.5t5.5 41.5v1q-11 -6 -21.5 -13t-21.5 -12l-15 -10q-8 -6 -16 -4q-9 0 -10.5 9.5t6.5 12.5zM267 365q15 0 18 -9.5t-3 -21t-18 -20.5t-27 -9t-17.5 9.5t3.5 21t18 20.5t26 9z" />
    <glyph glyph-name="Ccaron" unicode="&#x10c;" horiz-adv-x="500" 
d="M277 130q20 15 37 36t31.5 45t26 48.5t20.5 47.5q11 25 17 52t4 54q-2 29 -20.5 36t-44.5 2q-27 -5 -51.5 -18.5t-46.5 -32.5t-41.5 -40.5t-35.5 -41.5q-36 -45 -65.5 -93.5t-49.5 -102.5q-8 -18 -15.5 -45t-8.5 -54t8.5 -49t36.5 -30t55.5 -6t57.5 9.5t57 18.5l52 21
q26 11 51 23l52 26l52 25l12 7l16 10q9 5 17 8t14 3q9 -1 10 -10.5t-7 -12.5q-8 -8 -21 -11.5t-23 -8.5l-56 -29l-56 -28l-94 -46q-47 -23 -99 -34q-23 -5 -49 -5t-48.5 7t-40 23t-23.5 44q-5 24 -2.5 50t10 51.5t18 49.5t21.5 45q50 102 123 187l33 37q17 19 36.5 35.5
t41 29.5t45.5 19q21 7 46.5 6.5t43.5 -16.5t21 -38.5t-1 -44.5q-9 -53 -33 -103t-50 -96l-28 -46q-14 -22 -32 -42q-8 -5 -15.5 -3.5t-12 6.5t-4.5 12t8 13zM564 617q-18 -5 -36 -13.5t-35 -17.5l-41 -23l-14 -12q-8 -6 -16 -8q-10 -3 -15 4.5t-7.5 19t-3.5 23t-1 16.5
q-2 7 -4 15t-1 15q-2 7 1.5 10t8 2t9 -4.5t6.5 -8.5q4 -13 7.5 -26t8.5 -26q24 8 47 20.5t44 26.5q9 5 20 14.5t22 7.5q13 -4 13.5 -17.5t-13.5 -17.5z" />
    <glyph glyph-name="ccaron" unicode="&#x10d;" horiz-adv-x="356" 
d="M2 86q26 11 49.5 25t48.5 26q9 4 17 8t17 6q17 7 40 12t41 3q7 -2 11.5 -7.5t5 -11.5t-3 -11t-12.5 -6q-6 -2 -13.5 -0.5t-15.5 2.5q-14 1 -27.5 -1t-26.5 -9q-20 -9 -29 -27.5t6 -38.5q15 -18 37 -23.5t46.5 -3t48.5 9.5t42 13q23 7 42 17l33 17q7 5 13.5 -1.5
t1.5 -14.5q-3 -8 -13.5 -12t-18.5 -6q-41 -20 -86 -37t-92 -17q-21 -1 -40 7t-32 22t-17.5 33.5t5.5 41.5v1q-11 -6 -21.5 -13t-21.5 -12l-15 -10q-8 -6 -16 -4q-9 0 -10.5 9.5t6.5 12.5zM382 380q-18 -5 -36 -13.5t-35 -17.5l-41 -23l-14 -12q-8 -6 -16 -8q-10 -3 -15 4.5
t-7.5 19t-3.5 23t-1 16.5q-2 7 -4 15t-1 15q-2 7 1.5 10t8 2t9 -4.5t6.5 -8.5q4 -13 7.5 -26t8.5 -26q24 8 47 20.5t44 26.5q9 5 20 14.5t22 7.5q13 -4 13.5 -17.5t-13.5 -17.5z" />
    <glyph glyph-name="Dcaron" unicode="&#x10e;" horiz-adv-x="673" 
d="M132 269q42 37 89.5 67t97.5 55q26 13 53 24.5t54 21.5l38 43q18 19 38.5 37t44.5 27q6 2 17.5 4t22 1t17.5 -6.5t3 -18.5q-2 -7 -9 -10t-15 0q-9 4 -19 2t-20 -7t-19 -12l-15 -12q-11 -8 -20 -17l-18 -18q14 4 29 6.5t31 4.5q25 3 53 2t55 -8.5t49.5 -22.5t35.5 -40
q12 -23 11 -48.5t-9.5 -51t-22 -48.5t-27.5 -42q-66 -90 -160.5 -153t-200.5 -92q-44 -11 -87 -18q2 -12 6 -21.5t13 -17.5q8 -7 7 -14t-7 -11t-14.5 -3.5t-15.5 9.5q-9 12 -13.5 26t-6.5 29q-28 -2 -56.5 -2.5t-57.5 1.5q-7 0 -20.5 0.5t-27 3t-22.5 8.5t-7 17q1 8 7.5 12
t14.5 2q16 -5 32 -8t33 -5q25 -4 51 -4.5t52 1.5q2 34 12.5 68t20.5 61q20 54 45.5 104.5t54.5 99.5q15 27 32 53l35 52q-52 -20 -96 -44t-83 -54q-9 -7 -17.5 -14.5t-16.5 -15.5q-8 -7 -15.5 -17t-16.5 -15q-7 -4 -13 -2t-10 7.5t-3.5 12t6.5 11.5zM439 414
q-42 -54 -73.5 -103t-57.5 -99q-26 -52 -48 -108t-30 -115q-1 -5 -1.5 -11t-0.5 -14q63 8 124 28.5t116 54.5q42 26 80.5 58t70.5 70q14 17 28.5 37t26 41.5t19 44.5t7.5 46q0 22 -11 37.5t-28 26t-37 16t-38 7.5q-38 2 -74.5 -2.5t-72.5 -14.5zM798 613q-18 -5 -36 -13.5
t-35 -17.5l-41 -23l-14 -11q-8 -7 -16 -9q-10 -3 -15 4.5t-7.5 19t-3.5 23t-1 16.5q-2 7 -4 15t-1 15q-2 7 1.5 10t8 2t9 -4.5t6.5 -8.5q4 -13 7.5 -26t8.5 -26q24 8 47 20.5t44 26.5q9 5 20 14.5t22 7.5q13 -4 13.5 -17.5t-13.5 -17.5z" />
    <glyph glyph-name="dcaron" unicode="&#x10f;" horiz-adv-x="404" 
d="M2 86q26 9 49.5 22t48.5 24q16 8 33 13l34 10q20 7 43 7q9 0 15 -8t1 -17q-3 -6 -9 -8.5t-13.5 -3t-14.5 -0.5h-14q-14 -1 -28.5 -8.5t-27.5 -18.5q-17 -12 -31 -32q-1 -2 -4.5 -8.5t-6.5 -13.5t-4.5 -13t1.5 -9t9.5 -1.5t13 5t12 7t7.5 4.5q17 10 32 21l31 22l47 42
q17 35 36 69l39 69l28 46q14 23 30 46q15 21 33 43.5t42 34.5l14 4q6 2 13 0q11 -2 16 -8t5.5 -14.5t-2 -18t-6.5 -16.5q-17 -29 -38 -55l-44 -52l-68 -80q-35 -38 -73 -74l-9 -27l-10 -27q-2 -5 -4.5 -12t-5 -15t-4 -16t-0.5 -13q18 1 36.5 8t34.5 14q28 11 57 26l54 30
q3 2 8.5 2.5t10 -0.5t5.5 -5t-3 -11q-5 -8 -15 -11.5t-17 -6.5l-56 -29l-55 -30q-8 -4 -18 -9.5t-21 -9.5t-21.5 -4t-19.5 6q-9 7 -11.5 17t-1 21.5t5 22t6.5 18.5q1 4 2 7.5t3 8.5l-50 -43q-8 -8 -18 -16.5t-21.5 -15t-23.5 -9.5t-24 0q-20 6 -24.5 19t1 29t17.5 32.5
t26 30.5l-25 -10q-10 -5 -24 -13.5t-25 -9.5q-6 -3 -10 -0.5t-5.5 6.5t-0.5 8.5t7 6.5zM402 239q23 17 43.5 37.5t34.5 46.5q5 10 9.5 23.5t18.5 13.5q10 -1 14.5 -9.5t-0.5 -17.5q-8 -23 -28 -43.5t-37 -34.5q-9 -8 -19.5 -19t-21.5 -16q-5 -4 -9.5 -3t-7 5t-2.5 9t5 8z
M286 184l51 55q25 29 48 59l20 27q10 14 19 29q3 6 11.5 19t10.5 24q-14 -5 -26 -19l-19 -22q-23 -25 -43 -52t-38 -56l-40 -70z" />
    <glyph glyph-name="Dcroat" unicode="&#x110;" horiz-adv-x="673" 
d="M164 151q23 -2 45 -2.5t45 1.5q35 76 76 145q15 27 32 53l35 52q-52 -20 -96 -44t-83 -54q-9 -7 -17.5 -14.5t-16.5 -15.5q-8 -7 -15.5 -17t-16.5 -15q-7 -4 -13 -2t-10 7.5t-3.5 12t6.5 11.5q42 37 89.5 67t97.5 55q26 13 53 24.5t54 21.5l38 43q18 19 38.5 37t44.5 27
q6 2 17.5 4t22 1t17.5 -6.5t3 -18.5q-2 -7 -9 -10t-15 0q-9 4 -19 2t-20 -7t-19 -12l-15 -12q-11 -8 -20 -17l-18 -18q14 4 29 6.5t31 4.5q25 3 53 2t55 -8.5t49.5 -22.5t35.5 -40q12 -23 11 -48.5t-9.5 -51t-22 -48.5t-27.5 -42q-66 -90 -160.5 -153t-200.5 -92
q-44 -11 -87 -18q2 -12 6 -21.5t13 -17.5q8 -7 7 -14t-7 -11t-14.5 -3.5t-15.5 9.5q-9 12 -13.5 26t-6.5 29q-28 -2 -56.5 -2.5t-57.5 1.5q-7 0 -20.5 0.5t-27 3t-22.5 8.5t-7 17q1 8 7.5 12t14.5 2q16 -5 32 -8t33 -5q25 -4 51 -4.5t52 1.5q2 34 12.5 68t20.5 61q3 9 6 17
l8 18h-2q-17 0 -34.5 0.5t-35.5 0.5q-6 0 -11.5 1t-8.5 6q-3 7 1 12.5t11 4.5zM439 414q-42 -54 -73.5 -103t-57.5 -99q-8 -14 -14 -29l-14 -30q7 1 13 1.5t13 2.5q15 2 34.5 7.5t36.5 3.5q13 -2 15 -14.5t-9 -19.5q-12 -7 -31.5 -5.5t-33.5 -0.5q-13 -1 -25 -1.5t-25 -0.5
q-14 -34 -23.5 -68t-14.5 -69q-1 -5 -1.5 -11t-0.5 -14q63 8 124 28.5t116 54.5q42 26 80.5 58t70.5 70q14 17 28.5 37t26 41.5t19 44.5t7.5 46q0 22 -11 37.5t-28 26t-37 16t-38 7.5q-38 2 -74.5 -2.5t-72.5 -14.5z" />
    <glyph glyph-name="dcroat" unicode="&#x111;" horiz-adv-x="402" 
d="M240 274q17 -2 34 -2.5t34 0.5l24 40l27 40q15 21 33 43.5t42 34.5l14 4q6 2 13 0q11 -2 16 -8t5.5 -14.5t-2 -18t-6.5 -16.5q-14 -26 -32 -48l-38 -45l24 6q13 3 24 1q13 -2 15.5 -14.5t-9.5 -18.5q-6 -4 -14 -5t-17 -1h-17h-16l-19 -2q-29 -35 -60 -68.5t-64 -65.5
l-9 -27l-10 -27q-2 -5 -4.5 -12t-5 -15t-4 -16t-0.5 -13q18 1 36.5 8t34.5 14q28 11 57 27l54 29q3 2 8.5 2.5t10 -0.5t5.5 -5t-3 -11q-5 -8 -15 -11.5t-17 -6.5l-56 -29l-55 -30q-8 -4 -18 -9.5t-21 -9.5t-21.5 -4t-19.5 6q-9 7 -11.5 17t-1 21.5t5 22t6.5 18.5q1 4 2 7.5
t3 8.5l-50 -43q-8 -8 -18 -16.5t-21.5 -15t-23.5 -9.5t-24 0q-20 6 -24.5 19t1 29t17.5 32.5t26 30.5l-25 -10q-10 -5 -24 -13.5t-25 -9.5q-6 -3 -10 -0.5t-5.5 6.5t-0.5 8.5t7 6.5q26 9 49.5 22t48.5 24q16 8 33 13l34 10q20 7 43 7q9 0 15 -8t1 -17q-3 -6 -9 -8.5
t-13.5 -3t-15.5 -0.5h-13q-14 -1 -28.5 -8.5t-27.5 -18.5q-17 -12 -31 -32q-1 -2 -4.5 -8.5t-6.5 -13.5t-4.5 -13t1.5 -9t9.5 -1.5t13 5t12 7t7.5 4.5q17 10 32 21l31 22l47 42q15 32 32 64l36 63q-11 0 -23 0.5t-24 0.5q-5 0 -10.5 1t-8.5 7q-4 6 0 12t12 4zM401 356
q-35 -38 -64 -82q8 1 16 1.5t16 2.5q5 5 8.5 10t7.5 10l20 27q10 14 19 29q3 6 11.5 19t10.5 24q-14 -5 -26 -19zM286 184l59 65h-25v-1l-40 -70z" />
    <glyph glyph-name="Emacron" unicode="&#x112;" horiz-adv-x="490" 
d="M268 268q51 11 101 38t81 72q5 7 10.5 18t9 22.5t2.5 23t-8 20.5q-8 10 -20 13t-25.5 2.5t-27 -3.5t-23.5 -6q-53 -15 -99 -45t-83 -71l-16 -20q-12 -15 -24.5 -33.5t-23 -39t-14.5 -38t1 -30t24 -15.5q22 -3 40 5t38 10q8 2 15.5 -4t5.5 -15q-2 -12 -17 -19t-24 -13
q-21 -13 -43 -28.5t-42.5 -33.5t-37.5 -39.5t-26 -45.5q-10 -26 3 -37.5t34.5 -15t46 -1t37.5 5.5q55 11 106.5 33.5t101.5 47.5l96 48q7 3 16 9t17 6q9 -1 10.5 -5t-0.5 -8.5t-6.5 -8.5t-7.5 -6q-17 -7 -34 -15t-34 -17l-123 -63q-63 -33 -130 -51q-29 -9 -62 -11.5
t-63 8.5q-29 11 -39.5 34.5t1.5 52.5t35 53l44 44l55 47q-16 1 -29.5 6t-24.5 18q-12 15 -12.5 33t5 36.5t15 35.5t18.5 30q42 66 105.5 118.5t136.5 78.5q16 6 35.5 9.5t39 2.5t36 -9t26.5 -26q10 -17 9 -34.5t-8 -35t-18 -33t-23 -27.5q-26 -29 -57.5 -50t-65.5 -38
q-13 -6 -30 -15t-32 -10q-8 -1 -12.5 3.5t-5.5 11t2.5 12.5t11.5 8zM338 595q35 -4 71 -1.5t71 7.5q15 2 34.5 7.5t36.5 3.5q13 -2 15 -14.5t-9 -19.5q-12 -7 -31.5 -5.5t-33.5 -0.5q-19 -1 -37.5 -1.5t-38.5 -0.5q-17 0 -34.5 0.5t-35.5 0.5q-6 0 -11.5 1t-8.5 6
q-3 7 1 12.5t11 4.5z" />
    <glyph glyph-name="emacron" unicode="&#x113;" horiz-adv-x="355" 
d="M2 86q18 9 37.5 20t39.5 19q13 23 37 37.5t51 19.5q14 2 32.5 0t28.5 -15q7 -8 3.5 -17t-12 -17t-19.5 -15l-15 -9q-18 -11 -39.5 -16.5t-43.5 -3.5h-4q4 -22 18 -34t33 -17.5t39.5 -4.5t37.5 4q24 5 47 12.5t45 17.5q10 5 20.5 9.5t19.5 9.5q7 2 14.5 -2t1.5 -13
q-5 -8 -14 -11t-16 -6l-50 -22q-46 -18 -91 -30q-20 -4 -40.5 -2.5t-38 9t-31.5 21.5t-20 36q-2 8 -3.5 16t0.5 15q-11 -5 -22 -12l-18 -11q-5 -2 -13 -7.5t-16 -0.5q-6 4 -5.5 11t6.5 9zM104 114q24 1 46.5 12t39.5 28q-14 5 -27.5 3t-25 -8t-20.5 -15.5t-13 -19.5z
M148 355q35 -4 71 -1.5t71 7.5q15 2 34.5 7.5t36.5 3.5q13 -2 15 -14.5t-9 -19.5q-12 -7 -31.5 -5.5t-33.5 -0.5q-19 -1 -37.5 -1.5t-38.5 -0.5q-17 0 -34.5 0.5t-35.5 0.5q-6 0 -11.5 1t-8.5 6q-3 7 1 12.5t11 4.5z" />
    <glyph glyph-name="Edotaccent" unicode="&#x116;" horiz-adv-x="490" 
d="M268 268q51 11 101 38t81 72q5 7 10.5 18t9 22.5t2.5 23t-8 20.5q-8 10 -20 13t-25.5 2.5t-27 -3.5t-23.5 -6q-53 -15 -99 -45t-83 -71l-16 -20q-12 -15 -24.5 -33.5t-23 -39t-14.5 -38t1 -30t24 -15.5q22 -3 40 5t38 10q8 2 15.5 -4t5.5 -15q-2 -12 -17 -19t-24 -13
q-21 -13 -43 -28.5t-42.5 -33.5t-37.5 -39.5t-26 -45.5q-10 -26 3 -37.5t34.5 -15t46 -1t37.5 5.5q55 11 106.5 33.5t101.5 47.5l96 48q7 3 16 9t17 6q9 -1 10.5 -5t-0.5 -8.5t-6.5 -8.5t-7.5 -6q-17 -7 -34 -15t-34 -17l-123 -63q-63 -33 -130 -51q-29 -9 -62 -11.5
t-63 8.5q-29 11 -39.5 34.5t1.5 52.5t35 53l44 44l55 47q-16 1 -29.5 6t-24.5 18q-12 15 -12.5 33t5 36.5t15 35.5t18.5 30q42 66 105.5 118.5t136.5 78.5q16 6 35.5 9.5t39 2.5t36 -9t26.5 -26q10 -17 9 -34.5t-8 -35t-18 -33t-23 -27.5q-26 -29 -57.5 -50t-65.5 -38
q-13 -6 -30 -15t-32 -10q-8 -1 -12.5 3.5t-5.5 11t2.5 12.5t11.5 8zM484 627q15 0 18 -9.5t-3 -21t-18 -20.5t-27 -9t-17.5 9.5t3.5 21t18 20.5t26 9z" />
    <glyph glyph-name="edotaccent" unicode="&#x117;" horiz-adv-x="355" 
d="M2 86q18 9 37.5 20t39.5 19q13 23 37 37.5t51 19.5q14 2 32.5 0t28.5 -15q7 -8 3.5 -17t-12 -17t-19.5 -15l-15 -9q-18 -11 -39.5 -16.5t-43.5 -3.5h-4q4 -22 18 -34t33 -17.5t39.5 -4.5t37.5 4q24 5 47 12.5t45 17.5q10 5 20.5 9.5t19.5 9.5q7 2 14.5 -2t1.5 -13
q-5 -8 -14 -11t-16 -6l-50 -22q-46 -18 -91 -30q-20 -4 -40.5 -2.5t-38 9t-31.5 21.5t-20 36q-2 8 -3.5 16t0.5 15q-11 -5 -22 -12l-18 -11q-5 -2 -13 -7.5t-16 -0.5q-6 4 -5.5 11t6.5 9zM104 114q24 1 46.5 12t39.5 28q-14 5 -27.5 3t-25 -8t-20.5 -15.5t-13 -19.5z
M252 370q15 0 18 -9.5t-3 -21t-18 -20.5t-27 -9t-17.5 9.5t3.5 21t18 20.5t26 9z" />
    <glyph glyph-name="Eogonek" unicode="&#x118;" horiz-adv-x="490" 
d="M268 268q51 11 101 38t81 72q5 7 10.5 18t9 22.5t2.5 23t-8 20.5q-8 10 -20 13t-25.5 2.5t-27 -3.5t-23.5 -6q-53 -15 -99 -45t-83 -71l-16 -20q-12 -15 -24.5 -33.5t-23 -39t-14.5 -38t1 -30t24 -15.5q22 -3 40 5t38 10q8 2 15.5 -4t5.5 -15q-2 -12 -17 -19t-24 -13
q-21 -13 -43 -28.5t-42.5 -33.5t-37.5 -39.5t-26 -45.5q-10 -26 3 -37.5t34.5 -15t46 -1t37.5 5.5q55 11 106.5 33.5t101.5 47.5l96 48q7 3 16 9t17 6q9 -1 10.5 -5t-0.5 -8.5t-6.5 -8.5t-7.5 -6q-17 -7 -34 -15t-34 -17l-104 -53q-53 -28 -109 -48q-17 -8 -33 -16.5
t-32 -18.5l-17 -11q-14 -10 -28.5 -21.5t-24.5 -23t-5 -17.5q8 -9 20.5 -8.5t25.5 6t25 13t18 12.5q4 3 9 8t11 7.5t11.5 1.5t10.5 -9q7 -15 -5 -22t-22 -11q-12 -5 -26.5 -13t-30 -14t-31 -8t-28.5 3q-16 6 -20.5 17t-2.5 23t10 23.5t18 19.5q25 20 53 35q-18 -2 -36 0
t-35 8q-29 11 -39.5 34.5t1.5 52.5t35 53l44 44l55 47q-16 1 -29.5 6t-24.5 18q-12 15 -12.5 33t5 36.5t15 35.5t18.5 30q42 66 105.5 118.5t136.5 78.5q16 6 35.5 9.5t39 2.5t36 -9t26.5 -26q10 -17 9 -34.5t-8 -35t-18 -33t-23 -27.5q-26 -29 -57.5 -50t-65.5 -38
q-13 -6 -30 -15t-32 -10q-8 -1 -12.5 3.5t-5.5 11t2.5 12.5t11.5 8z" />
    <glyph glyph-name="eogonek" unicode="&#x119;" horiz-adv-x="355" 
d="M2 86q18 9 37.5 20t39.5 19q13 23 37 37.5t51 19.5q14 2 32.5 0t28.5 -15q7 -8 3.5 -17t-12 -17t-19.5 -14l-15 -10q-18 -11 -39.5 -16.5t-43.5 -3.5h-4q4 -22 18 -34t33 -17.5t39.5 -4.5t37.5 4q24 5 47 12.5t45 17.5q10 5 20.5 9.5t19.5 9.5q7 2 14.5 -2t1.5 -13
q-5 -8 -14 -11t-16 -6l-50 -22l-43 -16l-43 -20l-40 -22q-4 -2 -18 -11.5t-28.5 -21.5t-24.5 -23.5t-5 -17.5q8 -9 20.5 -8.5t25.5 6t25 13t18 12.5q4 4 9.5 8.5t11 7t11 1.5t10.5 -8q4 -8 2.5 -13.5t-6.5 -9t-11 -6.5t-11 -5q-12 -5 -26.5 -12.5t-30 -13.5t-31.5 -8.5
t-29 3.5q-16 6 -20.5 16.5t-2 22.5t10.5 24t17 20q19 14 39.5 26.5t41.5 23.5q-31 1 -57 16.5t-36 49.5q-2 8 -3.5 16t0.5 15q-11 -5 -22 -12l-18 -11q-5 -2 -13 -7.5t-16 -0.5q-6 4 -5.5 11t6.5 9zM104 114q24 1 46.5 12t39.5 28q-14 5 -27.5 3t-25 -8t-20.5 -15.5
t-13 -19.5z" />
    <glyph glyph-name="Ecaron" unicode="&#x11a;" horiz-adv-x="490" 
d="M268 268q51 11 101 38t81 72q5 7 10.5 18t9 22.5t2.5 23t-8 20.5q-8 10 -20 13t-25.5 2.5t-27 -3.5t-23.5 -6q-53 -15 -99 -45t-83 -71l-16 -20q-12 -15 -24.5 -33.5t-23 -39t-14.5 -38t1 -30t24 -15.5q22 -3 40 5t38 10q8 2 15.5 -4t5.5 -15q-2 -12 -17 -19t-24 -13
q-21 -13 -43 -28.5t-42.5 -33.5t-37.5 -39.5t-26 -45.5q-10 -26 3 -37.5t34.5 -15t46 -1t37.5 5.5q55 11 106.5 33.5t101.5 47.5l96 48q7 3 16 9t17 6q9 -1 10.5 -5t-0.5 -8.5t-6.5 -8.5t-7.5 -6q-17 -7 -34 -15t-34 -17l-123 -63q-63 -33 -130 -51q-29 -9 -62 -11.5
t-63 8.5q-29 11 -39.5 34.5t1.5 52.5t35 53l44 44l55 47q-16 1 -29.5 6t-24.5 18q-12 15 -12.5 33t5 36.5t15 35.5t18.5 30q42 66 105.5 118.5t136.5 78.5q16 6 35.5 9.5t39 2.5t36 -9t26.5 -26q10 -17 9 -34.5t-8 -35t-18 -33t-23 -27.5q-26 -29 -57.5 -50t-65.5 -38
q-13 -6 -30 -15t-32 -10q-8 -1 -12.5 3.5t-5.5 11t2.5 12.5t11.5 8zM602 630q-18 -5 -36 -13.5t-35 -17.5l-41 -23l-14 -11q-8 -7 -16 -9q-10 -3 -15 4.5t-7.5 19t-3.5 23t-1 16.5q-2 7 -4 15t-1 15q-2 7 1.5 10t8 2t9 -4.5t6.5 -8.5q4 -13 7.5 -26t8.5 -26q24 8 47 20.5
t44 26.5q9 5 20 14.5t22 7.5q13 -4 13.5 -17.5t-13.5 -17.5z" />
    <glyph glyph-name="ecaron" unicode="&#x11b;" horiz-adv-x="355" 
d="M2 86q18 9 37.5 20t39.5 19q13 23 37 37.5t51 19.5q14 2 32.5 0t28.5 -15q7 -8 3.5 -17t-12 -17t-19.5 -15l-15 -9q-18 -11 -39.5 -16.5t-43.5 -3.5h-4q4 -22 18 -34t33 -17.5t39.5 -4.5t37.5 4q24 5 47 12.5t45 17.5q10 5 20.5 9.5t19.5 9.5q7 2 14.5 -2t1.5 -13
q-5 -8 -14 -11t-16 -6l-50 -22q-46 -18 -91 -30q-20 -4 -40.5 -2.5t-38 9t-31.5 21.5t-20 36q-2 8 -3.5 16t0.5 15q-11 -5 -22 -12l-18 -11q-5 -2 -13 -7.5t-16 -0.5q-6 4 -5.5 11t6.5 9zM378 390q-18 -5 -36 -13.5t-35 -17.5l-41 -23l-14 -12q-8 -6 -16 -8q-10 -3 -15 4.5
t-7.5 19t-3.5 23t-1 16.5q-2 7 -4 15t-1 15q-2 7 1.5 10t8 2t9 -4.5t6.5 -8.5q4 -13 7.5 -26t8.5 -26q24 8 47 20.5t44 26.5q9 5 20 14.5t22 7.5q13 -4 13.5 -17.5t-13.5 -17.5zM104 114q24 1 46.5 12t39.5 28q-14 5 -27.5 3t-25 -8t-20.5 -15.5t-13 -19.5z" />
    <glyph glyph-name="Gcircumflex" unicode="&#x11c;" horiz-adv-x="562" 
d="M298 166q51 19 94 56t72 82q14 20 24 45.5t8 51.5q-3 27 -24 44t-47 16q-27 0 -52.5 -10t-49.5 -25t-45.5 -33t-39.5 -35q-39 -38 -71.5 -81.5t-59.5 -89.5l-27 -48q-13 -25 -23.5 -52t-16.5 -54.5t-3 -54.5q4 -32 23.5 -43t44.5 -9.5t51 11.5t44 21q44 26 87.5 60
t71.5 77q6 5 13 5.5t12.5 -3t7 -9.5t-3.5 -14q-4 -7 -10 -14l-11 -13l-43 -61q-21 -30 -44 -59l120 70l123 68q3 2 13 8t20 10t17.5 3.5t7.5 -10.5q0 -8 -9 -13l-15 -7l-43 -22l-81 -47l-81 -46l-57 -33l-56 -34q-17 -21 -34.5 -40.5t-36.5 -38.5q-12 -12 -26 -24t-29 -22
t-31.5 -16.5t-34.5 -6.5q-17 0 -17 22q0 14 16 25l24 17q33 26 70 49l80 52l40 50q20 26 38 53l-39 -28q-19 -13 -39 -25l-45 -24q-24 -13 -49.5 -20.5t-50.5 -5t-45 22.5q-19 19 -22.5 44t1 52t14.5 53.5t19 46.5q23 52 53 100.5t65 93.5q33 43 72.5 81.5t84.5 69.5
q19 12 41 22.5t45 15t46 1.5t43 -19q21 -17 28 -38.5t5 -45t-11.5 -46.5t-21.5 -43q-28 -45 -66.5 -83.5t-83.5 -67.5l-10 -7q-5 -4 -11.5 -7.5t-12.5 -5t-12 1.5q-11 5 -10 16.5t12 16.5zM119 -202q-9 -5 -22.5 -13.5t-24.5 -17.5q26 9 50 28l16 12q9 7 17 14zM399 569
q21 8 40 18t38 22q5 3 13.5 10.5t17.5 14.5t17.5 9.5t14.5 -3.5q11 -11 16 -31t10 -34q2 -5 6 -13.5t3 -15.5q-2 -14 -12.5 -9t-14.5 13l-29 53q-21 -9 -41.5 -21t-39.5 -26q-4 -3 -8.5 -8t-10 -8.5t-11 -5t-11.5 1.5q-11 5 -10 17t12 16z" />
    <glyph glyph-name="gcircumflex" unicode="&#x11d;" horiz-adv-x="331" 
d="M0 85l51 25q25 12 51 22q28 10 55.5 15t57.5 5q11 0 17 -5.5t1 -18.5q-6 -10 -18 -10q-26 2 -52.5 0t-50.5 -12q-8 -3 -17 -9t-16.5 -13.5t-10.5 -16.5t2 -19q8 -17 30.5 -20t38.5 1q13 3 23 8l18 9q8 4 14.5 5.5t13.5 -4.5q7 -10 0.5 -23t-10.5 -22l-14 -33
q27 28 57 53.5t64 45.5q3 2 8 6t11 7.5t12 5t10 -1.5q7 -5 5 -10t-7 -10q-26 -14 -50 -30t-47 -36q-26 -22 -49.5 -47t-43.5 -52l-26 -60l-24 -61q-12 -31 -26 -61l-7 -14q-5 -9 -10.5 -16.5t-13 -12t-16.5 -3.5q-12 2 -15.5 11t-2 20t5 22t6.5 18q19 45 47.5 87.5
t60.5 80.5l34 97q-18 -5 -38.5 -7.5t-38.5 -0.5t-32.5 10t-21.5 26q-9 23 1 42l-17 -10q-8 -6 -14 -4q-10 0 -12 8.5t6 12.5zM165 336q21 8 40 18t38 22q5 3 13.5 10.5t17.5 14.5t17.5 9.5t14.5 -3.5q11 -11 16 -31t10 -34q2 -5 6 -13.5t3 -15.5q-2 -14 -12.5 -9t-14.5 13
l-29 53q-21 -9 -41.5 -21t-39.5 -26q-4 -3 -8.5 -8t-10 -8.5t-11 -5t-11.5 1.5q-11 5 -10 17t12 16z" />
    <glyph glyph-name="Gbreve" unicode="&#x11e;" horiz-adv-x="562" 
d="M298 166q51 19 94 56t72 82q14 20 24 45.5t8 51.5q-3 27 -24 44t-47 16q-27 0 -52.5 -10t-49.5 -25t-45.5 -33t-39.5 -35q-39 -38 -71.5 -81.5t-59.5 -89.5l-27 -48q-13 -25 -23.5 -52t-16.5 -54.5t-3 -54.5q4 -32 23.5 -43t44.5 -9.5t51 11.5t44 21q44 26 87.5 60
t71.5 77q6 5 13 5.5t12.5 -3t7 -9.5t-3.5 -14q-4 -7 -10 -14l-11 -13l-43 -61q-21 -30 -44 -59l120 70l123 68q3 2 13 8t20 10t17.5 3.5t7.5 -10.5q0 -8 -9 -13l-15 -7l-43 -22l-81 -47l-81 -46l-57 -33l-56 -34q-17 -21 -34.5 -40.5t-36.5 -38.5q-12 -12 -26 -24t-29 -22
t-31.5 -16.5t-34.5 -6.5q-17 0 -17 22q0 14 16 25l24 17q33 26 70 49l80 52l40 50q20 26 38 53l-39 -28q-19 -13 -39 -25l-45 -24q-24 -13 -49.5 -20.5t-50.5 -5t-45 22.5q-19 19 -22.5 44t1 52t14.5 53.5t19 46.5q23 52 53 100.5t65 93.5q33 43 72.5 81.5t84.5 69.5
q19 12 41 22.5t45 15t46 1.5t43 -19q21 -17 28 -38.5t5 -45t-11.5 -46.5t-21.5 -43q-28 -45 -66.5 -83.5t-83.5 -67.5l-10 -7q-5 -4 -11.5 -7.5t-12.5 -5t-12 1.5q-11 5 -10 16.5t12 16.5zM119 -202q-9 -5 -22.5 -13.5t-24.5 -17.5q26 9 50 28l16 12q9 7 17 14zM600 616
l-35 -27q-19 -15 -40 -27t-43 -19t-44 -4q-23 5 -31.5 23.5t-2.5 38.5q4 15 14 33q2 3 6 6t8 4t7.5 -1t3.5 -9q1 -5 -1 -13l-6 -17q-2 -8 -2.5 -16t4.5 -12q6 -4 16 -4.5t21 1.5t21 5t16 6q18 9 35 24t27 32q5 9 13 8.5t14 -5.5t7 -13t-8 -14z" />
    <glyph glyph-name="gbreve" unicode="&#x11f;" horiz-adv-x="331" 
d="M0 85l51 25q25 12 51 22q28 10 55.5 15t57.5 5q11 0 17 -5.5t1 -18.5q-6 -10 -18 -10q-26 2 -52.5 0t-50.5 -12q-8 -3 -17 -9t-16.5 -13.5t-10.5 -16.5t2 -19q8 -17 30.5 -20t38.5 1q13 3 23 8l18 9q8 4 14.5 5.5t13.5 -4.5q7 -10 0.5 -23t-10.5 -22l-14 -33
q27 28 57 53.5t64 45.5q3 2 8 6t11 7.5t12 5t10 -1.5q7 -5 5 -10t-7 -10q-26 -14 -50 -30t-47 -36q-26 -22 -49.5 -47t-43.5 -52l-26 -60l-24 -61q-12 -31 -26 -61l-7 -14q-5 -9 -10.5 -16.5t-13 -12t-16.5 -3.5q-12 2 -15.5 11t-2 20t5 22t6.5 18q19 45 47.5 87.5
t60.5 80.5l34 97q-18 -5 -38.5 -7.5t-38.5 -0.5t-32.5 10t-21.5 26q-9 23 1 42l-17 -10q-8 -6 -14 -4q-10 0 -12 8.5t6 12.5zM386 370l-35 -27q-19 -15 -40 -27t-43 -19t-44 -4q-23 5 -31.5 23.5t-2.5 38.5q4 15 14 33q2 3 6 6t8 4t7.5 -1t3.5 -9q1 -5 -1 -13l-5 -16
q-3 -9 -3.5 -17t4.5 -12q6 -4 16 -4.5t21 1.5t21 5t16 6q18 9 35 24t27 32q5 9 13 8.5t14 -5.5t7 -13t-8 -14z" />
    <glyph glyph-name="Gdotaccent" unicode="&#x120;" horiz-adv-x="562" 
d="M298 166q51 19 94 56t72 82q14 20 24 45.5t8 51.5q-3 27 -24 44t-47 16q-27 0 -52.5 -10t-49.5 -25t-45.5 -33t-39.5 -35q-39 -38 -71.5 -81.5t-59.5 -89.5l-27 -48q-13 -25 -23.5 -52t-16.5 -54.5t-3 -54.5q4 -32 23.5 -43t44.5 -9.5t51 11.5t44 21q44 26 87.5 60
t71.5 77q6 5 13 5.5t12.5 -3t7 -9.5t-3.5 -14q-4 -7 -10 -14l-11 -13l-43 -61q-21 -30 -44 -59l120 70l123 68q3 2 13 8t20 10t17.5 3.5t7.5 -10.5q0 -8 -9 -13l-15 -7l-43 -22l-81 -47l-81 -46l-57 -33l-56 -34q-17 -21 -34.5 -40.5t-36.5 -38.5q-12 -12 -26 -24t-29 -22
t-31.5 -16.5t-34.5 -6.5q-17 0 -17 22q0 14 16 25l24 17q33 26 70 49l80 52l40 50q20 26 38 53l-39 -28q-19 -13 -39 -25l-45 -24q-24 -13 -49.5 -20.5t-50.5 -5t-45 22.5q-19 19 -22.5 44t1 52t14.5 53.5t19 46.5q23 52 53 100.5t65 93.5q33 43 72.5 81.5t84.5 69.5
q19 12 41 22.5t45 15t46 1.5t43 -19q21 -17 28 -38.5t5 -45t-11.5 -46.5t-21.5 -43q-28 -45 -66.5 -83.5t-83.5 -67.5l-10 -7q-5 -4 -11.5 -7.5t-12.5 -5t-12 1.5q-11 5 -10 16.5t12 16.5zM119 -202q-9 -5 -22.5 -13.5t-24.5 -17.5q26 9 50 28l16 12q9 7 17 14zM517 607
q15 0 18 -9.5t-3 -21t-18 -20.5t-27 -9t-17.5 9.5t3.5 21t18 20.5t26 9z" />
    <glyph glyph-name="gdotaccent" unicode="&#x121;" horiz-adv-x="331" 
d="M0 85l51 25q25 12 51 22q28 10 55.5 15t57.5 5q11 0 17 -5.5t1 -18.5q-6 -10 -18 -10q-26 2 -52.5 0t-50.5 -12q-8 -3 -17 -9t-16.5 -13.5t-10.5 -16.5t2 -19q8 -17 30.5 -20t38.5 1q13 3 23 8l18 9q8 4 14.5 5.5t13.5 -4.5q7 -10 0.5 -23t-10.5 -22l-14 -33
q27 28 57 53.5t64 45.5q3 2 8 6t11 7.5t12 5t10 -1.5q7 -5 5 -10t-7 -10q-26 -14 -50 -30t-47 -36q-26 -22 -49.5 -47t-43.5 -52l-26 -60l-24 -61q-12 -31 -26 -61l-7 -14q-5 -9 -10.5 -16.5t-13 -12t-16.5 -3.5q-12 2 -15.5 11t-2 20t5 22t6.5 18q19 45 47.5 87.5
t60.5 80.5l34 97q-18 -5 -38.5 -7.5t-38.5 -0.5t-32.5 10t-21.5 26q-9 23 1 42l-17 -10q-8 -6 -14 -4q-10 0 -12 8.5t6 12.5zM266 365q15 0 18 -9.5t-3 -21t-18 -20.5t-27 -9t-17.5 9.5t3.5 21t18 20.5t26 9z" />
    <glyph glyph-name="uni0122" unicode="&#x122;" horiz-adv-x="562" 
d="M298 166q51 19 94 56t72 82q14 20 24 45.5t8 51.5q-3 27 -24 44t-47 16q-27 0 -52.5 -10t-49.5 -25t-45.5 -33t-39.5 -35q-39 -38 -71.5 -81.5t-59.5 -89.5l-27 -48q-13 -25 -23.5 -52t-16.5 -54.5t-3 -54.5q4 -32 23.5 -43t44.5 -9.5t51 11.5t44 21q44 26 87.5 60
t71.5 77q6 5 13 5.5t12.5 -3t7 -9.5t-3.5 -14q-4 -7 -10 -14l-11 -13l-43 -61q-21 -30 -44 -59l120 70l123 68q3 2 13 8t20 10t17.5 3.5t7.5 -10.5q0 -8 -9 -13l-15 -7l-43 -22l-81 -47l-81 -46l-57 -33l-56 -34q-17 -21 -34.5 -40.5t-36.5 -38.5q-12 -12 -26 -24t-29 -22
t-31.5 -16.5t-34.5 -6.5q-17 0 -17 22q0 14 16 25l24 17q33 26 70 49l80 52l40 50q20 26 38 53l-39 -28q-19 -13 -39 -25l-45 -24q-24 -13 -49.5 -20.5t-50.5 -5t-45 22.5q-19 19 -22.5 44t1 52t14.5 53.5t19 46.5q23 52 53 100.5t65 93.5q33 43 72.5 81.5t84.5 69.5
q19 12 41 22.5t45 15t46 1.5t43 -19q21 -17 28 -38.5t5 -45t-11.5 -46.5t-21.5 -43q-28 -45 -66.5 -83.5t-83.5 -67.5l-10 -7q-5 -4 -11.5 -7.5t-12.5 -5t-12 1.5q-11 5 -10 16.5t12 16.5zM119 -202q-9 -5 -22.5 -13.5t-24.5 -17.5q26 9 50 28l16 12q9 7 17 14zM-68 -260
q23 16 43.5 37t34.5 47q5 10 9 23.5t18 13.5q10 -1 15 -10t0 -18q-8 -23 -28 -43.5t-37 -34.5q-9 -8 -19.5 -19t-21.5 -16q-5 -4 -9.5 -2.5t-7.5 5t-2.5 8.5t5.5 9z" />
    <glyph glyph-name="uni0123" unicode="&#x123;" horiz-adv-x="331" 
d="M0 85l51 25q25 12 51 22q28 10 55.5 15t57.5 5q11 0 17 -5.5t1 -18.5q-6 -10 -18 -10q-26 2 -52.5 0t-50.5 -12q-8 -3 -17 -9t-16.5 -13.5t-10.5 -16.5t2 -19q8 -17 30.5 -20t38.5 1q13 3 23 8l18 9q8 4 14.5 5.5t13.5 -4.5q7 -10 0.5 -23t-10.5 -22l-14 -33
q27 28 57 53.5t64 45.5q3 2 8 6t11 7.5t12 5t10 -1.5q7 -5 5 -10t-7 -10q-26 -14 -50 -30t-47 -36q-26 -22 -49.5 -47t-43.5 -52l-26 -60l-24 -61q-12 -31 -26 -61l-7 -14q-5 -9 -10.5 -16.5t-13 -12t-16.5 -3.5q-12 2 -15.5 11t-2 20t5 22t6.5 18q19 45 47.5 87.5
t60.5 80.5l34 97q-18 -5 -38.5 -7.5t-38.5 -0.5t-32.5 10t-21.5 26q-9 23 1 42l-17 -10q-8 -6 -14 -4q-10 0 -12 8.5t6 12.5zM289 385q-19 -20 -35 -44.5t-24 -53.5l-2 -12q-1 -7 -2.5 -13.5t-5 -11t-9.5 -5.5q-10 -1 -17 6.5t-3 17.5q4 24 19 48t29 42l15 23q8 12 17 19
q4 5 8.5 4.5t8 -3.5t4.5 -8t-3 -9z" />
    <glyph glyph-name="Hcircumflex" unicode="&#x124;" horiz-adv-x="677" 
d="M710 518q-29 -27 -54 -59.5t-48 -66.5l-60 -86l-57 -89q1 0 1.5 0.5t1.5 0.5q4 1 19.5 2t29.5 -1t21 -8.5t-4 -19.5q-7 -8 -16.5 -6t-17.5 2q-18 0 -31.5 -1t-26.5 -4l-51 -84q-24 -42 -38 -88q-2 -8 -4.5 -19.5t2.5 -18.5q7 -8 20 -6.5t22 3.5q28 6 52 17l51 25l100 47
l49 25q5 2 10 4.5t10 -1.5q5 -3 5 -10t-6 -10q-44 -23 -88.5 -43t-87.5 -43l-56 -30q-29 -16 -58 -18q-17 -2 -33.5 5t-23.5 23q-9 22 -0.5 46.5t18.5 43.5q16 33 34.5 64.5t38.5 61.5l-37 -9l-36 -10q-38 -11 -75.5 -26.5t-73.5 -33.5q-23 -36 -47.5 -70.5t-52.5 -66.5
q-14 -16 -30.5 -31.5t-38.5 -22.5q-15 -3 -23.5 1.5t-11.5 13.5t-2 20.5t6 22.5q11 23 29.5 43.5t40.5 37.5t45.5 32t45.5 27l26 15q17 26 32 52l31 53l47 87q24 44 37 92l4 22q2 10 0 21q-1 14 -7 18l-14 11q-6 5 -6.5 11.5t3 11.5t9.5 7.5t13 -0.5q24 -10 31.5 -30.5
t4.5 -44.5t-12 -48t-17 -41q-23 -53 -53 -101l-64 -102q37 17 74 31t76 25q32 12 70 18l44 63l42 63l47 72l49 72l22 35q13 20 28 30q7 4 13 2t9.5 -7t3.5 -12t-6 -12zM85 8l-13 -13q-7 -8 -14 -17t-12.5 -18.5t-5.5 -18.5q16 6 33.5 20.5t33 32t29.5 35.5l24 32l9 13
q-23 -14 -44.5 -30t-39.5 -36zM446 548q21 8 40 18t38 22q5 3 13.5 10.5t17.5 14.5t17.5 9.5t14.5 -3.5q11 -11 16 -31t10 -34q2 -5 6 -13.5t3 -15.5q-2 -14 -12.5 -9t-14.5 13l-29 53q-21 -9 -41.5 -21t-39.5 -26q-4 -3 -8.5 -8t-10 -8.5t-11 -5t-11.5 1.5q-11 5 -10 17
t12 16z" />
    <glyph glyph-name="hcircumflex" unicode="&#x125;" horiz-adv-x="461" 
d="M2 86q63 30 122 65t102 77l36 65q17 29 37 59.5t48 49.5q7 4 20 8.5t24.5 4.5t18 -6.5t0.5 -24.5q-5 -14 -14.5 -26.5t-21 -24.5t-23.5 -22.5t-21 -20.5l-43 -40q-22 -20 -45 -38l-12 -22l-10 -21l-18 -34q-9 -17 -20 -34q31 18 63 33l65 30q11 6 25.5 10t28.5 0
q15 -5 19 -19t-4 -28q-6 -12 -16 -24l-19 -25q-10 -12 -17 -25.5t-7 -26.5q26 3 54.5 15.5t51.5 24.5q8 4 18.5 10.5t18.5 9.5q5 3 9.5 1t7 -5.5t2 -8.5t-6.5 -8q-22 -13 -45 -23.5t-45 -23.5l-21 -12q-12 -7 -24.5 -11t-25 -3t-21.5 12q-7 9 -6.5 19t5 19.5t10.5 18.5
l12 16q11 14 21.5 30t12.5 33q-8 1 -17.5 -1t-19.5 -5.5t-19.5 -7.5t-16.5 -6q-22 -10 -42.5 -21.5t-40.5 -24.5q-32 -23 -45 -35l-19 -16q-5 -5 -11.5 -7t-14.5 4q-8 7 -7 13.5t6 12.5q29 30 53.5 64t44.5 70q-27 -21 -55 -39l-55 -35q-17 -11 -33 -20l-34 -18
q-5 -2 -10.5 -4.5t-10.5 1.5t-5 11t6 10zM319 313q13 13 26.5 28t22.5 33q-23 -11 -41 -30.5t-32 -39.5l-21 -35l22 22zM379 469q21 8 40 18t38 22q5 3 13.5 10.5t17.5 14.5t17.5 9.5t14.5 -3.5q11 -11 16 -31t10 -34q2 -5 6 -13.5t3 -15.5q-2 -14 -12.5 -9t-14.5 13l-29 53
q-21 -9 -41.5 -21t-39.5 -26q-4 -3 -8.5 -8t-10 -8.5t-11 -5t-11.5 1.5q-11 5 -10 17t12 16z" />
    <glyph glyph-name="Hbar" unicode="&#x126;" horiz-adv-x="677" 
d="M304 299q13 26 23.5 51.5t18.5 52.5l4 21q2 11 0 22q-1 14 -7 18l-14 11q-6 5 -6.5 11.5t3 11.5t9.5 7.5t13 -0.5q24 -10 31.5 -30.5t4.5 -44.5t-12 -48t-17 -41l-10 -22l-10 -20q36 0 72.5 1.5t72.5 5.5q10 1 22 2.5t25 3.5q4 7 8 13l9 13l47 72l49 72l22 35
q13 20 28 30q7 4 13 2t9.5 -7t3.5 -12t-6 -12q-29 -27 -54 -59.5t-48 -66.5l-27 -38l-26 -38h26q19 -2 22 -13t-13 -16q-11 -4 -26.5 -5t-31.5 -1l-41 -64q1 0 1.5 0.5t1.5 0.5q4 1 19.5 2t29.5 -1t21 -8.5t-4 -19.5q-7 -8 -16.5 -6t-17.5 2q-18 0 -31.5 -1t-26.5 -4
l-51 -84q-24 -42 -38 -88q-2 -8 -4.5 -19.5t2.5 -18.5q7 -8 20 -6.5t22 3.5q28 6 53 17l50 25l100 47l49 25q5 2 10 4.5t10 -1.5q5 -3 5 -10t-6 -10q-44 -23 -88.5 -43t-87.5 -43l-56 -30q-29 -16 -58 -18q-17 -2 -33.5 5t-23.5 23q-9 22 -0.5 46.5t18.5 43.5
q16 33 34.5 64.5t38.5 61.5l-37 -9l-36 -10q-38 -11 -75.5 -26.5t-73.5 -33.5q-23 -36 -47.5 -70.5t-52.5 -66.5q-14 -16 -30.5 -31.5t-38.5 -22.5q-15 -3 -23.5 1.5t-11.5 13.5t-2 20.5t6 22.5q11 23 29.5 43.5t40.5 37.5t45.5 32t45.5 27l26 15q17 26 32 52l31 53l31 56
h-5q-8 0 -16 1t-12 6q-5 5 1 10t16 4zM506 281h-9q-27 -1 -54 -1h-55h-63l-42 -70l-45 -72q37 17 74 31t76 25q32 12 70 18zM85 8l-13 -13q-7 -8 -14 -17t-12.5 -18.5t-5.5 -18.5q16 6 33.5 20.5t33 32t29.5 35.5l24 32l9 13q-23 -14 -44.5 -30t-39.5 -36z" />
    <glyph glyph-name="hbar" unicode="&#x127;" horiz-adv-x="461" 
d="M182 312q23 -2 45 -2.5t45 1.5q15 26 33 50.5t42 40.5q7 4 20 8.5t24.5 4.5t18 -6.5t0.5 -24.5q-5 -15 -16 -29t-25 -28q7 2 13 2h13q13 -2 15 -14.5t-9 -19.5q-12 -7 -31.5 -5.5t-33.5 -0.5q-2 0 -4 -0.5t-4 -0.5q-20 -20 -42 -39.5t-44 -36.5l-12 -22l-10 -21l-18 -34
q-9 -17 -20 -34q31 18 63 33l65 30q11 6 25.5 10t28.5 0q15 -5 19 -19t-4 -28q-6 -12 -16 -24l-19 -25q-10 -12 -17 -25.5t-7 -26.5q26 3 54.5 15.5t51.5 24.5q8 4 18.5 10.5t18.5 9.5q5 3 9.5 1t7 -5.5t2 -8.5t-6.5 -8q-22 -13 -45 -23.5t-45 -23.5l-21 -12
q-12 -7 -24.5 -11t-25 -3t-21.5 12q-7 9 -6.5 19t5 19.5t10.5 18.5l12 16q11 14 21.5 30t12.5 33q-8 1 -17.5 -1t-19.5 -5.5t-19.5 -7.5t-16.5 -6q-22 -10 -42.5 -21.5t-40.5 -24.5q-32 -23 -45 -35l-19 -16q-5 -5 -11.5 -7t-14.5 4q-8 7 -7 13.5t6 12.5q29 30 53.5 64
t44.5 70q-27 -21 -54 -39l-56 -35q-17 -11 -33 -20l-34 -18q-5 -2 -10.5 -4.5t-10.5 1.5t-5 11t6 10q63 30 122 65t102 77l32 59q-16 0 -33.5 0.5t-34.5 0.5q-6 0 -11.5 1t-8.5 6q-3 7 1 12.5t11 4.5zM368 374q-20 -9 -36.5 -25.5t-29.5 -33.5l22 3q12 12 24 25.5t20 30.5z
M294 287h-9l-11 -18z" />
    <glyph glyph-name="Itilde" unicode="&#x128;" horiz-adv-x="413" 
d="M184 448q32 -3 64 -1t63 13h1l5 9l7 9l17 23q11 15 23.5 27.5t27 20t28.5 2.5q19 -6 18.5 -18t-9.5 -25.5t-22.5 -25t-20.5 -15.5q-11 -8 -24 -13l-24 -10q-16 -22 -30 -44l-31 -45l-127 -199l-29 -48q-15 -24 -26 -49l-9 -18q-6 -12 -11.5 -26t-7.5 -26t4 -18
q7 -6 34 -1.5t58 12t58 16t35 10.5q26 9 51 21t49 26l50 28q5 2 10 4.5t10 -1.5q6 -3 5.5 -10t-5.5 -10l-92 -48q-46 -23 -95 -40q-35 -12 -69 -25.5t-72 -18.5q-19 -2 -37.5 3.5t-24.5 25.5q-4 12 -2.5 24t6 24t10.5 23.5t12 21.5q24 43 51 84l53 81q33 51 62.5 103.5
t61.5 103.5q-14 -3 -27 -5.5t-27 -4.5q-6 -1 -14.5 -3t-17.5 -3.5t-17.5 -1.5t-13.5 4q-6 4 -7.5 10t0.5 11.5t6.5 9t11.5 3.5zM329 618l37 29q20 16 43 21q14 3 21.5 -2t12 -14t6.5 -19.5t5 -19.5t11.5 -7t18 9t18.5 15l12 12q5 5 11 12t15 6q11 -1 15.5 -11.5t-3.5 -18.5
q-7 -7 -16.5 -14.5t-21 -14.5t-23 -12t-21.5 -8q-14 -3 -22 2t-12.5 14t-6.5 20.5t-5 20.5q-3 8 -12 5t-18.5 -10.5t-18.5 -16.5l-11 -11l-14 -16q-7 -7 -18 -2q-10 5 -10.5 14.5t7.5 16.5zM395 510q-14 -9 -24 -24q7 5 13.5 11.5t10.5 12.5z" />
    <glyph glyph-name="itilde" unicode="&#x129;" horiz-adv-x="304" 
d="M100 134q4 2 18.5 8t28.5 9t24 0.5t7 -18.5q-2 -9 -8.5 -18t-9.5 -18q-6 -13 -11.5 -32t3.5 -31q17 -2 37.5 4t37.5 12q5 2 19 10t29.5 15.5t28.5 11t16 -2.5q4 -7 -5 -15t-22.5 -14.5t-27.5 -12t-18 -7.5l-45 -21q-22 -11 -46 -15q-21 -3 -29 9t-8 30.5t5.5 40
t11.5 39.5q-23 -9 -45 -16.5t-43 -17.5q-18 -8 -36 -18q-11 -3 -17.5 5.5t5.5 14.5zM141 334l38 30q19 15 42 20q14 3 21.5 -2t12 -14t6.5 -19.5t5 -19.5t11.5 -7t18 9t18.5 16l12 11q5 5 11 12t15 6q11 -1 15.5 -11.5t-3.5 -18.5q-7 -7 -16.5 -14.5t-21 -14.5t-23 -12
t-21.5 -8q-14 -3 -22 2t-12.5 14t-6.5 20.5t-5 20.5q-3 8 -12 5t-18.5 -10.5t-17.5 -15.5l-12 -12l-14 -15q-7 -8 -18 -3q-10 5 -10.5 14.5t7.5 16.5z" />
    <glyph glyph-name="Imacron" unicode="&#x12a;" horiz-adv-x="413" 
d="M184 448q32 -3 64 -1t63 13h1l5 9l7 9l17 23q11 15 23.5 27.5t27 20t28.5 2.5q19 -6 18.5 -18t-9.5 -25.5t-22.5 -25t-20.5 -15.5q-11 -8 -24 -13l-24 -10q-16 -22 -30 -44l-31 -45l-127 -199l-29 -48q-15 -24 -26 -49l-9 -18q-6 -12 -11.5 -26t-7.5 -26t4 -18
q7 -6 34 -1.5t58 12t58 16t35 10.5q26 9 51 21t49 26l50 28q5 2 10 4.5t10 -1.5q6 -3 5.5 -10t-5.5 -10l-92 -48q-46 -23 -95 -40q-35 -12 -69 -25.5t-72 -18.5q-19 -2 -37.5 3.5t-24.5 25.5q-4 12 -2.5 24t6 24t10.5 23.5t12 21.5q24 43 51 84l53 81q33 51 62.5 103.5
t61.5 103.5q-14 -3 -27 -5.5t-27 -4.5q-6 -1 -14.5 -3t-17.5 -3.5t-17.5 -1.5t-13.5 4q-6 4 -7.5 10t0.5 11.5t6.5 9t11.5 3.5zM342 625q35 -4 71 -1.5t71 7.5q15 2 34.5 7.5t36.5 3.5q13 -2 15 -14.5t-9 -19.5q-12 -7 -31.5 -5.5t-33.5 -0.5q-19 -1 -37.5 -1.5t-38.5 -0.5
q-17 0 -34.5 0.5t-35.5 0.5q-6 0 -11.5 1t-8.5 6q-3 7 1 12.5t11 4.5zM395 510q-14 -9 -24 -24q7 5 13.5 11.5t10.5 12.5z" />
    <glyph glyph-name="imacron" unicode="&#x12b;" horiz-adv-x="304" 
d="M100 134q4 2 18.5 8t28.5 9t24 0.5t7 -18.5q-2 -9 -8.5 -18t-9.5 -18q-6 -13 -11.5 -32t3.5 -31q17 -2 37.5 4t37.5 12q5 2 19 10t29.5 15.5t28.5 11t16 -2.5q4 -7 -5 -15t-22.5 -14.5t-27.5 -12t-18 -7.5l-45 -21q-22 -11 -46 -15q-21 -3 -29 9t-8 30.5t5.5 40
t11.5 39.5q-23 -9 -45 -16.5t-43 -17.5q-18 -8 -36 -18q-11 -3 -17.5 5.5t5.5 14.5zM111 351q35 -4 71 -1.5t71 7.5q15 2 34.5 7.5t36.5 3.5q13 -2 15 -14.5t-9 -19.5q-12 -7 -31.5 -5.5t-33.5 -0.5q-19 -1 -37.5 -1.5t-38.5 -0.5q-17 0 -34.5 0.5t-35.5 0.5q-6 0 -11.5 1
t-8.5 6q-3 7 1 12.5t11 4.5z" />
    <glyph glyph-name="Iogonek" unicode="&#x12e;" horiz-adv-x="413" 
d="M184 448q32 -3 64 -1t63 13h1l6 9q2 4 6 9l18 24q10 14 22.5 26.5t27 20t28.5 2.5q19 -6 18.5 -18t-9.5 -25.5t-22.5 -25t-20.5 -15.5q-11 -8 -23 -13l-25 -10q-16 -22 -30 -44l-31 -45l-127 -199l-29 -48q-15 -24 -26 -49l-9 -18q-6 -12 -11.5 -26t-7.5 -26t4 -18
q7 -6 34 -1.5t58 12t58 16t35 10.5q26 9 51 21t49 26l50 28q5 2 10 4.5t10 -1.5q6 -3 5.5 -10t-5.5 -10l-92 -47q-46 -24 -95 -41q-26 -9 -51.5 -19t-51.5 -17q-20 -9 -40 -20l-40 -22l-17 -11q-14 -10 -28.5 -21.5t-24.5 -23t-5 -17.5q8 -9 20.5 -8.5t25.5 6t25 13t18 12.5
q4 3 9 8t11 7.5t11.5 1.5t10.5 -9q7 -15 -5 -22t-22 -11q-12 -5 -26.5 -13t-30 -14t-31 -8t-28.5 3q-16 6 -20.5 17t-2.5 23t10 23.5t18 19.5q23 18 48 31l50 28q-13 2 -22.5 8t-13.5 20q-4 12 -2.5 24t6 24t10.5 23.5t12 21.5q24 43 51 84l53 81q33 51 62.5 103.5
t61.5 103.5q-14 -3 -27 -5.5t-27 -4.5q-6 -1 -14.5 -3t-17.5 -3.5t-17.5 -1.5t-13.5 4q-6 4 -7.5 10t0.5 11.5t6.5 9t11.5 3.5zM395 510q-14 -9 -24 -24q7 5 13.5 11.5t10.5 12.5z" />
    <glyph glyph-name="iogonek" unicode="&#x12f;" horiz-adv-x="304" 
d="M191 8q-29 -11 -57 -24.5t-55 -29.5l-17 -12q-14 -9 -28.5 -20.5t-24.5 -23t-5 -17.5q8 -9 20.5 -8.5t25.5 6t25 13t18 12.5q4 3 9 8t11 7.5t11.5 1.5t10.5 -9q7 -15 -5 -22t-22 -11q-12 -5 -26.5 -13t-30 -14t-31 -8t-28.5 3q-16 6 -20.5 17t-2.5 23t10 23.5t18 19.5
q27 21 57 37l61 32l14 6q-8 7 -9.5 20.5t1 29.5t6.5 32.5t9 30.5q-23 -9 -45 -16.5t-43 -17.5q-18 -8 -36 -18q-11 -3 -17.5 5.5t5.5 14.5l100 48q4 2 18.5 8t28.5 9t24 0.5t7 -18.5q-2 -9 -8.5 -18t-9.5 -18q-6 -13 -11.5 -32t3.5 -31q17 -2 37.5 4t37.5 12q5 2 19 10
t29.5 15.5t28.5 11t16 -2.5q4 -7 -5 -15t-22.5 -14.5t-27.5 -12t-18 -7.5l-26 -14q-13 -6 -27 -11q-2 -2 -3 -2zM217 336q5 13 15.5 22.5t23.5 15.5t27.5 9.5t27.5 5.5q36 2 71 -3q6 0 13.5 -2t6.5 -11q-1 -5 -5 -8.5t-9 -2.5q-29 6 -60.5 4.5t-56.5 -18.5q-10 -6 -14 -16
t-12 -16q-10 -8 -21 0t-7 20z" />
    <glyph glyph-name="Idotaccent" unicode="&#x130;" horiz-adv-x="413" 
d="M184 448q32 -3 64 -1t63 13h1l5 9l7 9l17 23q11 15 23.5 27.5t27 20t28.5 2.5q19 -6 18.5 -18t-9.5 -25.5t-22.5 -25t-20.5 -15.5q-11 -8 -24 -13l-24 -10q-16 -22 -30 -44l-31 -45l-127 -199l-29 -48q-15 -24 -26 -49l-9 -18q-6 -12 -11.5 -26t-7.5 -26t4 -18
q7 -6 34 -1.5t58 12t58 16t35 10.5q26 9 51 21t49 26l50 28q5 2 10 4.5t10 -1.5q6 -3 5.5 -10t-5.5 -10l-92 -48q-46 -23 -95 -40q-35 -12 -69 -25.5t-72 -18.5q-19 -2 -37.5 3.5t-24.5 25.5q-4 12 -2.5 24t6 24t10.5 23.5t12 21.5q24 43 51 84l53 81q33 51 62.5 103.5
t61.5 103.5q-14 -3 -27 -5.5t-27 -4.5q-6 -1 -14.5 -3t-17.5 -3.5t-17.5 -1.5t-13.5 4q-6 4 -7.5 10t0.5 11.5t6.5 9t11.5 3.5zM459 675q15 0 18 -9.5t-3 -21t-18 -20.5t-27 -9t-17.5 9.5t3.5 21t18 20.5t26 9zM395 510q-14 -9 -24 -24q7 5 13.5 11.5t10.5 12.5z" />
    <glyph glyph-name="dotlessi" unicode="&#x131;" horiz-adv-x="304" 
d="M100 134q4 2 18.5 8t28.5 9t24 0.5t7 -18.5q-2 -9 -8.5 -18t-9.5 -18q-6 -13 -11.5 -32t3.5 -31q17 -2 37.5 4t37.5 12q5 2 19 10t29.5 15.5t28.5 11t16 -2.5q4 -7 -5 -15t-22.5 -14.5t-27.5 -12t-18 -7.5l-45 -21q-22 -11 -46 -15q-21 -3 -29 9t-8 30.5t5.5 40
t11.5 39.5q-23 -9 -45 -16.5t-43 -17.5q-18 -8 -36 -18q-11 -3 -17.5 5.5t5.5 14.5z" />
    <glyph glyph-name="Jcircumflex" unicode="&#x134;" horiz-adv-x="638" 
d="M312 160q-28 24 -34 47.5t3 44.5t29.5 40t45 35t50.5 28.5t45 20.5l84 32q42 17 83 37l10 13q10 15 23.5 33.5t30 32.5t36 21.5t40.5 0.5q20 -6 18 -22.5t-14 -27.5q-17 -16 -36 -27l-40 -20q-11 -5 -22.5 -11t-22.5 -11l-26 -38l-26 -37l-81 -125l-78 -126l-53 -83
q-29 -43 -70 -72q32 8 63 18.5t61 23.5q54 23 105 47t102 51q5 3 9.5 1t6.5 -5.5t1 -8t-6 -7.5l-43 -20l-110 -56l-104 -45q-51 -22 -108 -33q-56 -9 -111 1.5t-103 42.5q-6 4 -17.5 11t-23 15.5t-19.5 18t-8 18.5t3.5 12.5t9 3.5t11 -2t9.5 -4q15 -8 30 -20l19 -16
q22 -15 47 -27.5t51 -18.5t52 -3t52 18q41 25 68 66l54 80q27 45 55 87t55 87q20 31 38 62.5t38 62.5l-88 -35q-44 -19 -90 -41.5t-81 -55.5q-17 -17 -23 -36t11 -39q6 -8 14 -15.5t3 -18.5q-4 -8 -13 -10t-15 4zM642 621q21 8 40 18t38 22q5 3 13.5 10.5t17.5 14.5
t17.5 9.5t14.5 -3.5q11 -11 16 -31t10 -34q2 -5 6 -13.5t3 -15.5q-2 -14 -12.5 -9t-14.5 13l-29 53q-21 -9 -41.5 -21t-39.5 -26q-4 -3 -8.5 -8t-10 -8.5t-11 -5t-11.5 1.5q-11 5 -10 17t12 16zM726 509q-9 4 -17 -4.5t-16 -15.5z" />
    <glyph glyph-name="jcircumflex" unicode="&#x135;" horiz-adv-x="252" 
d="M0 86q26 11 51 24l50 28q6 3 17.5 7.5t22 6t16 -3.5t1.5 -20q-23 -43 -44 -87l-43 -87q28 27 58.5 51t62.5 45q4 2 17.5 11.5t28 17t25.5 10t11 -9.5q0 -10 -11.5 -14.5t-17.5 -8.5q-14 -7 -29 -17l-28 -19q-42 -28 -78.5 -60t-69.5 -68l-44 -94q-23 -47 -51 -91
q-4 -6 -9.5 -13t-12.5 -13t-15 -8.5t-17 2.5q-8 4 -10.5 12t-1 16.5t5 17.5t6.5 15q23 47 58 89t73 80l49 102q24 52 44 106q-19 -5 -37 -14.5t-35 -16.5q-8 -4 -18.5 -12t-20.5 -6q-9 0 -11 9.5t7 12.5zM115 337q21 8 40 18t38 22q5 3 13.5 10.5t17.5 14.5t17.5 9.5
t14.5 -3.5q11 -11 16 -31t10 -34q2 -5 6 -13.5t3 -15.5q-2 -14 -12.5 -9t-14.5 13l-29 53q-21 -9 -41.5 -21t-39.5 -26q-4 -3 -8.5 -8t-10 -8.5t-11 -5t-11.5 1.5q-11 5 -10 17t12 16z" />
    <glyph glyph-name="uni0136" unicode="&#x136;" horiz-adv-x="766" 
d="M880 533q-88 -85 -182 -160l-192 -147l-97 -71q-50 -35 -102 -67l-73 -46q-37 -24 -77 -41l43 -17l54 -18q28 -9 57.5 -15.5t58.5 -9t57 0.5q58 8 113 32t107 50l119 62q5 3 9.5 1.5t6.5 -5.5t1 -8.5t-7 -7.5l-58 -31l-121 -66q-61 -34 -127 -53q-57 -17 -111.5 -5.5
t-110.5 31.5l-93 33q-9 4 -17.5 6.5t-17.5 5.5l-32 -10q-4 -15 -4 -33q0 -11 1 -21.5t7 -18.5t9.5 -17t-9.5 -17q-9 -5 -16 -1t-11.5 12t-7.5 17.5t-3 15.5q-3 15 -1.5 30t5.5 31q-24 2 -40 15q-9 8 -15 22t4 25q11 13 32 9t38 -11q20 50 46 96.5t56 91.5q61 96 135 183
q33 38 72 78t87 60q6 2 14 4t16.5 2.5t16 -2t12.5 -8.5q8 -11 -0.5 -21.5t-21.5 -4.5q-7 3 -15.5 2t-17.5 -5t-17.5 -9t-14.5 -9q-24 -16 -46 -35.5t-43 -41.5q-38 -41 -73 -84t-67 -91t-60 -98t-48 -103q-2 -4 -3.5 -8t-2.5 -8l14 -5l10 4q33 11 65.5 26.5t62.5 33.5
q63 36 122 76.5t116 84.5l114 89l109 93l106 97q4 4 9.5 11.5t12 14t13 11t13.5 3.5q11 -2 15 -12.5t-4 -17.5zM71 -246q23 17 43.5 37.5t34.5 46.5q5 10 9 23.5t18 13.5q11 -1 15.5 -9.5t-0.5 -17.5q-8 -23 -28 -43.5t-37 -34.5q-9 -8 -19.5 -19t-21.5 -16q-5 -4 -9.5 -3
t-7 4.5t-2.5 8.5t5 9z" />
    <glyph glyph-name="uni0137" unicode="&#x137;" horiz-adv-x="449" 
d="M-2 85q56 28 107.5 64t99.5 75l17 15l31.5 58t35.5 56q12 17 26.5 33.5t34.5 25.5q6 3 14.5 4t15.5 -0.5t12 -6.5t4 -15q-1 -9 -5.5 -17.5t-11.5 -16.5l-13 -15l-13 -13l-35 -34l-35 -34l-22 -21q-11 -10 -22 -19l-60 -118l20 14q10 7 21 13l30 18q16 10 34 17.5t36.5 9
t33.5 -7.5q9 -5 11 -12t0 -14.5t-7 -14.5t-11 -13q-28 -24 -64.5 -35t-73.5 -11q17 -20 40 -32.5t50 -8.5q35 5 68 17.5t64 29.5q5 3 13 8.5t16 1.5q5 -3 5.5 -9.5t-5.5 -10.5q-4 -3 -7.5 -4.5t-7.5 -3.5q-14 -8 -28 -15t-28 -13l-44 -21q-22 -10 -44 -13t-44 2.5t-43 25.5
q-11 10 -20.5 22t-17.5 24q-10 -9 -19 -19t-17 -20q-3 -5 -6.5 -9t-8.5 -9q-8 -8 -16.5 -10.5t-13.5 14.5q-3 7 0 12t7 11l32 45q15 22 28 44l25 44l10 17l-38 -29l-38 -27l-43 -29l-46 -27q-5 -4 -13.5 -10t-16.5 -4q-9 0 -11 8.5t7 12.5zM48 -161q23 17 43.5 37.5
t34.5 46.5q5 10 9.5 23.5t18.5 13.5q10 -1 14.5 -9.5t-0.5 -17.5q-8 -23 -28 -43.5t-37 -34.5q-9 -8 -19.5 -19t-21.5 -16q-5 -4 -9.5 -3t-7 5t-2.5 9t5 8zM212 94q32 1 59.5 13.5t48.5 35.5q-9 0 -19 -3l-17 -4q-9 -2 -22 -8.5t-25.5 -13.5t-22 -13t-11.5 -7h9zM300 312
l26 28q14 16 24 33q-25 -14 -45 -38.5t-35 -52.5z" />
    <glyph glyph-name="kgreenlandic" unicode="&#x138;" horiz-adv-x="449" 
d="M-2 85l50 26q22 12 42.5 25t41 27.5t44.5 34.5q21 16 32.5 21t15.5 1t1.5 -14t-8.5 -22l-38 -78l20 14q10 7 21 13l30 18q16 10 34 17.5t36.5 9t33.5 -7.5q9 -5 11 -12t0 -14.5t-7 -14.5t-11 -13q-28 -24 -64.5 -35t-73.5 -11q17 -20 40 -32.5t50 -8.5q35 5 68 17.5
t64 29.5q5 3 13 8.5t16 1.5q5 -3 5.5 -9.5t-5.5 -10.5q-4 -3 -7.5 -4.5t-7.5 -3.5q-14 -8 -28 -15t-28 -13l-44 -21q-22 -10 -44 -13t-44 2.5t-43 25.5q-11 10 -20.5 22t-17.5 24q-10 -9 -19 -19t-17 -20q-3 -5 -6.5 -9t-8.5 -9q-8 -8 -16.5 -10.5t-13.5 14.5q-3 7 0 12
t7 11l32 45q9 13 15 23l11 21l11 20q5 11 14 24q-19 -14 -33.5 -23t-33.5 -23q-22 -15 -42 -25t-44 -24q-5 -4 -13.5 -10t-16.5 -4q-9 0 -11 8.5t7 12.5zM212 94q32 1 59.5 13.5t48.5 35.5q-9 0 -19 -2l-17 -5q-9 -2 -22 -8.5t-25.5 -13.5t-22 -13t-11.5 -7h9z" />
    <glyph glyph-name="Lacute" unicode="&#x139;" horiz-adv-x="644" 
d="M568 523q-35 -28 -63.5 -62t-53 -71.5t-46.5 -77.5l-44 -76l-41 -71l-44 -70l-43 -68q-23 -36 -54 -62l13 -7q45 -21 93 -18t95.5 18.5t93.5 38.5l84 43l86 46q6 3 10.5 1t6.5 -5.5t1 -8t-6 -7.5q-12 -8 -25 -14l-26 -12l-46 -26l-47 -24l-75 -40q-38 -19 -79 -32
q-26 -8 -51.5 -11t-50.5 1q-29 5 -52.5 17t-46.5 26l-20 -10q-25 -8 -51.5 -12t-50.5 7q-11 4 -18.5 12.5t-11 18.5t-1.5 20.5t12 19.5q14 13 30 15t32.5 -2.5t33.5 -13.5t33 -19q34 19 59.5 49t46.5 62q40 59 75 120l69 125q23 40 47.5 78.5t53.5 74.5l24 32q13 18 30 25
q7 3 12.5 0.5t8.5 -7.5t3 -12t-6 -11zM716 643q-7 -15 -28 -23.5t-37 -13.5q-14 -5 -27 -8l-27 -8q-4 -1 -10.5 -3.5t-14 -4.5t-14.5 -2.5t-11 2.5q-8 8 1 15t24 12t30 8t18 5l17 7q10 4 19.5 9t17.5 10t10 10q3 8 10 9.5t13 -1t9.5 -9t-0.5 -14.5zM58 -11q-3 0 -7.5 -1
t-8 -3t-5 -4.5t2.5 -6.5q9 -11 24 -10.5t26 2.5q6 2 12.5 3.5t12.5 4.5q-14 6 -28.5 10.5t-28.5 4.5z" />
    <glyph glyph-name="lacute" unicode="&#x13a;" horiz-adv-x="294" 
d="M0 86q31 14 60 31t58 37q14 28 31 54l33 51l34 46l35 47q15 20 32.5 40.5t40.5 33.5q11 6 27 8.5t22 -14.5q4 -11 0.5 -21.5t-10.5 -21t-15 -20t-13 -16.5q-40 -57 -89.5 -106.5t-106.5 -91.5q-5 -12 -11.5 -25.5t-11.5 -28.5t-7 -29.5t1 -27.5q11 2 20 3q8 1 15 1.5
t9 1.5q30 6 59 16t57 22q8 2 19 8t19 1q11 -8 3 -14.5t-15 -9.5l-116 -43q-17 -6 -33 -12.5t-33 -7.5q-15 -2 -24 4.5t-12.5 17t-2.5 23t4 23.5q7 24 18 48q-41 -27 -86 -49q-10 -2 -16.5 6.5t5.5 14.5zM203 223q47 44 86 95q18 21 34 48q2 5 6 12.5t7 15.5q-14 -7 -27 -19
l-20 -20q-23 -23 -43 -49l-40 -52l-21 -32q-10 -15 -19 -31q9 7 18 15zM487 518q-7 -15 -28 -23.5t-37 -13.5q-14 -5 -27 -8l-27 -8q-4 -1 -10.5 -3.5t-14 -4.5t-14.5 -2.5t-11 2.5q-8 8 1 15t24 12t30 8t18 5l17 7q10 4 19.5 9t17.5 10t10 10q3 8 10 9.5t13 -1t9.5 -9
t-0.5 -14.5z" />
    <glyph glyph-name="uni013B" unicode="&#x13b;" horiz-adv-x="644" 
d="M568 523q-35 -28 -63.5 -62t-53 -71.5t-46.5 -77.5l-44 -76l-41 -71l-44 -70l-43 -68q-23 -36 -54 -62l13 -7q45 -21 93 -18t95.5 18.5t93.5 38.5l84 43l86 46q6 3 10.5 1t6.5 -5.5t1 -8t-6 -7.5q-12 -8 -25 -14l-26 -12l-46 -26l-47 -24l-75 -40q-38 -19 -79 -32
q-26 -8 -51.5 -11t-50.5 1q-29 5 -52.5 17t-46.5 26l-20 -10q-25 -8 -51.5 -12t-50.5 7q-11 4 -18.5 12.5t-11 18.5t-1.5 20.5t12 19.5q14 13 30 15t32.5 -2.5t33.5 -13.5t33 -19q34 19 59.5 49t46.5 62q40 59 75 120l69 125q23 40 47.5 78.5t53.5 74.5l24 32q13 18 30 25
q7 3 12.5 0.5t8.5 -7.5t3 -12t-6 -11zM95 -230q23 16 43.5 37t34.5 47q5 10 9 23.5t18 13.5q11 -1 15.5 -10t-0.5 -18q-8 -23 -28 -43.5t-37 -34.5q-9 -8 -19.5 -19t-21.5 -16q-5 -4 -9.5 -2.5t-7 5t-2.5 8.5t5 9zM58 -11q-3 0 -7.5 -1t-8 -3t-5 -4.5t2.5 -6.5
q9 -11 24 -10.5t26 2.5q6 2 12.5 3.5t12.5 4.5q-14 6 -28.5 10.5t-28.5 4.5z" />
    <glyph glyph-name="uni013C" unicode="&#x13c;" horiz-adv-x="294" 
d="M0 86q31 14 60 31t58 37q14 28 31 54l33 51l34 46l35 47q15 20 32.5 40.5t40.5 33.5q11 6 27 8.5t22 -14.5q4 -11 0.5 -21.5t-10.5 -21t-15 -20t-13 -16.5q-40 -57 -89.5 -106.5t-106.5 -91.5q-5 -12 -11.5 -25.5t-11.5 -28.5t-7 -29.5t1 -27.5q11 2 20 3q8 1 15 1.5
t9 1.5q30 6 59 16t57 22q8 2 19 8t19 1q11 -8 3 -14.5t-15 -9.5l-116 -43q-17 -6 -33 -12.5t-33 -7.5q-15 -2 -24 4.5t-12.5 17t-2.5 23t4 23.5q7 24 18 48q-41 -27 -86 -49q-10 -2 -16.5 6.5t5.5 14.5zM203 223q47 44 86 95q18 21 34 48q2 5 6 12.5t7 15.5q-14 -7 -27 -19
l-20 -20q-23 -23 -43 -49l-40 -52l-21 -32q-10 -15 -19 -31q9 7 18 15zM-61 -162q23 17 43.5 37.5t34.5 46.5q5 10 9 23.5t18 13.5q11 -1 15.5 -9.5t-0.5 -17.5q-8 -23 -28 -43.5t-37 -34.5q-9 -8 -19.5 -19t-21.5 -16q-5 -4 -9.5 -3t-7 4.5t-2.5 8.5t5 9z" />
    <glyph glyph-name="Lcaron" unicode="&#x13d;" horiz-adv-x="644" 
d="M568 523q-35 -28 -63.5 -62t-53 -71.5t-46.5 -77.5l-44 -76l-41 -71l-44 -70l-43 -68q-23 -36 -54 -62l13 -7q45 -21 93 -18t95.5 18.5t93.5 38.5l84 43l86 46q6 3 10.5 1t6.5 -5.5t1 -8t-6 -7.5q-12 -8 -25 -14l-26 -12l-46 -26l-47 -24l-75 -40q-38 -19 -79 -32
q-26 -8 -51.5 -11t-50.5 1q-29 5 -52.5 17t-46.5 26l-20 -10q-25 -8 -51.5 -12t-50.5 7q-11 4 -18.5 12.5t-11 18.5t-1.5 20.5t12 19.5q14 13 30 15t32.5 -2.5t33.5 -13.5t33 -19q34 19 59.5 49t46.5 62q40 59 75 120l69 125q23 40 47.5 78.5t53.5 74.5l24 32q13 18 30 25
q7 3 12.5 0.5t8.5 -7.5t3 -12t-6 -11zM491 336q23 17 43.5 37.5t34.5 46.5q5 10 9.5 23.5t18.5 13.5q10 -1 14.5 -9.5t-0.5 -17.5q-8 -23 -28 -43.5t-37 -34.5q-9 -8 -19.5 -19t-21.5 -16q-5 -4 -9.5 -3t-7 5t-2.5 9t5 8zM58 -11q-3 0 -7.5 -1t-8 -3t-5 -4.5t2.5 -6.5
q9 -11 24 -10.5t26 2.5q6 2 12.5 3.5t12.5 4.5q-14 6 -28.5 10.5t-28.5 4.5z" />
    </font>
</defs>
</svg>
